<svg xmlns="http://www.w3.org/2000/svg" xmlns:xlink="http://www.w3.org/1999/xlink" viewBox="0 0 331.09 135.15"><defs><style>.cls-1{fill:url(#Gradient_bez_nazwy_16);}.cls-2{fill:#010101;}</style><linearGradient id="Gradient_bez_nazwy_16" x1="113.96" y1="27.16" x2="264.3" y2="27.16" gradientUnits="userSpaceOnUse"><stop offset="0" stop-color="#be7fb6"/><stop offset="0.02" stop-color="#bc7db5"/><stop offset="0.27" stop-color="#a568ab"/><stop offset="0.43" stop-color="#9c60a7"/><stop offset="0.57" stop-color="#76497e"/><stop offset="0.7" stop-color="#59375e"/><stop offset="0.75" stop-color="#4d2f52"/><stop offset="0.85" stop-color="#39223c"/><stop offset="1" stop-color="#131018"/></linearGradient></defs><g id="Warstwa_2" data-name="Warstwa 2"><g id="Layer_1" data-name="Layer 1"><path class="cls-1" d="M186.37,48.17a3.3,3.3,0,1,0,1.69-.47,3.25,3.25,0,0,0-1.69.47m21-3.59a1.92,1.92,0,0,0-.68,2.65,1.94,1.94,0,1,0,3.33-2,1.92,1.92,0,0,0-1.66-1,1.88,1.88,0,0,0-1,.28M163,39.28a3.3,3.3,0,1,0,1.69-.47,3.37,3.37,0,0,0-1.69.47m30.28-3a7.35,7.35,0,1,0,3.75-1,7.36,7.36,0,0,0-3.75,1m-18.7-.06a7.37,7.37,0,1,0,3.76-1,7.34,7.34,0,0,0-3.76,1m35.29-5.47a6.24,6.24,0,1,0,3.19-.89,6.25,6.25,0,0,0-3.19.89M148.21,27.4a3.31,3.31,0,1,0,4.54,1.15,3.35,3.35,0,0,0-2.85-1.61,3.31,3.31,0,0,0-1.69.46m41.95-.32a3.3,3.3,0,1,0,1.69-.47,3.25,3.25,0,0,0-1.69.47m-30.08-2.89a6.3,6.3,0,1,0,3.21-.88,6.22,6.22,0,0,0-3.21.88M199,23.48a5.28,5.28,0,1,0,2.7-.75,5.2,5.2,0,0,0-2.7.75m-22.92-.34a5.27,5.27,0,1,0,2.7-.75,5.27,5.27,0,0,0-2.7.75m45-.26a5,5,0,1,0,2.57-.71,5,5,0,0,0-2.57.71m-106.38-.5a1.58,1.58,0,1,0,.81-.22,1.58,1.58,0,0,0-.81.22m30-.48a1.94,1.94,0,1,0,2.66.67,1.92,1.92,0,0,0-1.67-.94,1.9,1.9,0,0,0-1,.27m66.86-.38a3.3,3.3,0,1,0,1.7-.47,3.3,3.3,0,0,0-1.7.47m-90.12-.44a1.57,1.57,0,1,0,1.61,2.7,1.57,1.57,0,0,0-1.61-2.7M185.67,20a3.32,3.32,0,1,0,1.69-.46,3.3,3.3,0,0,0-1.69.46m71-.56a1.48,1.48,0,1,0,.76-.21,1.5,1.5,0,0,0-.76.21M133.34,19a1.57,1.57,0,1,0,.8-.22,1.53,1.53,0,0,0-.8.22m-5.58-.32a1.57,1.57,0,1,0,2.16.54,1.56,1.56,0,0,0-2.16-.54M262.05,18a1.49,1.49,0,1,0,2,.51,1.51,1.51,0,0,0-1.28-.72,1.48,1.48,0,0,0-.76.21m-10.84-.93a1.82,1.82,0,1,0,.93-.26,1.84,1.84,0,0,0-.93.26m-72.59-1a1.95,1.95,0,1,0,1-.27,2,2,0,0,0-1,.27m66-.06a1.95,1.95,0,1,0,1-.27,2,2,0,0,0-1,.27m-120.89-.31a1.9,1.9,0,1,0,1-.26,1.85,1.85,0,0,0-1,.26m131.68-.59a1.58,1.58,0,1,0,.81-.22,1.58,1.58,0,0,0-.81.22m-23.06.1a4.91,4.91,0,1,0,2.51-.69,4.9,4.9,0,0,0-2.51.69M139.9,13.45a3.33,3.33,0,1,0,1.69-.46,3.36,3.36,0,0,0-1.69.46m-11.85-.24a1.55,1.55,0,1,0,.8-.23,1.54,1.54,0,0,0-.8.23m4.86-.39a2.74,2.74,0,1,0,1.4-.38,2.74,2.74,0,0,0-1.4.38m90.9-1.2a3.3,3.3,0,1,0,1.69-.47,3.31,3.31,0,0,0-1.69.47M248.43,11a2.77,2.77,0,1,0,1.41-.39,2.78,2.78,0,0,0-1.41.39m-96.81.07a6.3,6.3,0,1,0,3.22-.88,6.29,6.29,0,0,0-3.22.88m14.7-2.49a5.47,5.47,0,1,0,2.79-.77,5.48,5.48,0,0,0-2.79.77m-33.66-.8a1.93,1.93,0,1,0,1-.28,1.94,1.94,0,0,0-1,.28m109.1-.35A3,3,0,1,0,243.28,7a2.91,2.91,0,0,0-1.52.42m-8.42-.67A3.3,3.3,0,1,0,235,6.29a3.25,3.25,0,0,0-1.69.47m-94.48-2.4a3.33,3.33,0,1,0,1.69-.46,3.31,3.31,0,0,0-1.69.46M158.67,1.9a3.52,3.52,0,1,0,1.81-.5,3.52,3.52,0,0,0-1.81.5m-11-1.34a4,4,0,1,0,2-.56,4,4,0,0,0-2,.56"/><path class="cls-2" d="M58.13,61.57a19.91,19.91,0,0,0-11.42,3.32.65.65,0,0,0-.17.08l-.32.26a16.58,16.58,0,0,0-5.68,7.53,31.65,31.65,0,0,0-2.21,6.48A13.33,13.33,0,0,1,25.51,89c-8.37,0-14.35-6.52-14.35-15.75s5.91-15.74,14.35-15.74A13.16,13.16,0,0,1,36.85,64c.61-.55,1.23-1.1,1.86-1.64a44.24,44.24,0,0,0,5.8-5.56A24.42,24.42,0,0,0,25.24,48C10.63,48,0,58.58,0,73.26S10.63,98.57,25.24,98.57c11.31,0,20.64-6.56,23.1-15.94,0,0,0,0,0,0l0-.09s0-.07,0-.12a33.78,33.78,0,0,1,1-3.76c0-.22.06-.44.09-.65L50,76a8.44,8.44,0,0,1,8.14-5.63c5.25,0,8.9,4,8.9,9.56s-3.65,9.57-8.9,9.57a8.9,8.9,0,0,1-3.77-.81c-2.87-1.59-10.25,5.2-7.91,6.47A37.53,37.53,0,0,0,50.83,97a21.54,21.54,0,0,0,7.3,1.22c11.23,0,18.93-7.51,18.93-18.34s-7.7-18.33-18.93-18.33"/><path class="cls-2" d="M119.31,61.57c-4.71,0-9.23,2.32-11.42,6-1.93-3.72-6-6-11-6A11.49,11.49,0,0,0,87,67V62.9H77.39v34h10V77.51c0-4.32,2.46-7.17,6.24-7.17s6.11,2.85,6.11,7.17v19.4h10V77.51c0-4.18,2.59-7.17,6.44-7.17s6.31,3.12,6.31,7.17v19.4h10V75.52c0-8.17-5.38-13.95-13.09-13.95"/><path class="cls-2" d="M170.2,61.57c-6.87,0-12.42,2.82-15.68,7.53V62.9h-7.64V59.24a4,4,0,0,1,4.32-4.18,14.07,14.07,0,0,1,3.32.46V47.35a21.53,21.53,0,0,0-6.64-1.06c-6.58,0-11,4.91-11,12.36V62.9h-4.79v7.57h4.79V96.91h10V70.47h6.79a19.15,19.15,0,0,0-2.34,9.43c0,10.83,7.71,18.34,18.87,18.34s18.93-7.51,18.93-18.34-7.7-18.33-18.93-18.33m0,27.9c-5.18,0-8.84-4-8.84-9.57s3.66-9.56,8.84-9.56,8.9,4,8.9,9.56-3.65,9.57-8.9,9.57"/><path class="cls-2" d="M223.81,84.89V70.47h7.7V62.9h-7.7V54.33h-8.37l-1.1,8.32a49.58,49.58,0,0,0-6.21-1,10.73,10.73,0,0,0-9.1,5.57V62.9h-9.57v34h10V78.84c0-5.11,2.86-9,7.17-8.7a11.63,11.63,0,0,1,7.24,3.35V85.88c0,7.24,4.39,12.36,11.16,12.36a24,24,0,0,0,6.85-1.07v-8a14.33,14.33,0,0,1-3.52.53c-2.8,0-4.52-1.93-4.52-4.78"/><path class="cls-2" d="M268.58,47.15a5.62,5.62,0,1,0,5.78,5.58,5.46,5.46,0,0,0-5.78-5.58"/><polygon class="cls-2" points="264.27 87.61 243.67 87.61 243.67 49.88 232.51 49.88 232.51 97.17 264.27 97.17 269.25 97.17 274.23 97.17 274.23 63.16 264.27 63.16 264.27 87.61"/><path class="cls-2" d="M331.09,79.77c0-10.76-7.44-18.2-18.33-18.2-6.8,0-12.36,2.86-15.62,7.57V62.9H289.5V59.24a4,4,0,0,1,4.32-4.18,14.07,14.07,0,0,1,3.32.46V47.35a21.49,21.49,0,0,0-6.64-1.06c-6.57,0-11,4.92-11,12.36V62.9h-4.78v7.57h4.78V96.91h10V70.47h6.82a18.64,18.64,0,0,0-2.3,9.17c0,11,7.71,18.6,18.67,18.6,8.31,0,15.48-4.85,17.14-11.5l-9-1.26A8.2,8.2,0,0,1,313,90.6c-4.51,0-7.77-3.12-8.63-7.91l26.64.07a22,22,0,0,0,.13-3m-26.84-3.06c.87-4.51,3.92-7.5,8.31-7.5a8.39,8.39,0,0,1,8.44,7.5Z"/><path class="cls-2" d="M57,124.52H61.3c3.38,0,5.65,2.17,5.65,5.27s-2.27,5.27-5.65,5.27H57Zm4.23,9.58c2.8,0,4.61-1.78,4.61-4.31s-1.81-4.31-4.61-4.31H58.12v8.62Z"/><polygon class="cls-2" points="88.3 134.1 88.3 135.06 80.84 135.06 80.84 124.52 88.07 124.52 88.07 125.48 81.95 125.48 81.95 129.23 87.41 129.23 87.41 130.18 81.95 130.18 81.95 134.1 88.3 134.1"/><polygon class="cls-2" points="110.92 124.52 106.25 135.06 105.15 135.06 100.48 124.52 101.69 124.52 105.72 133.67 109.79 124.52 110.92 124.52"/><polygon class="cls-2" points="131.29 134.1 131.29 135.06 123.83 135.06 123.83 124.52 131.06 124.52 131.06 125.48 124.95 125.48 124.95 129.23 130.4 129.23 130.4 130.18 124.95 130.18 124.95 134.1 131.29 134.1"/><polygon class="cls-2" points="145.29 124.52 146.41 124.52 146.41 134.1 152.32 134.1 152.32 135.06 145.29 135.06 145.29 124.52"/><path class="cls-2" d="M164.41,129.79a5.54,5.54,0,1,1,5.54,5.36,5.31,5.31,0,0,1-5.54-5.36m10,0a4.43,4.43,0,1,0-4.42,4.37,4.28,4.28,0,0,0,4.42-4.37"/><path class="cls-2" d="M197.62,128.13c0,2.24-1.62,3.6-4.3,3.6h-2.84v3.33h-1.11V124.52h3.95c2.68,0,4.3,1.35,4.3,3.61m-1.11,0c0-1.68-1.11-2.65-3.22-2.65h-2.81v5.27h2.81c2.11,0,3.22-1,3.22-2.62"/><polygon class="cls-2" points="222.38 124.52 222.38 135.06 221.3 135.06 221.3 126.62 217.16 133.72 216.63 133.72 212.49 126.67 212.49 135.06 211.42 135.06 211.42 124.52 212.34 124.52 216.92 132.34 221.46 124.52 222.38 124.52"/><polygon class="cls-2" points="244.65 134.1 244.65 135.06 237.19 135.06 237.19 124.52 244.43 124.52 244.43 125.48 238.31 125.48 238.31 129.23 243.76 129.23 243.76 130.18 238.31 130.18 238.31 134.1 244.65 134.1"/><polygon class="cls-2" points="267.47 124.52 267.47 135.06 266.56 135.06 259.77 126.5 259.77 135.06 258.66 135.06 258.66 124.52 259.58 124.52 266.37 133.07 266.37 124.52 267.47 124.52"/><polygon class="cls-2" points="284.34 125.48 280.63 125.48 280.63 124.52 289.16 124.52 289.16 125.48 285.46 125.48 285.46 135.06 284.34 135.06 284.34 125.48"/></g></g></svg>