<?xml version="1.0" encoding="utf-8"?>
<!-- Generator: Adobe Illustrator 25.0.0, SVG Export Plug-In . SVG Version: 6.00 Build 0)  -->
<svg version="1.1" id="Warstwa_1" xmlns="http://www.w3.org/2000/svg" xmlns:xlink="http://www.w3.org/1999/xlink" x="0px" y="0px"
	 viewBox="0 0 1123.26 595.92" style="enable-background:new 0 0 1123.26 595.92;" xml:space="preserve">
<style type="text/css">
	.st0{fill:#000003;}
	.st1{fill:url(#XMLID_2_);}
	.st2{fill:#2F3191;}
	.st3{fill:url(#XMLID_3_);}
	.st4{fill:url(#XMLID_4_);}
	.st5{fill:url(#XMLID_5_);}
	.st6{fill:url(#XMLID_6_);}
	.st7{fill:url(#XMLID_7_);}
	.st8{fill:url(#XMLID_8_);}
	.st9{fill:url(#XMLID_9_);}
</style>
<g>
	<g>
		<path class="st0" d="M461.52,287.3c-9.56,0-17.9,2.58-24.52,7.12c-0.12,0.05-0.24,0.1-0.35,0.18c-0.24,0.17-0.46,0.38-0.7,0.55
			c-5.5,4.06-9.68,9.55-12.2,16.15c-3.44,7.42-4.73,13.91-4.73,13.91c-3.14,12.12-14.69,20.96-27.52,20.96
			c-17.96,0-30.8-13.98-30.8-33.8c0-19.82,12.7-33.79,30.8-33.79c10.25,0,19.43,5.5,24.34,13.88c1.32-1.2,2.65-2.38,4.01-3.53
			c4.41-3.74,8.79-7.49,12.44-11.93c-9.26-11.64-24.29-18.94-41.35-18.94c-31.36,0-54.18,22.81-54.18,54.32
			c0,31.51,22.82,54.33,54.18,54.33c24.26,0,44.28-14.09,49.58-34.22c0.01-0.02,0.02-0.05,0.02-0.08c0.02-0.06,0.03-0.13,0.05-0.19
			c0.01-0.09,0.04-0.15,0.06-0.26c0.1-0.43,1.74-8.02,2.06-8.08c0.05-0.48,0.13-0.94,0.2-1.4l1.13-4.29
			c2.77-7.35,9.21-12.08,17.47-12.08c11.26,0,19.1,8.56,19.1,20.53c0,11.97-7.84,20.53-19.1,20.53c-2.97,0-5.68-0.62-8.1-1.74
			c-6.17-3.42-21.99,11.16-16.98,13.89c4,2.18,6.29,2.72,9.4,4.06c4.73,1.69,9.99,2.61,15.67,2.61c24.1,0,40.63-16.12,40.63-39.35
			C502.15,303.27,485.62,287.3,461.52,287.3"/>
		<path class="st0" d="M592.84,287.3c-10.12,0-19.82,4.99-24.53,12.97c-4.14-7.98-12.97-12.97-23.52-12.97
			c-8.84,0-16.83,4.14-21.39,11.55v-8.69h-20.53v73h21.38v-41.64c0-9.27,5.28-15.39,13.4-15.39c7.99,0,13.12,6.13,13.12,15.39v41.64
			h21.39v-41.64c0-8.98,5.57-15.39,13.83-15.39c8.13,0.28,13.55,6.7,13.55,15.39v41.64h21.39v-45.92
			C620.93,299.7,609.37,287.3,592.84,287.3"/>
		<path class="st0" d="M702.06,287.3c-14.74,0-26.66,6.07-33.65,16.17v-13.32h-16.4v-7.84c0-5.27,3.71-8.98,9.27-8.98
			c2.42,0,4.85,0.42,7.13,1v-17.54c-4.29-1.43-9.27-2.28-14.26-2.28c-14.11,0-23.52,10.55-23.52,26.52v9.12h-10.27v16.25h10.27
			v56.75h21.38V306.4h14.57c-3.22,5.77-5.02,12.6-5.02,20.25c0,23.25,16.54,39.35,40.5,39.35c24.1,0,40.63-16.11,40.63-39.35
			C742.69,303.27,726.16,287.3,702.06,287.3 M702.06,347.18c-11.12,0-18.97-8.56-18.97-20.53c0-11.98,7.84-20.53,18.97-20.53
			c11.26,0,19.1,8.56,19.1,20.53C721.16,338.63,713.32,347.18,702.06,347.18"/>
		<path class="st0" d="M817.12,337.35V306.4h16.54v-16.25h-16.54v-18.39h-17.97l-2.35,17.86c-5.02-1.07-11.46-2.17-13.33-2.17
			c-7.99,0-15.26,4.71-19.53,11.97v-9.27H743.4v73h21.38v-38.78c0-10.98,6.16-19.28,15.4-18.68c7.75,0.51,12.19,4.36,15.54,7.19
			v26.6c0,15.54,9.41,26.52,23.95,26.52c4.56,0,10.27-0.86,14.69-2.29v-17.25c-2.42,0.71-5.57,1.14-7.55,1.14
			C820.82,347.61,817.12,343.47,817.12,337.35"/>
	</g>
	<g>
		<path class="st0" d="M473.94,410.34l6.42,13.08h-2.93l-6.26-12.71h-8.61v12.71h-2.76v-27.58h9.99c3.57,0,6.15,0.59,7.74,1.75
			c1.58,1.16,2.37,3.02,2.37,5.56C479.91,406.86,477.92,409.26,473.94,410.34z M462.57,397.87v10.72h6.58
			c1.87,0,3.38-0.18,4.55-0.53c1.43-0.43,2.42-1.26,2.96-2.48c0.3-0.73,0.45-1.53,0.45-2.4c0-1.76-0.5-3.09-1.5-3.98
			c-0.73-0.67-1.96-1.09-3.7-1.26c-0.81-0.05-1.57-0.08-2.27-0.08H462.57z"/>
		<path class="st0" d="M528.93,423.42h-18.48v-27.58h18.28v2.11h-15.47v9.67h13.44v2.19h-13.44v11.49h15.68V423.42z"/>
		<path class="st0" d="M576.82,400.23l-1.99,1.5c-0.73-1.27-1.73-2.26-2.98-2.96s-2.66-1.05-4.2-1.05c-2.06,0-3.68,0.38-4.87,1.14
			s-1.79,1.87-1.79,3.33c0,1.11,0.45,2.05,1.34,2.8c0.78,0.65,1.84,1.19,3.17,1.63c0.19,0.05,0.75,0.24,1.69,0.55
			s1.56,0.52,1.89,0.63c0.84,0.35,1.53,0.64,2.07,0.85c1.33,0.54,2.45,1.11,3.37,1.71c0.95,0.62,1.66,1.39,2.15,2.32
			c0.51,0.98,0.77,2.1,0.77,3.37c0,2.44-0.92,4.35-2.76,5.74c-1.84,1.39-4.33,2.09-7.47,2.09c-1.87,0-3.63-0.34-5.28-1.01
			c-1.98-0.81-3.41-1.98-4.31-3.49c-0.57-0.89-0.95-1.88-1.14-2.96l2.32-1.01c1.11,4.09,3.98,6.13,8.61,6.13
			c1.46,0,2.79-0.24,3.98-0.73c1.36-0.51,2.28-1.35,2.76-2.52c0.27-0.57,0.4-1.29,0.4-2.15c0-0.78-0.2-1.64-0.61-2.56
			c-0.16-0.3-0.47-0.61-0.93-0.94c-0.52-0.32-0.87-0.57-1.06-0.73c-0.3-0.19-1.37-0.65-3.21-1.38c-0.35-0.11-1.04-0.35-2.07-0.73
			c-0.19-0.03-0.33-0.07-0.41-0.12c-1.14-0.41-1.98-0.72-2.54-0.93c-0.56-0.22-1.23-0.53-2.03-0.94c-0.8-0.41-1.39-0.79-1.79-1.16
			c-0.39-0.37-0.76-0.83-1.1-1.4c-0.34-0.57-0.56-1.2-0.67-1.91c-0.03-0.19-0.04-0.5-0.04-0.93c0-2.3,0.95-4.05,2.84-5.24
			c1.76-1.11,3.87-1.67,6.34-1.67C571.66,395.48,574.84,397.06,576.82,400.23z"/>
		<path class="st0" d="M610.73,423.42h-2.72v-27.58h2.72V423.42z"/>
		<path class="st0" d="M642.86,395.84h9.5c3.95,0,6.93,1,8.94,3.01c2.03,2.06,3.05,5.62,3.05,10.68c0,6.55-1.75,10.72-5.24,12.51
			c-1.73,0.92-4.02,1.38-6.86,1.38h-9.38V395.84z M645.66,398v23.27h5.69c3.87,0,6.56-0.91,8.08-2.72c1.49-1.84,2.23-4.85,2.23-9.01
			c0-3.79-0.64-6.63-1.91-8.53c-1.33-2-3.78-3-7.35-3H645.66z"/>
		<path class="st0" d="M714.13,423.42h-18.48v-27.58h18.28v2.11h-15.47v9.67h13.44v2.19h-13.44v11.49h15.68V423.42z"/>
		<path class="st0" d="M743.58,423.42v-27.58h3.09l17.02,23.39v-7.39v-16h2.44v27.58h-2.52l-17.5-24.29v7.8v16.49H743.58z"/>
		<path class="st0" d="M819.24,402.67l-2.56,0.57c-0.43-1.79-1.29-3.18-2.58-4.18c-1.29-1-2.94-1.5-4.97-1.5
			c-3.09,0-5.32,0.99-6.7,2.98c-1.38,1.99-2.07,4.99-2.07,9c0,3.28,0.38,5.85,1.14,7.71c0.81,1.98,2.19,3.29,4.14,3.94
			c1.03,0.32,2.21,0.49,3.53,0.49c3.9,0,6.5-1.79,7.8-5.36l2.35,0.73c-0.73,2.25-1.99,3.95-3.78,5.1c-1.79,1.15-3.97,1.73-6.54,1.73
			c-3.93,0-6.83-1.15-8.71-3.45c-1.88-2.3-2.82-5.93-2.82-10.88c0-9.48,3.91-14.22,11.74-14.22c2.55,0,4.69,0.63,6.44,1.89
			C817.4,398.46,818.59,400.28,819.24,402.67z"/>
		<path class="st0" d="M868.39,423.42h-18.48v-27.58h18.28v2.11h-15.47v9.67h13.44v2.19h-13.44v11.49h15.68V423.42z"/>
	</g>
	<g>
		<linearGradient id="XMLID_2_" gradientUnits="userSpaceOnUse" x1="320.7517" y1="358.1021" x2="392.2802" y2="368.8804">
			<stop  offset="0" style="stop-color:#901865"/>
			<stop  offset="0.022" style="stop-color:#9A1E69"/>
			<stop  offset="0.0921" style="stop-color:#B53072"/>
			<stop  offset="0.1727" style="stop-color:#CB3E7A"/>
			<stop  offset="0.2668" style="stop-color:#DC4981"/>
			<stop  offset="0.3832" style="stop-color:#E75085"/>
			<stop  offset="0.5466" style="stop-color:#EE5587"/>
			<stop  offset="1" style="stop-color:#F05688"/>
		</linearGradient>
		<path id="XMLID_44_" class="st1" d="M387.42,396.57c-23.24,6.78-46.52,0.07-68.62-14.23c-24.58-15.9-36.98-41.22-37.29-67.8
			c-0.61,27.67,11.8,54.29,37.29,70.79c22.1,14.3,45.38,21.01,68.62,14.23c4.74-1.38,9.66,1.51,10.65,6.35
			c0.01,0.03,0.01,0.06,0.01,0.1c0.19-0.99,0.2-2.03-0.01-3.08C397.08,398.08,392.16,395.18,387.42,396.57z"/>
		<path id="XMLID_43_" class="st2" d="M422.26,397.42c0,4.82-3.91,8.73-8.73,8.73c-4.82,0-8.73-3.91-8.73-8.73s3.91-8.73,8.73-8.73
			C418.35,388.68,422.26,392.59,422.26,397.42z"/>
		<path id="XMLID_42_" class="st2" d="M440.39,386.56c0,3.53-2.86,6.38-6.38,6.38s-6.38-2.86-6.38-6.38c0-3.53,2.86-6.38,6.38-6.38
			S440.39,383.03,440.39,386.56z"/>
		<circle id="XMLID_41_" class="st2" cx="448.37" cy="376.06" r="4.12"/>
		<linearGradient id="XMLID_3_" gradientUnits="userSpaceOnUse" x1="254.8673" y1="292.7728" x2="484.9742" y2="292.7728">
			<stop  offset="0" style="stop-color:#D678B1"/>
			<stop  offset="1" style="stop-color:#9376B5"/>
		</linearGradient>
		<path id="XMLID_40_" class="st3" d="M387.42,396.57c-23.24,6.78-46.52,0.07-68.62-14.23c-38.82-25.12-47.3-73.72-25.66-113.73
			c22.81-42.17,73.58-53.97,114.63-29.29c8.53,5.13,15.86,11.5,21.89,18.74c8.84,10.62,22.77,15.54,36.18,12.2l1.14-0.28
			c15.04-3.74,22.47-20.64,15.16-34.3c-10.51-19.67-26.62-36.69-47.66-48.45c-55.94-31.25-127.53-12.73-161.36,41.68
			c-35.67,57.37-17.38,132.62,40.31,167.31c24.31,14.62,51.7,19.67,77.8,16.26c4.62-0.6,7.77-4.99,6.84-9.55l0,0
			C397.08,398.08,392.16,395.18,387.42,396.57z"/>
		<linearGradient id="XMLID_4_" gradientUnits="userSpaceOnUse" x1="369.684" y1="257.2192" x2="372.0256" y2="385.5437">
			<stop  offset="0" style="stop-color:#AF6AAC"/>
			<stop  offset="0.26" style="stop-color:#7C4199"/>
			<stop  offset="0.4199" style="stop-color:#6E3795"/>
			<stop  offset="0.5987" style="stop-color:#622F92"/>
			<stop  offset="0.6705" style="stop-color:#543092"/>
			<stop  offset="0.8047" style="stop-color:#313191"/>
			<stop  offset="0.81" style="stop-color:#2F3191"/>
			<stop  offset="1" style="stop-color:#33308D"/>
		</linearGradient>
		<path id="XMLID_28_" class="st4" d="M387.42,396.57c-23.24,6.78-46.52,0.07-68.62-14.23c-38.82-25.12-47.3-73.72-25.66-113.73
			c22.81-42.17,73.58-53.97,114.63-29.29c8.53,5.13,15.86,11.5,21.89,18.74c8.84,10.62,22.77,15.54,36.18,12.2l1.14-0.28
			c15.04-3.74,22.47-20.64,15.16-34.3c-10.51-19.67-26.62-36.69-47.66-48.45c-55.94-31.25-127.53-12.73-161.36,41.68
			c-35.67,57.37-17.38,132.62,40.31,167.31c24.31,14.62,51.7,19.67,77.8,16.26c4.62-0.6,7.77-4.99,6.84-9.55l0,0
			C397.08,398.08,392.16,395.18,387.42,396.57z"/>
		<linearGradient id="XMLID_5_" gradientUnits="userSpaceOnUse" x1="380.8749" y1="213.514" x2="349.1249" y2="361.6801">
			<stop  offset="0" style="stop-color:#7054A3"/>
			<stop  offset="1" style="stop-color:#6078BB"/>
		</linearGradient>
		<path id="XMLID_27_" class="st5" d="M288.83,269.16c25-40.91,77.88-54.52,118.93-29.84c8.53,5.13,15.86,11.5,21.89,18.74
			c8.84,10.62,22.77,15.54,36.18,12.2l1.14-0.28c15.04-3.74,22.47-20.64,15.16-34.3c-10.51-19.67-26.62-36.69-47.66-48.45
			c-55.94-31.25-127.53-12.73-161.36,41.68c-35.67,57.37-17.38,132.62,40.31,167.31c16.11,9.69,33.58,15.15,51.12,16.75
			C262.94,394.67,269.46,300.86,288.83,269.16z"/>
		<linearGradient id="XMLID_6_" gradientUnits="userSpaceOnUse" x1="254.8673" y1="292.5099" x2="484.9742" y2="292.5099">
			<stop  offset="0" style="stop-color:#AF6AAC"/>
			<stop  offset="0.26" style="stop-color:#7C4199"/>
			<stop  offset="0.4199" style="stop-color:#6E3795"/>
			<stop  offset="0.5987" style="stop-color:#622F92"/>
			<stop  offset="0.6705" style="stop-color:#543092"/>
			<stop  offset="0.8047" style="stop-color:#313191"/>
			<stop  offset="0.81" style="stop-color:#2F3191"/>
			<stop  offset="1" style="stop-color:#33308D"/>
		</linearGradient>
		<path id="XMLID_26_" class="st6" d="M288.83,269.16c25-40.91,77.88-54.52,118.93-29.84c8.53,5.13,15.86,11.5,21.89,18.74
			c8.84,10.62,22.77,15.54,36.18,12.2l1.14-0.28c15.04-3.74,22.47-20.64,15.16-34.3c-10.51-19.67-26.62-36.69-47.66-48.45
			c-55.94-31.25-127.53-12.73-161.36,41.68c-35.67,57.37-17.38,132.62,40.31,167.31c16.11,9.69,33.58,15.15,51.12,16.75
			C262.94,394.67,269.46,300.86,288.83,269.16z"/>
		<linearGradient id="XMLID_7_" gradientUnits="userSpaceOnUse" x1="282.124" y1="219.7542" x2="464.3961" y2="281.8345">
			<stop  offset="0" style="stop-color:#AF6AAC"/>
			<stop  offset="0.26" style="stop-color:#7C4199"/>
			<stop  offset="0.4199" style="stop-color:#6E3795"/>
			<stop  offset="0.5987" style="stop-color:#622F92"/>
			<stop  offset="0.6705" style="stop-color:#543092"/>
			<stop  offset="0.8047" style="stop-color:#313191"/>
			<stop  offset="0.81" style="stop-color:#2F3191"/>
			<stop  offset="1" style="stop-color:#33308D"/>
		</linearGradient>
		<path id="XMLID_25_" class="st7" d="M345.4,210.4c50.3-1.63,74.08,27.3,86.43,46.24c7.55,11.57,20.58,16.96,33.99,13.62l1.14-0.28
			c15.04-3.74,22.47-20.64,15.16-34.3c-10.51-19.67-26.62-36.69-47.66-48.45c-55.94-31.25-127.53-12.73-161.36,41.68
			c-13.2,21.23-18.99,44.91-18.15,68.08C254,247.05,295.09,212.03,345.4,210.4z"/>
		<linearGradient id="XMLID_8_" gradientUnits="userSpaceOnUse" x1="254.8901" y1="251.4197" x2="484.9588" y2="251.4197">
			<stop  offset="0" style="stop-color:#2F3191"/>
			<stop  offset="1" style="stop-color:#33308D"/>
		</linearGradient>
		<path id="XMLID_24_" class="st8" d="M466.97,265.5l-1.14,0.28c-13.41,3.34-26.44-2.05-33.99-13.62
			c-12.35-18.94-36.14-47.87-86.43-46.24c-50.31,1.63-91.41,36.66-90.45,86.59c-0.03-0.72-0.03-1.44-0.04-2.16
			c-0.04,2.22-0.04,4.43,0.04,6.64c-0.96-49.93,40.14-84.96,90.45-86.59c50.3-1.63,74.08,27.3,86.43,46.24
			c7.55,11.57,20.58,16.96,33.99,13.62l1.14-0.28c11.84-2.95,18.96-14.05,17.89-25.3C483.94,254.27,477.23,262.95,466.97,265.5z"/>
		<linearGradient id="XMLID_9_" gradientUnits="userSpaceOnUse" x1="314.2036" y1="379.7888" x2="346.2821" y2="241.7901">
			<stop  offset="0" style="stop-color:#2F3191"/>
			<stop  offset="1" style="stop-color:#33308D"/>
		</linearGradient>
		<path id="XMLID_23_" class="st9" d="M288.83,269.16c16.19-26.48,44.05-41.5,72.82-42.13c-30-0.57-59.49,14.57-76.33,42.13
			c-18.92,30.95-25.56,121.07,68.66,142.37c3.51,0.64,7.03,1.12,10.56,1.45C262.94,394.67,269.46,300.86,288.83,269.16z"/>
	</g>
</g>
</svg>
