<svg xmlns="http://www.w3.org/2000/svg" viewBox="0 0 169.79 171.24"><path d="M1.69,95.3A1.69,1.69,0,0,1,.46,92.45L87.6.53A1.93,1.93,0,0,1,88.85,0a1.7,1.7,0,0,1,1.24.57l79.27,89.19A1.69,1.69,0,0,1,166.83,92L88.78,4.19,2.92,94.77A1.65,1.65,0,0,1,1.69,95.3Z" fill="#cfa75f"/><path d="M143.76,171.24H26a1.69,1.69,0,0,1-1.69-1.69V90.1a1.69,1.69,0,1,1,3.38,0v77.76H142.06V90.1a1.7,1.7,0,0,1,3.39,0v79.45A1.69,1.69,0,0,1,143.76,171.24Z" fill="#cfa75f"/><polyline points="64.88 142.02 70.72 142.02 84.99 100.07 90.32 100.07 102.01 126.89" fill="none" stroke="#cfa75f" stroke-linecap="round" stroke-linejoin="round" stroke-width="2"/><polyline points="103.22 126.89 109.19 126.88 126.08 80.99 120.41 80.99 103.22 126.89 96.68 126.89 84.99 100.07 78.63 100.07 64.88 142.02 55.42 106.6 60.87 106.6 66.94 128.49" fill="none" stroke="#cfa75f" stroke-linecap="round" stroke-linejoin="round" stroke-width="2"/><polyline points="55.42 106.6 36.52 158.18 42.36 158.18 58.17 116.87" fill="none" stroke="#cfa75f" stroke-linecap="round" stroke-linejoin="round" stroke-width="2"/><polygon points="117.19 77.73 130.89 77.73 128.74 59.34 117.19 77.73" fill="none" stroke="#cfa75f" stroke-linecap="round" stroke-linejoin="round" stroke-width="2"/><line x1="124.04" y1="54.12" x2="47.34" y2="54.12" fill="none" stroke="#cfa75f" stroke-linecap="round" stroke-linejoin="round" stroke-width="2"/><line x1="132.75" y1="163.42" x2="36.52" y2="163.42" fill="none" stroke="#cfa75f" stroke-linecap="round" stroke-linejoin="round" stroke-width="2"/></svg>