<svg xmlns="http://www.w3.org/2000/svg" viewBox="0 0 136.43 174.24"><rect x="70.32" y="1.5" width="30.13" height="171.24" fill="none" stroke="#2c2d70" stroke-linecap="round" stroke-linejoin="round" stroke-width="3"/><line x1="90.49" y1="7.91" x2="97.17" y2="7.91" fill="none" stroke="#2c2d70" stroke-linecap="round" stroke-linejoin="round" stroke-width="3"/><line x1="90.49" y1="14.76" x2="97.17" y2="14.76" fill="none" stroke="#2c2d70" stroke-linecap="round" stroke-linejoin="round" stroke-width="3"/><line x1="90.49" y1="21.61" x2="97.17" y2="21.61" fill="none" stroke="#2c2d70" stroke-linecap="round" stroke-linejoin="round" stroke-width="3"/><line x1="90.49" y1="28.46" x2="97.17" y2="28.46" fill="none" stroke="#2c2d70" stroke-linecap="round" stroke-linejoin="round" stroke-width="3"/><line x1="85.39" y1="35.3" x2="97.17" y2="35.3" fill="none" stroke="#2c2d70" stroke-linecap="round" stroke-linejoin="round" stroke-width="3"/><line x1="90.49" y1="42.15" x2="97.17" y2="42.15" fill="none" stroke="#2c2d70" stroke-linecap="round" stroke-linejoin="round" stroke-width="3"/><line x1="90.49" y1="49" x2="97.17" y2="49" fill="none" stroke="#2c2d70" stroke-linecap="round" stroke-linejoin="round" stroke-width="3"/><line x1="90.49" y1="55.85" x2="97.17" y2="55.85" fill="none" stroke="#2c2d70" stroke-linecap="round" stroke-linejoin="round" stroke-width="3"/><line x1="90.49" y1="62.7" x2="97.17" y2="62.7" fill="none" stroke="#2c2d70" stroke-linecap="round" stroke-linejoin="round" stroke-width="3"/><line x1="85.39" y1="69.54" x2="97.17" y2="69.54" fill="none" stroke="#2c2d70" stroke-linecap="round" stroke-linejoin="round" stroke-width="3"/><line x1="90.49" y1="76.39" x2="97.17" y2="76.39" fill="none" stroke="#2c2d70" stroke-linecap="round" stroke-linejoin="round" stroke-width="3"/><line x1="90.49" y1="83.24" x2="97.17" y2="83.24" fill="none" stroke="#2c2d70" stroke-linecap="round" stroke-linejoin="round" stroke-width="3"/><line x1="90.49" y1="90.09" x2="97.17" y2="90.09" fill="none" stroke="#2c2d70" stroke-linecap="round" stroke-linejoin="round" stroke-width="3"/><line x1="90.49" y1="96.93" x2="97.17" y2="96.93" fill="none" stroke="#2c2d70" stroke-linecap="round" stroke-linejoin="round" stroke-width="3"/><line x1="85.39" y1="103.78" x2="97.17" y2="103.78" fill="none" stroke="#2c2d70" stroke-linecap="round" stroke-linejoin="round" stroke-width="3"/><line x1="90.49" y1="110.63" x2="97.17" y2="110.63" fill="none" stroke="#2c2d70" stroke-linecap="round" stroke-linejoin="round" stroke-width="3"/><line x1="90.49" y1="117.48" x2="97.17" y2="117.48" fill="none" stroke="#2c2d70" stroke-linecap="round" stroke-linejoin="round" stroke-width="3"/><line x1="90.49" y1="124.33" x2="97.17" y2="124.33" fill="none" stroke="#2c2d70" stroke-linecap="round" stroke-linejoin="round" stroke-width="3"/><line x1="90.49" y1="131.17" x2="97.17" y2="131.17" fill="none" stroke="#2c2d70" stroke-linecap="round" stroke-linejoin="round" stroke-width="3"/><line x1="85.39" y1="138.02" x2="97.17" y2="138.02" fill="none" stroke="#2c2d70" stroke-linecap="round" stroke-linejoin="round" stroke-width="3"/><line x1="90.49" y1="144.87" x2="97.17" y2="144.87" fill="none" stroke="#2c2d70" stroke-linecap="round" stroke-linejoin="round" stroke-width="3"/><line x1="90.49" y1="151.72" x2="97.17" y2="151.72" fill="none" stroke="#2c2d70" stroke-linecap="round" stroke-linejoin="round" stroke-width="3"/><line x1="90.49" y1="158.57" x2="97.17" y2="158.57" fill="none" stroke="#2c2d70" stroke-linecap="round" stroke-linejoin="round" stroke-width="3"/><line x1="90.49" y1="165.41" x2="97.17" y2="165.41" fill="none" stroke="#2c2d70" stroke-linecap="round" stroke-linejoin="round" stroke-width="3"/><line x1="108.33" y1="1.5" x2="130.24" y2="1.5" fill="none" stroke="#2c2d70" stroke-linecap="round" stroke-linejoin="round" stroke-width="3"/><line x1="108.33" y1="172.74" x2="130.24" y2="172.74" fill="none" stroke="#2c2d70" stroke-linecap="round" stroke-linejoin="round" stroke-width="3"/><line x1="119.28" y1="7.91" x2="119.28" y2="165.41" fill="none" stroke="#2c2d70" stroke-linecap="round" stroke-linejoin="round" stroke-width="3"/><polyline points="59.41 1.5 1.5 70.03 17.93 70.03 62.15 19.75" fill="none" stroke="#2c2d70" stroke-linecap="round" stroke-linejoin="round" stroke-width="3"/><polyline points="41.41 55.85 41.41 172.74 62.15 172.74" fill="none" stroke="#2c2d70" stroke-linecap="round" stroke-linejoin="round" stroke-width="3"/><polyline points="70.32 103.78 57.85 103.78 57.85 69.54 70.32 69.54" fill="none" stroke="#2c2d70" stroke-linecap="round" stroke-linejoin="round" stroke-width="3"/><line x1="57.85" y1="87.12" x2="70.32" y2="87.12" fill="none" stroke="#2c2d70" stroke-linecap="round" stroke-linejoin="round" stroke-width="3"/><rect x="125.54" y="60.84" width="9.39" height="104.58" fill="none" stroke="#2c2d70" stroke-linecap="round" stroke-linejoin="round" stroke-width="3"/><line x1="125.67" y1="161.01" x2="134.93" y2="161.01" fill="none" stroke="#2c2d70" stroke-linecap="round" stroke-linejoin="round" stroke-width="3"/><line x1="125.67" y1="156.84" x2="134.82" y2="156.84" fill="none" stroke="#2c2d70" stroke-linecap="round" stroke-linejoin="round" stroke-width="3"/><polyline points="125.54 60.84 130.3 43.42 134.94 60.84" fill="none" stroke="#2c2d70" stroke-linecap="round" stroke-linejoin="round" stroke-width="3"/><line x1="127.73" y1="52.85" x2="132.81" y2="52.85" fill="none" stroke="#2c2d70" stroke-linecap="round" stroke-linejoin="round" stroke-width="3"/></svg>