<svg xmlns="http://www.w3.org/2000/svg" viewBox="0 0 176 167.49"><path d="M143.12,133.08a1.67,1.67,0,0,1-1.47-.87L115.33,85l-.09-.17a32.88,32.88,0,1,1,55.76,0l-.09.17L144.6,132.21A1.69,1.69,0,0,1,143.12,133.08ZM118.43,83.61l24.69,44.3,24.7-44.3a1.5,1.5,0,0,1,.16-.34,29.49,29.49,0,1,0-49.72,0A1.54,1.54,0,0,1,118.43,83.61Z" fill="#2c2d70"/><path d="M143.12,69.8a8.4,8.4,0,1,1,8.4-8.4A8.41,8.41,0,0,1,143.12,69.8Zm0-13.41a5,5,0,1,0,5,5A5,5,0,0,0,143.12,56.39Z" fill="#2c2d70"/><path d="M161.83,167.49H1.69A1.69,1.69,0,0,1,0,165.8V1.69A1.69,1.69,0,0,1,1.69,0H161.83a1.69,1.69,0,0,1,1.69,1.69V21.54a1.69,1.69,0,0,1-3.38,0V3.38H3.38V164.1H160.14V138.67a1.69,1.69,0,0,1,3.38,0V165.8A1.69,1.69,0,0,1,161.83,167.49Z" fill="#2c2d70"/><path d="M46.91,93.82h-28a1.68,1.68,0,0,1-1.42-.77,1.71,1.71,0,0,1-.13-1.61L54,9.17a1.67,1.67,0,0,1,1.52-1,1.77,1.77,0,0,1,1.55,1l29.56,63a1.7,1.7,0,0,1-.81,2.25,1.68,1.68,0,0,1-2.25-.82l-28-59.62-34,76.51H46.91a1.7,1.7,0,0,1,0,3.39Z" fill="#2c2d70"/><path d="M56,79.75a1.68,1.68,0,0,1-1.69-1.69V28.83a1.69,1.69,0,0,1,3.38,0V78.06A1.69,1.69,0,0,1,56,79.75Z" fill="#2c2d70"/><path d="M41.84,72.32a1.69,1.69,0,0,1-1-3.07L55,59.16a1.7,1.7,0,0,1,2,.07l12.3,10.09a1.69,1.69,0,0,1-2.15,2.62L55.94,62.67,42.82,72A1.7,1.7,0,0,1,41.84,72.32Z" fill="#2c2d70"/><path d="M41.84,61.3a1.69,1.69,0,0,1-1-3.07L55,48.14a1.67,1.67,0,0,1,2,.07L69.38,58.3a1.69,1.69,0,1,1-2.15,2.61L55.94,51.64,42.82,61A1.71,1.71,0,0,1,41.84,61.3Z" fill="#2c2d70"/><path d="M98.3,59a1.7,1.7,0,0,1-1.58-1.1L83.93,24,73.81,46.26a1.68,1.68,0,0,1-2.23.85,1.7,1.7,0,0,1-.85-2.24l11.81-26a1.61,1.61,0,0,1,1.59-1A1.69,1.69,0,0,1,85.66,19L99.88,56.68a1.69,1.69,0,0,1-1,2.18A1.81,1.81,0,0,1,98.3,59Z" fill="#2c2d70"/><path d="M104.26,49.87a1.7,1.7,0,0,1-1.57-1L97,34.93l-3.68,6.21a1.69,1.69,0,1,1-2.91-1.72l5.41-9.14a1.68,1.68,0,0,1,1.59-.83,1.71,1.71,0,0,1,1.44,1.05l6.94,17a1.68,1.68,0,0,1-.92,2.2A1.63,1.63,0,0,1,104.26,49.87Z" fill="#2c2d70"/><path d="M25.29,123.17a1.68,1.68,0,0,1-.69-.15c-7.22-3.21-11.64-9.22-11.54-15.67a1.69,1.69,0,0,1,1.69-1.66h0a1.68,1.68,0,0,1,1.66,1.72c-.07,5,3.67,9.91,9.54,12.52a1.69,1.69,0,0,1-.69,3.24Z" fill="#2c2d70"/><path d="M101.88,146.47a1.69,1.69,0,0,1-.75-.18,28,28,0,0,1-5.6-3.67A59.94,59.94,0,0,1,87.7,134C84.41,129.87,81.29,126,77,123.59l-.62-.32a1.69,1.69,0,1,1,1.51-3l.73.38c4.93,2.69,8.41,7.06,11.77,11.29A56,56,0,0,0,97.71,140a24.63,24.63,0,0,0,4.93,3.22,1.69,1.69,0,0,1-.76,3.21ZM35.54,125.14q-.63,0-1.26,0a1.69,1.69,0,0,1-1.63-1.74,1.73,1.73,0,0,1,1.74-1.63c5.22.14,10.63-1,15.87-2,1.21-.25,2.42-.51,3.63-.74a52,52,0,0,1,14.38-1.22,1.69,1.69,0,1,1-.26,3.38,48.58,48.58,0,0,0-13.47,1.16c-1.19.23-2.39.48-3.59.73C45.93,124.05,40.74,125.14,35.54,125.14Z" fill="#2c2d70"/><path d="M114.86,149.48a31.19,31.19,0,0,1-4.3-.3,1.69,1.69,0,0,1,.47-3.35,26.59,26.59,0,0,0,16.89-3.15,1.69,1.69,0,1,1,1.7,2.92A29.34,29.34,0,0,1,114.86,149.48Z" fill="#2c2d70"/><path d="M143.12,153.92a8.31,8.31,0,1,1,0-16.61,8.21,8.21,0,0,1,3.21.64,1.69,1.69,0,1,1-1.3,3.12,5,5,0,0,0-1.91-.38,4.93,4.93,0,1,0,4.93,4.92,1.69,1.69,0,1,1,3.38,0A8.32,8.32,0,0,1,143.12,153.92Z" fill="#2c2d70"/></svg>