<?xml version="1.0" encoding="utf-8"?>
<!-- Generator: Adobe Illustrator 25.2.0, SVG Export Plug-In . SVG Version: 6.00 Build 0)  -->
<svg version="1.1" id="Warstwa_1" xmlns="http://www.w3.org/2000/svg" xmlns:xlink="http://www.w3.org/1999/xlink" x="0px" y="0px"
	 viewBox="0 0 169.8 171.2" style="enable-background:new 0 0 169.8 171.2;" xml:space="preserve">
<style type="text/css">
	.st0{fill:#2C2D70;}
</style>
<path class="st0" d="M1.7,95.3c-0.9,0-1.7-0.8-1.7-1.7c0-0.4,0.2-0.8,0.5-1.2L87.6,0.5C87.9,0.2,88.4,0,88.8,0
	c0.5,0,0.9,0.2,1.2,0.6l79.3,89.2c0.6,0.7,0.5,1.8-0.2,2.4c-0.7,0.6-1.7,0.5-2.3-0.1L88.8,4.2L2.9,94.8C2.6,95.1,2.2,95.3,1.7,95.3z
	"/>
<path class="st0" d="M143.8,171.2H26c-0.9,0-1.7-0.8-1.7-1.7l0,0V90.1c0-0.9,0.8-1.7,1.7-1.7c0.9,0,1.7,0.8,1.7,1.7c0,0,0,0,0,0
	v77.8h114.4V90.1c0.1-0.9,0.9-1.6,1.8-1.6c0.8,0.1,1.5,0.7,1.6,1.6v79.4C145.5,170.5,144.7,171.2,143.8,171.2L143.8,171.2z"/>
<path class="st0" d="M70.7,143h-5.8c-0.6,0-1-0.4-1-1s0.4-1,1-1H70l14-41.3c0.1-0.4,0.5-0.7,0.9-0.7h5.3c0.4,0,0.8,0.2,0.9,0.6
	l11.7,26.8c0.2,0.5,0,1.1-0.5,1.3c-0.5,0.2-1.1,0-1.3-0.5l-11.4-26.2h-4l-14,41.3C71.5,142.7,71.1,143,70.7,143z"/>
<path class="st0" d="M64.9,143C64.9,143,64.9,143,64.9,143c-0.5,0-0.9-0.3-1-0.7l-9.5-35.4c-0.1-0.3,0-0.6,0.2-0.9
	c0.2-0.2,0.5-0.4,0.8-0.4h5.5c0.4,0,0.8,0.3,1,0.7l6.1,21.9c0.1,0.5-0.2,1.1-0.7,1.2c-0.5,0.1-1.1-0.2-1.2-0.7l-5.9-21.2h-3.4
	l8.3,30.9l12.7-38.8c0.1-0.4,0.5-0.7,1-0.7H85c0.4,0,0.8,0.2,0.9,0.6l11.4,26.2h5.2l16.9-45.3c0.1-0.4,0.5-0.6,0.9-0.6h5.7
	c0.3,0,0.6,0.2,0.8,0.4c0.2,0.3,0.2,0.6,0.1,0.9l-16.9,45.9c-0.1,0.4-0.5,0.7-0.9,0.7l-6,0c0,0,0,0,0,0h-6.5c-0.4,0-0.8-0.2-0.9-0.6
	l-11.4-26.2h-5l-13.5,41.3C65.7,142.7,65.3,143,64.9,143z M121.1,82l-16.4,43.9l3.8,0L124.6,82H121.1z"/>
<path class="st0" d="M42.4,159.2h-5.8c-0.3,0-0.6-0.2-0.8-0.4c-0.2-0.3-0.2-0.6-0.1-0.9l18.9-51.6c0.2-0.5,0.8-0.8,1.3-0.6
	c0.5,0.2,0.8,0.8,0.6,1.3L38,157.2h3.7l15.6-40.7c0.2-0.5,0.8-0.8,1.3-0.6c0.5,0.2,0.8,0.8,0.6,1.3l-15.8,41.3
	C43.1,158.9,42.8,159.2,42.4,159.2z"/>
<polygon class="st0" points="117.2,77.7 130.9,77.7 128.7,59.3 "/>
<path class="st0" d="M124,55.1H47.3c-0.6,0-1-0.4-1-1s0.4-1,1-1H124c0.6,0,1,0.4,1,1S124.6,55.1,124,55.1z"/>
<path class="st0" d="M132.8,164.4H36.5c-0.6,0-1-0.4-1-1s0.4-1,1-1h96.2c0.6,0,1,0.4,1,1S133.3,164.4,132.8,164.4z"/>
</svg>
