<svg xmlns="http://www.w3.org/2000/svg" viewBox="0 0 129 171.39"><path d="M66,112.08s0,.06,0,.08S66,112.11,66,112.08Z" fill="#cfa75f"/><path d="M129,70.91v0Z" fill="#cfa75f"/><path d="M.17,104.32l0-.06Z" fill="#cfa75f"/><path d="M65.81,112.48a1.21,1.21,0,0,1-.21.28A1.21,1.21,0,0,0,65.81,112.48Z" fill="#cfa75f"/><polygon points="98.12 37.98 98.11 37.98 70.19 49.59 98.12 37.98" fill="#cfa75f"/><path d="M65.26,113.05a1.83,1.83,0,0,0,.31-.24,2.34,2.34,0,0,1-.31.24Z" fill="#cfa75f"/><path d="M.41,104l.06-.06Z" fill="#cfa75f"/><path d="M128.88,71.51a1.5,1.5,0,0,1-1.38.9,1.61,1.61,0,0,1-.6-.12L124,71,103.66,81.77V62.15l-2.1-.92a1.49,1.49,0,0,1-.9-1.39V84.26a1.49,1.49,0,0,0,.72,1.28,1.53,1.53,0,0,0,1.48,0L126,73.4v45.93L42.35,168.14,3,144V107.49l36.33,19.07L40,153a1.5,1.5,0,0,0,1.5,1.47h0A1.51,1.51,0,0,0,43,153l-.62-26.48,22.92-13.44a1.44,1.44,0,0,1-.75.21,1.46,1.46,0,0,1-.72-.19l-2.33-1.27L40.77,123.93,4.86,105.07l-2.72,1.29a1.5,1.5,0,0,1-2-.71,1.6,1.6,0,0,1-.13-.71s0,0,0,.06v39.82a1.49,1.49,0,0,0,.71,1.28l40.83,25.07a1.47,1.47,0,0,0,.79.22,1.53,1.53,0,0,0,.75-.2l85.18-49.71a1.49,1.49,0,0,0,.74-1.29V70.93A1.43,1.43,0,0,1,128.88,71.51Z" fill="#cfa75f"/><path d="M103.59,37.5a1.86,1.86,0,0,1,.06.34A1.86,1.86,0,0,0,103.59,37.5Z" fill="#cfa75f"/><path d="M128.28,69.63l-.07,0,.1.06Z" fill="#cfa75f"/><path d="M128.56,69.86h0Z" fill="#cfa75f"/><path d="M102.74,39.3,65.08,55a1.48,1.48,0,0,1-1.15,0L63,54.59v54.64l2.22,1.21a1.5,1.5,0,0,1,.77,1.37.43.43,0,0,1,0,0V54.58l34.66-14.41V59.84a1.47,1.47,0,0,1,.12-.58,1.51,1.51,0,0,1,2-.78l.9.39V37.92h0A1.5,1.5,0,0,1,102.74,39.3Z" fill="#cfa75f"/><path d="M.72,103.72l0,0,.1-.06Z" fill="#cfa75f"/><path d="M103.16,36.81l.18.19Z" fill="#cfa75f"/><path d="M103,36.67l-.21-.1a1.3,1.3,0,0,1,.26.14Z" fill="#cfa75f"/><path d="M103.42,37.12a1.15,1.15,0,0,1,.12.25A1.15,1.15,0,0,0,103.42,37.12Z" fill="#cfa75f"/><path d="M128.93,70.47l0,.1Z" fill="#cfa75f"/><path d="M128.79,70.15l0,.09Z" fill="#cfa75f"/><path d="M0,104.68l0-.11Z" fill="#cfa75f"/><path d="M129,70.93Z" fill="#cfa75f"/><path d="M129,70.57c0,.11,0,.21,0,.32C129,70.78,129,70.68,129,70.57Z" fill="#cfa75f"/><path d="M128.31,69.66a1.22,1.22,0,0,1,.25.2A1.22,1.22,0,0,0,128.31,69.66Z" fill="#cfa75f"/><path d="M124,71l2.76-1.45a1.47,1.47,0,0,1,1.41,0l-.11-.06L103.66,58.87v3.28Z" fill="#cfa75f"/><path d="M128.58,69.87a1.86,1.86,0,0,1,.21.28A1.86,1.86,0,0,0,128.58,69.87Z" fill="#cfa75f"/><path d="M128.83,70.24a1.6,1.6,0,0,1,.1.23A1.6,1.6,0,0,0,128.83,70.24Z" fill="#cfa75f"/><path d="M100.66,59.84Z" fill="#cfa75f"/><path d="M126.8,69.59,124,71l2.86,1.25a1.61,1.61,0,0,0,.6.12,1.5,1.5,0,0,0,1.38-.9,1.43,1.43,0,0,0,.12-.58h0v0c0-.11,0-.21,0-.32l0-.1a1.6,1.6,0,0,0-.1-.23l0-.09a1.86,1.86,0,0,0-.21-.28h0a1.22,1.22,0,0,0-.25-.2l-.1-.06A1.47,1.47,0,0,0,126.8,69.59Z" fill="#cfa75f"/><path d="M100.78,59.26a1.47,1.47,0,0,0-.12.58h0a1.49,1.49,0,0,0,.9,1.39l2.1.92V58.87l-.9-.39A1.51,1.51,0,0,0,100.78,59.26Z" fill="#cfa75f"/><path d="M.47,103.92a1.16,1.16,0,0,1,.21-.16A1.16,1.16,0,0,0,.47,103.92Z" fill="#cfa75f"/><path d="M0,104.94a1.09,1.09,0,0,1,0-.26A1.09,1.09,0,0,0,0,104.94Z" fill="#cfa75f"/><path d="M65.6,112.76l0,0Z" fill="#cfa75f"/><path d="M65.82,112.47a1.66,1.66,0,0,0,.12-.31,1.53,1.53,0,0,1-.13.32Z" fill="#cfa75f"/><path d="M65.25,113.05h0Z" fill="#cfa75f"/><path d="M2.2,103.68l2.66,1.39L28.55,93.86l32.9,17.94,1.55-.9v-1.67L30.1,91.29v.89a1.5,1.5,0,1,1-3,0v-1L.86,103.65l-.08,0A1.46,1.46,0,0,1,2.2,103.68Z" fill="#cfa75f"/><path d="M.07,104.57a1.86,1.86,0,0,1,.1-.25A1.86,1.86,0,0,0,.07,104.57Z" fill="#cfa75f"/><path d="M.2,104.26A1.46,1.46,0,0,1,.41,104,1.86,1.86,0,0,0,.2,104.26Z" fill="#cfa75f"/><path d="M66,111.81a1.24,1.24,0,0,1,0,.27A1.24,1.24,0,0,0,66,111.81Z" fill="#cfa75f"/><path d="M65.57,112.81l0,0a1.21,1.21,0,0,0,.21-.28,1.53,1.53,0,0,0,.13-.32s0,0,0-.08a1.24,1.24,0,0,0,0-.27,1.5,1.5,0,0,0-.77-1.37L63,109.23v1.67l-1.55.9,2.33,1.27a1.46,1.46,0,0,0,.72.19,1.44,1.44,0,0,0,.75-.21h0A2.34,2.34,0,0,0,65.57,112.81Z" fill="#cfa75f"/><path d="M.14,105.65a1.5,1.5,0,0,0,2,.71l2.72-1.29L2.2,103.68a1.46,1.46,0,0,0-1.42,0l-.1.06a1.16,1.16,0,0,0-.21.16L.41,104a1.46,1.46,0,0,0-.21.28l0,.06a1.86,1.86,0,0,0-.1.25l0,.11a1.09,1.09,0,0,0,0,.26A1.6,1.6,0,0,0,.14,105.65Z" fill="#cfa75f"/><path d="M103,36.71l.12.1Z" fill="#cfa75f"/><path d="M98.12,38l3.46-1.44a1.48,1.48,0,0,1,1.2,0l-.08,0L76.3,26.4l-1.47,2.65Z" fill="#cfa75f"/><path d="M103.66,37.9s0,0,0-.06,0,0,0,.07Z" fill="#cfa75f"/><path d="M29.32,90.86l.78.43V58l-3-1.35V91.23l.86-.41A1.52,1.52,0,0,1,29.32,90.86Z" fill="#cfa75f"/><path d="M103.54,37.37a.5.5,0,0,1,0,.13A.5.5,0,0,0,103.54,37.37Z" fill="#cfa75f"/><path d="M103.34,37a.83.83,0,0,1,.08.12A.83.83,0,0,0,103.34,37Z" fill="#cfa75f"/><path d="M62.58,51.18l-1.47,2.64,1.89.77v-1a1.51,1.51,0,0,1,.92-1.39l6.27-2.6L64.49,52Z" fill="#cfa75f"/><path d="M101.58,36.53,98.12,38h0L70.19,49.59l-6.27,2.6A1.51,1.51,0,0,0,63,53.58v1l.93.38a1.48,1.48,0,0,0,1.15,0L102.74,39.3a1.5,1.5,0,0,0,.92-1.39s0,0,0-.07a1.86,1.86,0,0,0-.06-.34.5.5,0,0,0,0-.13,1.15,1.15,0,0,0-.12-.25.83.83,0,0,0-.08-.12l-.18-.19-.12-.1a1.3,1.3,0,0,0-.26-.14A1.48,1.48,0,0,0,101.58,36.53Z" fill="#cfa75f"/><path d="M28.6,93.68a1.5,1.5,0,0,0,1.5-1.5v-.89l-.78-.43a1.52,1.52,0,0,0-1.36,0l-.86.41v1A1.5,1.5,0,0,0,28.6,93.68Z" fill="#cfa75f"/><path d="M95,72.93,84.13,68a1,1,0,0,0-1.23.34L71.09,85.18a1,1,0,0,0-.18.57v9.73a1,1,0,0,0,.69,1,1.06,1.06,0,0,0,.31,0,1,1,0,0,0,.81-.43L84.35,79.58l10,4.31A1,1,0,0,0,95.75,83l-.13-9.14A1,1,0,0,0,95,72.93ZM84.4,77.42a1,1,0,0,0-1.22.34L72.91,92.33V86.07L84.06,70.2l9.57,4.29.1,7Z" fill="#cfa75f"/><path d="M71.6,79.81a1.06,1.06,0,0,0,.31,0,1,1,0,0,0,.81-.43L83.56,64l10.56,4.87a1,1,0,0,0,1-.07,1,1,0,0,0,.46-.85l-.13-9a1,1,0,0,0-.56-.88L83.08,52.18a1,1,0,0,0-1.28.35L71.07,68.79a1,1,0,0,0-.16.55v9.52A1,1,0,0,0,71.6,79.81Zm1.31-10.17L83,54.37l10.43,5.25.1,6.76-9.87-4.56a1,1,0,0,0-1.24.34L72.91,75.69Z" fill="#cfa75f"/><path d="M74.89,25.86l1.41.54,5.52-10,26,20.38a1.5,1.5,0,1,0,1.85-2.36L82.29,13a1.5,1.5,0,0,0-2.24.45l-.17.3,1.48.43Z" fill="#cfa75f"/><path d="M52.43,67.9a1.53,1.53,0,0,0,1.32-.78l7.36-13.3-1.4-.57L52.43,66.4,30.1,56.33V58l21.72,9.79A1.5,1.5,0,0,0,52.43,67.9Z" fill="#cfa75f"/><path d="M9.14,46.88,37.65,1.5,73.37,11.85a1.51,1.51,0,0,0-1-1.74L38.07.06A1.5,1.5,0,0,0,36.38.7L7.87,46.08a1.51,1.51,0,0,0,.66,2.17L27.1,56.62V55Z" fill="#cfa75f"/><polygon points="62.58 51.18 74.83 29.05 73.42 28.51 61.18 50.61 62.58 51.18" fill="#cfa75f"/><polygon points="61.18 50.61 59.71 53.25 61.11 53.82 62.58 51.18 61.18 50.61" fill="#cfa75f"/><polygon points="73.42 28.51 74.83 29.05 76.3 26.4 74.89 25.86 73.42 28.51" fill="#cfa75f"/><polygon points="30.1 56.33 27.1 54.98 27.1 56.62 30.1 57.97 30.1 56.33" fill="#cfa75f"/><polygon points="59.71 53.25 58.31 52.68 51.79 64.46 30.1 54.68 30.1 56.33 52.43 66.4 59.71 53.25" fill="#cfa75f"/><path d="M9.14,46.88,27.1,55V53.33L11.33,46.22l27-43L71.48,13a1.5,1.5,0,0,0,1.86-1,.61.61,0,0,0,0-.13L37.65,1.5Z" fill="#cfa75f"/><polygon points="74.89 25.86 81.36 14.17 79.88 13.74 73.47 25.32 74.89 25.86" fill="#cfa75f"/><polygon points="73.42 28.51 72 27.97 59.78 50.04 61.18 50.61 73.42 28.51" fill="#cfa75f"/><polygon points="27.1 53.33 27.1 54.98 30.1 56.33 30.1 54.68 27.1 53.33" fill="#cfa75f"/><polygon points="59.71 53.25 61.18 50.61 59.78 50.04 58.31 52.68 59.71 53.25" fill="#cfa75f"/><polygon points="74.89 25.86 73.47 25.32 72 27.97 73.42 28.51 74.89 25.86" fill="#cfa75f"/></svg>