<svg xmlns="http://www.w3.org/2000/svg" viewBox="0 0 160.69 167.79"><path d="M75.58,138.84c-15.55,0-28.06-8.14-28.26-8.27-.73-.34-22.58-11.4-23.07-49.78C23.79,45,2.35,41.29,1.43,41.15a1.69,1.69,0,0,1-.24-3.29c92.18-28.29,113,29.6,113.18,30.19.07.1,16.18,32.68-9.13,58.12C95.62,135.83,85,138.84,75.58,138.84ZM7.19,39.62c7.42,3.54,20.09,13.61,20.44,41.13.47,36.16,21.16,46.79,21.37,46.89,1.42.92,30.39,19.71,53.84-3.86,23.61-23.72,8.58-54.12,8.42-54.42C110.41,66.91,91.84,15.81,7.19,39.62Z" fill="#2c2d70"/><path d="M95.11,121.47h0a1.69,1.69,0,0,1-1.67-1.72c.73-49.15-29.06-59.88-30.33-60.31a1.69,1.69,0,1,1,1.08-3.2c.33.11,33.4,11.83,32.64,63.56A1.7,1.7,0,0,1,95.11,121.47Z" fill="#2c2d70"/><path d="M88.32,167.79A1.68,1.68,0,0,1,87,165a39.16,39.16,0,0,0,7.57-25.44A1.69,1.69,0,0,1,98,139.4c.84,16.79-8,27.36-8.38,27.8A1.68,1.68,0,0,1,88.32,167.79Z" fill="#2c2d70"/><path d="M128.31,122.45a1.69,1.69,0,0,1-1.59-1.12c-1.44-4-3.07-8.53-3.19-13.22-.15-5.46,1.94-10.33,5.57-13a21.94,21.94,0,0,1,5.1-2.6,26.5,26.5,0,0,0,3.31-1.5c4.71-2.68,7.75-8.57,8.12-15.78a67.28,67.28,0,0,0-1.12-13.58c-.31-2.07-.62-4.15-.85-6.22A81.4,81.4,0,0,1,154.2,6.07c-17,10-28.47,28.79-29.21,48.54a1.66,1.66,0,0,1-1.75,1.63,1.7,1.7,0,0,1-1.63-1.75c.87-23.08,15.62-44.92,36.7-54.34a1.69,1.69,0,0,1,2,.46,1.71,1.71,0,0,1,.09,2.05A77.86,77.86,0,0,0,147,55c.22,2,.53,4.06.83,6.09A70.3,70.3,0,0,1,149,75.37c-.44,8.36-4.11,15.29-9.83,18.54a30.82,30.82,0,0,1-3.72,1.7,19.14,19.14,0,0,0-4.34,2.17c-2.75,2-4.33,5.88-4.21,10.24.11,4.14,1.57,8.22,3,12.17a1.69,1.69,0,0,1-1,2.16A1.63,1.63,0,0,1,128.31,122.45Z" fill="#2c2d70"/><path d="M100.36,43.87a1.68,1.68,0,0,1-.72-.16,1.7,1.7,0,0,1-.8-2.26c.59-1.23,14.73-30.35,41.88-37.52a1.69,1.69,0,1,1,.86,3.27C116,14,102,42.62,101.89,42.91A1.68,1.68,0,0,1,100.36,43.87Z" fill="#2c2d70"/><path d="M126.33,42.64a1.69,1.69,0,0,1-.91-3.11l6.44-4.13a1.69,1.69,0,1,1,1.82,2.85l-6.44,4.13A1.68,1.68,0,0,1,126.33,42.64Z" fill="#2c2d70"/><path d="M122.71,71.29a1.72,1.72,0,0,1-1.24-.54l-6.39-6.9a1.69,1.69,0,1,1,2.48-2.3l5.4,5.83,8.86-6.07a1.69,1.69,0,0,1,1.91,2.79L123.67,71A1.7,1.7,0,0,1,122.71,71.29Z" fill="#2c2d70"/><path d="M124.55,52.42a1.69,1.69,0,0,1-.88-3.14l5.79-3.48a1.69,1.69,0,0,1,1.74,2.9l-5.79,3.48A1.7,1.7,0,0,1,124.55,52.42Z" fill="#2c2d70"/><path d="M123.58,52.42a1.64,1.64,0,0,1-1.06-.38l-7.23-5.84a1.69,1.69,0,0,1,2.13-2.63l7.23,5.84a1.69,1.69,0,0,1-1.07,3Z" fill="#2c2d70"/><path d="M100.37,159.45l-.23,0a1.68,1.68,0,0,1-1.45-1.89c.14-1.11,3.73-27.35,18.24-36.93a1.7,1.7,0,0,1,1.87,2.83C105.57,132.16,102.08,157.72,102,158A1.69,1.69,0,0,1,100.37,159.45Z" fill="#2c2d70"/></svg>