<?xml version="1.0" encoding="utf-8"?>
<!-- Generator: Adobe Illustrator 25.2.0, SVG Export Plug-In . SVG Version: 6.00 Build 0)  -->
<svg version="1.1" id="Warstwa_1" xmlns="http://www.w3.org/2000/svg" xmlns:xlink="http://www.w3.org/1999/xlink" x="0px" y="0px"
	 viewBox="0 0 129 171.4" style="enable-background:new 0 0 129 171.4;" xml:space="preserve">
<style type="text/css">
	.st0{fill:#2C2D70;}
</style>
<path class="st0" d="M66,112.1C66,112.1,66,112.1,66,112.1C66,112.2,66,112.1,66,112.1z"/>
<path class="st0" d="M129,70.9L129,70.9z"/>
<path class="st0" d="M0.2,104.3L0.2,104.3L0.2,104.3z"/>
<path class="st0" d="M65.8,112.5c-0.1,0.1-0.1,0.2-0.2,0.3C65.7,112.7,65.8,112.6,65.8,112.5z"/>
<polygon class="st0" points="98.1,38 98.1,38 70.2,49.6 "/>
<path class="st0" d="M65.3,113.1c0.1-0.1,0.2-0.1,0.3-0.2C65.5,112.9,65.4,113,65.3,113.1z"/>
<path class="st0" d="M0.4,104L0.4,104L0.4,104z"/>
<path class="st0" d="M128.9,71.5c-0.2,0.5-0.8,0.9-1.4,0.9c-0.2,0-0.4,0-0.6-0.1L124,71l-20.3,10.8V62.2l-2.1-0.9
	c-0.6-0.2-0.9-0.8-0.9-1.4v24.4c0,0.5,0.3,1,0.7,1.3c0.5,0.3,1,0.3,1.5,0L126,73.4v45.9l-83.7,48.8L3,144v-36.5l36.3,19.1L40,153
	c0,0.8,0.7,1.5,1.5,1.5l0,0c0.8,0,1.5-0.7,1.5-1.5l-0.6-26.5l22.9-13.4c-0.2,0.1-0.5,0.2-0.8,0.2c-0.3,0-0.5-0.1-0.7-0.2l-2.3-1.3
	l-20.7,12.1L4.9,105.1l-2.7,1.3c-0.7,0.4-1.6,0-2-0.7c0,0,0,0,0,0C0,105.4,0,105.2,0,104.9c0,0,0,0,0,0.1v39.8c0,0.5,0.3,1,0.7,1.3
	l40.8,25.1c0.2,0.1,0.5,0.2,0.8,0.2c0.3,0,0.5-0.1,0.8-0.2l85.2-49.7c0.5-0.3,0.7-0.8,0.7-1.3V70.9C129,71.1,129,71.3,128.9,71.5z"
	/>
<path class="st0" d="M103.6,37.5c0,0.1,0.1,0.2,0.1,0.3C103.6,37.7,103.6,37.6,103.6,37.5z"/>
<path class="st0" d="M128.3,69.6L128.3,69.6L128.3,69.6L128.3,69.6z"/>
<path class="st0" d="M128.6,69.9L128.6,69.9z"/>
<path class="st0" d="M102.7,39.3L65.1,55c-0.4,0.2-0.8,0.2-1.2,0L63,54.6v54.6l2.2,1.2c0.5,0.3,0.8,0.8,0.8,1.4l0,0V54.6l34.7-14.4
	v19.7c0-0.2,0-0.4,0.1-0.6c0.3-0.8,1.2-1.1,2-0.8c0,0,0,0,0,0l0.9,0.4v-21l0,0C103.7,38.5,103.3,39.1,102.7,39.3z"/>
<path class="st0" d="M0.7,103.7L0.7,103.7l0.1-0.1L0.7,103.7z"/>
<path class="st0" d="M103.2,36.8l0.2,0.2L103.2,36.8z"/>
<path class="st0" d="M103,36.7l-0.2-0.1C102.9,36.6,103,36.7,103,36.7L103,36.7z"/>
<path class="st0" d="M103.4,37.1c0,0.1,0.1,0.2,0.1,0.3C103.5,37.3,103.5,37.2,103.4,37.1z"/>
<path class="st0" d="M128.9,70.5L128.9,70.5L128.9,70.5z"/>
<path class="st0" d="M128.8,70.2L128.8,70.2L128.8,70.2z"/>
<path class="st0" d="M0,104.7v-0.1V104.7z"/>
<path class="st0" d="M129,70.9"/>
<path class="st0" d="M129,70.6c0,0.1,0,0.2,0,0.3C129,70.8,129,70.7,129,70.6z"/>
<path class="st0" d="M128.3,69.7c0.1,0.1,0.2,0.1,0.3,0.2C128.5,69.8,128.4,69.7,128.3,69.7z"/>
<path class="st0" d="M124,71l2.8-1.4c0.4-0.2,1-0.2,1.4,0l-0.1-0.1l-24.4-10.6v3.3L124,71z"/>
<path class="st0" d="M128.6,69.9c0.1,0.1,0.1,0.2,0.2,0.3C128.7,70.1,128.7,70,128.6,69.9z"/>
<path class="st0" d="M128.8,70.2c0,0.1,0.1,0.2,0.1,0.2C128.9,70.4,128.9,70.3,128.8,70.2z"/>
<path class="st0" d="M100.7,59.8"/>
<path class="st0" d="M126.8,69.6L124,71l2.9,1.3c0.2,0.1,0.4,0.1,0.6,0.1c0.6,0,1.1-0.4,1.4-0.9c0.1-0.2,0.1-0.4,0.1-0.6l0,0l0,0
	c0-0.1,0-0.2,0-0.3v-0.1c0-0.1-0.1-0.2-0.1-0.2v-0.1c-0.1-0.1-0.1-0.2-0.2-0.3l0,0c-0.1-0.1-0.2-0.1-0.3-0.2l-0.1-0.1
	C127.8,69.3,127.3,69.3,126.8,69.6z"/>
<path class="st0" d="M100.8,59.3c-0.1,0.2-0.1,0.4-0.1,0.6l0,0c0,0.6,0.3,1.2,0.9,1.4l2.1,0.9v-3.3l-0.9-0.4
	C102,58.2,101.1,58.5,100.8,59.3z"/>
<path class="st0" d="M0.5,103.9c0.1-0.1,0.1-0.1,0.2-0.2C0.6,103.8,0.5,103.9,0.5,103.9z"/>
<path class="st0" d="M0,104.9c0-0.1,0-0.2,0-0.3C0,104.8,0,104.9,0,104.9z"/>
<path class="st0" d="M65.6,112.8L65.6,112.8z"/>
<path class="st0" d="M65.8,112.5c0.1-0.1,0.1-0.2,0.1-0.3C65.9,112.3,65.9,112.4,65.8,112.5L65.8,112.5z"/>
<path class="st0" d="M65.3,113.1L65.3,113.1z"/>
<path class="st0" d="M2.2,103.7l2.7,1.4l23.7-11.2l32.9,17.9l1.5-0.9v-1.7L30.1,91.3v0.9c0,0.8-0.7,1.5-1.5,1.5s-1.5-0.7-1.5-1.5v-1
	L0.9,103.7H0.8C1.2,103.4,1.8,103.4,2.2,103.7z"/>
<path class="st0" d="M0.1,104.6c0-0.1,0.1-0.2,0.1-0.3C0.1,104.4,0.1,104.5,0.1,104.6z"/>
<path class="st0" d="M0.2,104.3c0.1-0.1,0.1-0.2,0.2-0.3C0.3,104.1,0.3,104.2,0.2,104.3z"/>
<path class="st0" d="M66,111.8c0,0.1,0,0.2,0,0.3C66,112,66,111.9,66,111.8z"/>
<path class="st0" d="M65.6,112.8L65.6,112.8c0.1-0.1,0.2-0.2,0.2-0.3c0.1-0.1,0.1-0.2,0.1-0.3c0,0,0,0,0-0.1c0-0.1,0-0.2,0-0.3
	c0-0.6-0.3-1.1-0.8-1.4l-2.1-1.3v1.7l-1.5,0.9l2.3,1.3c0.2,0.1,0.5,0.2,0.7,0.2c0.3,0,0.5-0.1,0.8-0.2l0,0
	C65.4,113,65.5,112.9,65.6,112.8z"/>
<path class="st0" d="M0.1,105.7c0.4,0.7,1.3,1.1,2,0.7c0,0,0,0,0,0l2.7-1.3l-2.7-1.4c-0.4-0.2-1-0.2-1.4,0l-0.1,0.1
	c-0.1,0-0.1,0.1-0.2,0.2L0.4,104c-0.1,0.1-0.2,0.2-0.2,0.3v0.1c0,0.1-0.1,0.2-0.1,0.3v0.1c0,0.1,0,0.2,0,0.3
	C0.1,105.2,0.1,105.4,0.1,105.7z"/>
<path class="st0" d="M103,36.7l0.1,0.1L103,36.7z"/>
<path class="st0" d="M98.1,38l3.5-1.4c0.4-0.2,0.8-0.2,1.2,0h-0.1L76.3,26.4L74.8,29L98.1,38z"/>
<path class="st0" d="M103.7,37.9C103.7,37.9,103.7,37.9,103.7,37.9C103.7,37.8,103.7,37.8,103.7,37.9L103.7,37.9z"/>
<path class="st0" d="M29.3,90.9l0.8,0.4V58l-3-1.3v34.6l0.9-0.4C28.4,90.6,28.9,90.6,29.3,90.9z"/>
<path class="st0" d="M103.5,37.4c0,0,0,0.1,0,0.1C103.5,37.5,103.5,37.4,103.5,37.4z"/>
<path class="st0" d="M103.3,37c0,0,0.1,0.1,0.1,0.1C103.4,37.1,103.4,37,103.3,37z"/>
<path class="st0" d="M62.6,51.2l-1.5,2.6l1.9,0.8v-1c0-0.6,0.4-1.2,0.9-1.4l6.3-2.6L64.5,52L62.6,51.2z"/>
<path class="st0" d="M101.6,36.5L98.1,38l0,0L70.2,49.6l-6.3,2.6C63.4,52.4,63,53,63,53.6v1l0.9,0.4c0.4,0.2,0.8,0.2,1.2,0
	l37.7-15.7c0.6-0.2,0.9-0.8,0.9-1.4c0,0,0,0,0-0.1c0-0.1,0-0.2-0.1-0.3c0,0,0-0.1,0-0.1c0-0.1-0.1-0.2-0.1-0.3c0,0,0-0.1-0.1-0.1
	l-0.2-0.2l-0.1-0.1c-0.1-0.1-0.2-0.1-0.3-0.1C102.4,36.4,102,36.4,101.6,36.5z"/>
<path class="st0" d="M28.6,93.7c0.8,0,1.5-0.7,1.5-1.5v-0.9l-0.8-0.4c-0.4-0.2-0.9-0.2-1.4,0l-0.9,0.4v1
	C27.1,93.1,27.8,93.7,28.6,93.7z"/>
<path class="st0" d="M95,72.9L84.1,68c-0.4-0.2-1-0.1-1.2,0.3L71.1,85.2c-0.1,0.2-0.2,0.4-0.2,0.6v9.7c0,0.5,0.3,0.9,0.7,1
	c0.1,0,0.2,0,0.3,0c0.3,0,0.6-0.2,0.8-0.4l11.6-16.5l10,4.3c0.5,0.2,1.1,0,1.3-0.5c0.1-0.1,0.1-0.2,0.1-0.4l-0.1-9.1
	C95.6,73.5,95.4,73.1,95,72.9z M84.4,77.4c-0.4-0.2-0.9,0-1.2,0.3L72.9,92.3v-6.3l11.1-15.9l9.6,4.3l0.1,7L84.4,77.4z"/>
<path class="st0" d="M71.6,79.8c0.1,0,0.2,0,0.3,0c0.3,0,0.6-0.2,0.8-0.4L83.6,64l10.6,4.9c0.3,0.2,0.7,0.1,1-0.1
	c0.3-0.2,0.5-0.5,0.5-0.8l-0.1-9c0-0.4-0.2-0.7-0.6-0.9l-11.8-5.9c-0.5-0.2-1-0.1-1.3,0.3L71.1,68.8c-0.1,0.2-0.2,0.4-0.2,0.6v9.5
	C70.9,79.3,71.2,79.7,71.6,79.8z M72.9,69.6L83,54.4l10.4,5.3l0.1,6.8l-9.9-4.6c-0.4-0.2-1-0.1-1.2,0.3l-9.5,13.5L72.9,69.6z"/>
<path class="st0" d="M74.9,25.9l1.4,0.5l5.5-10l26,20.4c0.6,0.5,1.6,0.4,2.1-0.2s0.4-1.6-0.2-2.1c0,0,0,0-0.1-0.1L82.3,13
	c-0.7-0.5-1.6-0.4-2.1,0.2c0,0.1-0.1,0.1-0.1,0.2l-0.2,0.3l1.5,0.4L74.9,25.9z"/>
<path class="st0" d="M52.4,67.9c0.5,0,1.1-0.3,1.3-0.8l7.4-13.3l-1.4-0.6l-7.3,13.1L30.1,56.3V58l21.7,9.8
	C52,67.9,52.2,67.9,52.4,67.9z"/>
<path class="st0" d="M9.1,46.9L37.7,1.5l35.7,10.4c0.2-0.7-0.3-1.5-1-1.7L38.1,0.1c-0.6-0.2-1.3,0.1-1.7,0.6L7.9,46.1
	c-0.4,0.7-0.2,1.6,0.5,2.1c0.1,0,0.1,0.1,0.2,0.1l18.6,8.4V55L9.1,46.9z"/>
<polygon class="st0" points="62.6,51.2 74.8,29 73.4,28.5 61.2,50.6 "/>
<polygon class="st0" points="61.2,50.6 59.7,53.3 61.1,53.8 62.6,51.2 "/>
<polygon class="st0" points="73.4,28.5 74.8,29 76.3,26.4 74.9,25.9 "/>
<polygon class="st0" points="30.1,56.3 27.1,55 27.1,56.6 30.1,58 "/>
<polygon class="st0" points="59.7,53.3 58.3,52.7 51.8,64.5 30.1,54.7 30.1,56.3 52.4,66.4 "/>
<path class="st0" d="M9.1,46.9l18,8.1v-1.7l-15.8-7.1l27-43L71.5,13c0.8,0.2,1.6-0.2,1.9-1c0,0,0-0.1,0-0.1L37.7,1.5L9.1,46.9z"/>
<polygon class="st0" points="74.9,25.9 81.4,14.2 79.9,13.7 73.5,25.3 "/>
<polygon class="st0" points="73.4,28.5 72,28 59.8,50 61.2,50.6 "/>
<polygon class="st0" points="27.1,53.3 27.1,55 30.1,56.3 30.1,54.7 "/>
<polygon class="st0" points="59.7,53.3 61.2,50.6 59.8,50 58.3,52.7 "/>
<polygon class="st0" points="74.9,25.9 73.5,25.3 72,28 73.4,28.5 "/>
</svg>
