<svg xmlns="http://www.w3.org/2000/svg" xmlns:xlink="http://www.w3.org/1999/xlink" viewBox="0 0 902.35 449.81"><defs><style>.cls-1{isolation:isolate;}.cls-2{opacity:0.59;}.cls-3{fill:#271e7e;}.cls-4{opacity:0.92;}.cls-5{fill:#e5b465;}.cls-6{fill:url(#Gradient_bez_nazwy_6);}.cls-7{fill:#fff;}.cls-8{fill:#2a2180;}.cls-10,.cls-14,.cls-9{fill:#cea65f;}.cls-12,.cls-13,.cls-9{opacity:0.77;}.cls-11{fill:#2c2c70;}.cls-12{fill:none;stroke:#cea65f;stroke-miterlimit:10;stroke-width:4px;}.cls-14{mix-blend-mode:color-dodge;}</style><linearGradient id="Gradient_bez_nazwy_6" x1="511.67" y1="74.5" x2="708.14" y2="74.5" gradientUnits="userSpaceOnUse"><stop offset="0" stop-color="#21187b"/><stop offset="0" stop-color="#22197c"/><stop offset="1" stop-opacity="0"/></linearGradient></defs><g class="cls-1"><g id="Warstwa_2" data-name="Warstwa 2"><g id="Warstwa_1-2" data-name="Warstwa 1"><g class="cls-2"><path class="cls-3" d="M121.72,270.27c-30.61,0-40.54-26.71-40.54-26.71l16.55-9.4s6,17.64,24,17.64c13.41,0,21.19-9.4,21.19-21.43,0-12.37-7.45-21.43-24.66-21.43-16,0-31.11,12.53-31.11,12.53V152.88H160v18.79H107v22.59a37.46,37.46,0,0,1,16.38-3.46c20.52,0,39.55,12.53,39.55,39.57S141.75,270.27,121.72,270.27Z"/><path class="cls-3" d="M258.26,184.2c0,15.34-12.91,22.76-12.91,22.76s16.22,6.43,16.22,27.37c0,19.29-14.57,35.94-39.72,35.94s-39.72-16.65-39.72-35.94c0-20.94,16.22-27.37,16.22-27.37s-12.91-7.42-12.91-22.76c0-17.14,12.25-33.3,36.41-33.3S258.26,167.06,258.26,184.2ZM241.54,234c0-9.4-6.62-17.81-19.69-17.81s-19.7,8.41-19.7,17.81,6.62,18.13,19.7,18.13S241.54,243.39,241.54,234Zm-19.69-65c-9.27,0-16.72,5.93-16.72,15.33s7.45,15.33,16.72,15.33,16.71-5.93,16.71-15.33S231.12,169,221.85,169Z"/><path class="cls-3" d="M367.32,210.58c0,31.33-13.9,59.69-43.36,59.69s-43.69-28.36-43.69-59.69S294.5,150.9,324,150.9,367.32,179.26,367.32,210.58Zm-19.86,0c0-22.58-7.45-41.21-23.5-41.21S300.13,188,300.13,210.58,307.9,251.8,324,251.8,347.46,233.17,347.46,210.58Z"/><path class="cls-3" d="M471.74,210.58c0,31.33-13.9,59.69-43.36,59.69s-43.69-28.36-43.69-59.69,14.24-59.68,43.69-59.68S471.74,179.26,471.74,210.58Zm-19.86,0c0-22.58-7.44-41.21-23.5-41.21S404.55,188,404.55,210.58s7.78,41.22,23.83,41.22S451.88,233.17,451.88,210.58Z"/><path class="cls-3" d="M560.12,190.14l-38.89,59.68H558.3v18.47H487.46l38.9-59.68H490.28V190.14Z"/><path class="cls-3" d="M569.55,222.13l18.53-14.35V143.65H608v48.8l10.92-8.57,8.27,11-19.19,15v58.37H588.08v-43l-10.26,7.91Z"/></g><g class="cls-4"><path class="cls-5" d="M128,263.47c-30.5,0-40.39-26.7-40.39-26.7l16.49-9.4S110,245,128,245c13.36,0,21.11-9.4,21.11-21.43,0-12.37-7.42-21.44-24.57-21.44-16,0-31,12.53-31,12.53V146.09H166v18.79H113.28v22.59A37.23,37.23,0,0,1,129.6,184c20.45,0,39.41,12.53,39.41,39.57S147.9,263.47,128,263.47Z"/><path class="cls-5" d="M264,177.41c0,15.33-12.86,22.75-12.86,22.75s16.16,6.43,16.16,27.37c0,19.29-14.51,35.94-39.57,35.94s-39.57-16.65-39.57-35.94c0-20.94,16.16-27.37,16.16-27.37s-12.86-7.42-12.86-22.75c0-17.15,12.2-33.3,36.27-33.3S264,160.26,264,177.41ZM247.32,227.2c0-9.4-6.6-17.8-19.62-17.8s-19.62,8.4-19.62,17.8,6.59,18.14,19.62,18.14S247.32,236.6,247.32,227.2Zm-19.62-65c-9.23,0-16.65,5.94-16.65,15.34s7.42,15.33,16.65,15.33,16.65-5.94,16.65-15.33S236.93,162.24,227.7,162.24Z"/><path class="cls-5" d="M372.62,203.79c0,31.33-13.85,59.68-43.2,59.68s-43.52-28.35-43.52-59.68,14.18-59.68,43.52-59.68S372.62,172.47,372.62,203.79Zm-19.79,0c0-22.59-7.41-41.22-23.41-41.22s-23.74,18.63-23.74,41.22S313.43,245,329.42,245,352.83,226.38,352.83,203.79Z"/><path class="cls-5" d="M476.65,203.79c0,31.33-13.85,59.68-43.2,59.68s-43.52-28.35-43.52-59.68,14.18-59.68,43.52-59.68S476.65,172.47,476.65,203.79Zm-19.78,0c0-22.59-7.42-41.22-23.42-41.22s-23.74,18.63-23.74,41.22S417.46,245,433.45,245,456.87,226.38,456.87,203.79Z"/><path class="cls-5" d="M564.69,183.35,525.94,243h36.94V261.5H492.31l38.74-59.69H495.11V183.35Z"/><path class="cls-5" d="M574.09,215.33,592.55,201V136.85h19.79v48.8l10.88-8.57,8.24,11-19.12,15V261.5H592.55v-43l-10.22,7.92Z"/></g><rect class="cls-6" x="14.5" y="29" width="679" height="91"/><path class="cls-7" d="M21,52.65H33.77c9.71,0,15.79,6.29,15.79,14.51s-6.08,14.5-15.79,14.5H24.69v21H21ZM33.84,78.23c7,0,11.86-4.5,11.86-11.07S40.84,56.08,33.84,56.08H24.69V78.23Z"/><path class="cls-7" d="M57.71,52.65H69.78C80.07,52.65,86,58.58,86,66.8c0,10.79-9.43,13.58-12.93,13.93l14.29,21.94h-4.5L68.85,81H61.42v21.72H57.71ZM70,77.38c7.5,0,12.15-4,12.15-10.58S77.43,56.23,70,56.23H61.42V77.38Z"/><path class="cls-7" d="M128.38,52.65,97.94,99.24h29.37v3.43H91.51L122,56.08H93.15V52.65Z"/><path class="cls-7" d="M140.1,75.3h22.3v3.43H140.1V99.24h24.44v3.43H136.39v-50h27.72v3.43h-24Z"/><path class="cls-7" d="M188.48,52.65c14.43,0,24.72,10.58,24.72,25s-10.29,25-24.72,25H174.83v-50Zm-.71,46.59c13.14,0,21.58-8.64,21.58-21.58s-8.44-21.58-21.58-21.58h-9.22V99.24Z"/><path class="cls-7" d="M235.65,78.88c-7.36-3.22-13.44-7.08-13.44-14.65,0-5.65,4.57-12.44,13.94-12.44,8.93,0,13.57,7.22,13.57,7.22l-2.86,2.22a13.17,13.17,0,0,0-10.64-5.79c-6.29,0-10.29,3.79-10.29,8.79,0,6.14,5.64,8.86,12.79,12,7.64,3.36,11.93,7.22,11.93,13.94,0,8.07-6.57,13.36-14.93,13.36-11,0-15.51-10.22-15.51-10.22l3.36-2s3.29,8.58,12.15,8.58c6.21,0,11.22-3.72,11.22-9.72C246.94,84,241.5,81.45,235.65,78.88Z"/><path class="cls-7" d="M260.94,52.65h12.79c9.72,0,15.8,6.29,15.8,14.51s-6.08,14.5-15.8,14.5h-9.07v21h-3.72Zm12.87,25.58c7,0,11.86-4.5,11.86-11.07s-4.86-11.08-11.86-11.08h-9.15V78.23Z"/><path class="cls-7" d="M297.67,52.65h12.08C320,52.65,326,58.58,326,66.8c0,10.79-9.43,13.58-12.93,13.93l14.29,21.94h-4.5L308.82,81h-7.43v21.72h-3.72ZM310,77.38c7.5,0,12.14-4,12.14-10.58S317.4,56.23,310,56.23h-8.58V77.38Z"/><path class="cls-7" d="M368.35,52.65,337.91,99.24h29.37v3.43h-35.8l30.44-46.59h-28.8V52.65Z"/><path class="cls-7" d="M380.07,75.3h22.29v3.43H380.07V99.24h24.44v3.43H376.35v-50h27.73v3.43h-24Z"/><path class="cls-7" d="M428.45,52.65c14.43,0,24.72,10.58,24.72,25s-10.29,25-24.72,25H414.8v-50Zm-.72,46.59c13.15,0,21.58-8.64,21.58-21.58s-8.43-21.58-21.58-21.58h-9.21V99.24Z"/><path class="cls-7" d="M476.26,52.65h4.14l19.94,50h-4l-5.72-14.58H466l-5.72,14.58h-4Zm-8.79,32h21.72L478.33,56.8Z"/><path class="cls-7" d="M539.79,52.65,509.34,99.24h29.37v3.43h-35.8l30.44-46.59H504.56V52.65ZM522.06,40.58A2.89,2.89,0,0,1,525,43.51a2.83,2.83,0,0,1-2.93,2.85,2.77,2.77,0,0,1-2.85-2.85A2.83,2.83,0,0,1,522.06,40.58Z"/><path class="cls-8" d="M873.41,340.72v30.62h-12V343.83c0-6.52-2.51-10-8.53-10-6.33,0-9.34,6.13-9.34,6.13v31.42h-12V343.83c0-6.52-2.51-10-8.53-10-6.33,0-9.34,6.13-9.34,6.13v31.42H801.52V323.75h11.25v6.93a16.52,16.52,0,0,1,14.06-8.13c11.44,0,14.75,8.33,14.75,8.33s4-8.33,15.17-8.33C866.38,322.55,873.41,329.27,873.41,340.72Z"/><path class="cls-9" d="M873.41,340.72v30.62h-12V343.83c0-6.52-2.51-10-8.53-10-6.33,0-9.34,6.13-9.34,6.13v31.42h-12V343.83c0-6.52-2.51-10-8.53-10-6.33,0-9.34,6.13-9.34,6.13v31.42H801.52V323.75h11.25v6.93a16.52,16.52,0,0,1,14.06-8.13c11.44,0,14.75,8.33,14.75,8.33s4-8.33,15.17-8.33C866.38,322.55,873.41,329.27,873.41,340.72Z"/><path class="cls-7" d="M74.3,329.2h9.3c5.82,0,9.74,3.42,9.74,8.81,0,5.18-3.48,7.14-4.07,7.39.59.14,5.93,2,5.93,8.76,0,5.48-3.77,9.3-10.38,9.3H74.3ZM84,344.66c4.65,0,6.65-2.93,6.65-6.65s-2.64-6.46-7.34-6.46H76.84v13.11Zm.53,16.45c6,0,8-3.57,8-6.95s-2-7.15-7.29-7.15H76.84v14.1Z"/><path class="cls-7" d="M126.13,329.2H129l13.66,34.26h-2.74l-3.92-10H119.13l-3.91,10h-2.74Zm-6,21.92H135L127.55,332Z"/><path class="cls-10" d="M165,329.2l21.05,29.85V329.2h2.54v34.26h-2.54L165,333.5v30h-2.55V329.2Z"/><path class="cls-10" d="M212.82,329.2h2.55v34.26h-2.55Z"/><path class="cls-7" d="M242.14,329.2l21.05,29.85V329.2h2.55v34.26h-2.55l-21.05-30v30H239.6V329.2Z"/><path class="cls-7" d="M287.13,346.33c0-9.89,7.19-17.72,16.93-17.72S321,336.44,321,346.33s-7.15,17.72-16.94,17.72S287.13,356.21,287.13,346.33Zm2.64,0c0,8.42,5.73,15.22,14.29,15.22s14.3-6.8,14.3-15.22-5.73-15.23-14.3-15.23S289.77,337.91,289.77,346.33Z"/><path class="cls-7" d="M398.37,344.71h15.27v2.35H398.37v14.05h16.74v2.35H395.83V329.2h19v2.35H398.37Z"/><path class="cls-7" d="M446,347.16c-5-2.2-9.2-4.85-9.2-10,0-3.87,3.13-8.52,9.54-8.52a11.68,11.68,0,0,1,9.3,4.94l-2,1.52a9,9,0,0,0-7.29-4c-4.31,0-7.05,2.6-7.05,6,0,4.21,3.87,6.06,8.76,8.22,5.24,2.3,8.18,4.94,8.18,9.54,0,5.53-4.5,9.16-10.23,9.16-7.54,0-10.62-7-10.62-7l2.3-1.37s2.25,5.87,8.32,5.87c4.26,0,7.68-2.55,7.68-6.66S450,348.92,446,347.16Z"/><path class="cls-7" d="M478.94,329.2h2.55v34.26h-2.55Z"/><path class="cls-7" d="M515.07,329.2c9.88,0,16.93,7.24,16.93,17.13s-7,17.13-16.93,17.13h-9.35V329.2Zm-.49,31.91c9,0,14.78-5.92,14.78-14.78s-5.78-14.78-14.78-14.78h-6.32v29.56Z"/><path class="cls-7" d="M555.94,344.71h15.27v2.35H555.94v14.05h16.74v2.35H553.4V329.2h19v2.35H555.94Z"/><path class="cls-7" d="M597.21,329.2l21,29.85V329.2h2.55v34.26h-2.55l-21-30v30h-2.55V329.2Z"/><path class="cls-7" d="M670,356.61l1.76,1.76a16.55,16.55,0,0,1-12.67,5.68c-9.89,0-16.94-7.84-16.94-17.72s7-17.72,16.94-17.72a16.27,16.27,0,0,1,12.18,5.24l-1.81,1.66a13.77,13.77,0,0,0-10.37-4.41c-8.52,0-14.3,6.81-14.3,15.23s5.78,15.22,14.3,15.22A14.16,14.16,0,0,0,670,356.61Z"/><path class="cls-7" d="M694.76,344.71H710v2.35H694.76v14.05H711.5v2.35H692.22V329.2h19v2.35H694.76Z"/><path class="cls-7" d="M365.14,348.43c2.39-.24,8.86-2.15,8.86-9.54,0-5.63-4.07-9.69-11.12-9.69h-5.72v2.44H363c5.09,0,8.32,2.74,8.32,7.25s-3.18,7.24-8.32,7.24h-5.87v2.45h5.09l9.59,14.88h3.09Z"/><rect class="cls-10" x="209.32" y="329.2" width="3.5" height="2.09"/><path class="cls-10" d="M34.33,361.72l0,0Z"/><path class="cls-10" d="M32,356a27.9,27.9,0,0,1,2-13.5,17.52,17.52,0,0,0-2.59,12.28,17,17,0,0,0,1.38,4.36,11.3,11.3,0,0,1-.44-1.26A9.05,9.05,0,0,1,32,356Z"/><path class="cls-11" d="M32.13,343.13a9.74,9.74,0,0,0,.36-1.87C32.39,341.9,32.27,342.53,32.13,343.13Z"/><path class="cls-10" d="M32.4,333.72a.66.66,0,0,1,0,.14S32.41,333.81,32.4,333.72Z"/><path class="cls-10" d="M32.39,333.61v.11S32.39,333.65,32.39,333.61Z"/><polygon class="cls-10" points="29.4 323.81 29.41 323.81 29.41 323.81 29.4 323.81"/><path class="cls-10" d="M33,342.73s.42-5.15-.31-8.07C32.71,334.66,34,339.58,33,342.73Z"/><path class="cls-7" d="M50.76,344.92a16.39,16.39,0,0,0-1.7-3.56,29.2,29.2,0,0,0-4.73-5.62h0A94,94,0,0,0,29.7,323.88a1.48,1.48,0,0,0-.29-.07,12.81,12.81,0,0,1,1.39,1.47,13,13,0,0,0-1.75-.92c3.74,8.24,3.77,14.1,3.44,16.9a9.74,9.74,0,0,1-.36,1.87,16.88,16.88,0,0,0-.45,1.64,18.07,18.07,0,0,0-.63,2.51,19.79,19.79,0,0,0-.38,8.92,11.64,11.64,0,0,0,2.9,5.68c.4.3.81.59,1.24.85a4.76,4.76,0,0,1,.61.34,4.72,4.72,0,0,0,.72.25,6.1,6.1,0,0,0,.72.14c.24,0,.49.06.73.07a12.57,12.57,0,0,0,2.92-.21h0v0l-.85,3.34c-.07.28-.14.56-.2.84a6,6,0,0,0-.12.85,8.17,8.17,0,0,0,.07,1.71,14.51,14.51,0,0,0,.89,3.3c.21.54.44,1.06.7,1.58s.5,1,.78,1.46h.78a8.12,8.12,0,0,1-1-1.53c-.15-.3-.28-.61-.4-.92l-.16-.48L41,373l0-.12,0-.13,0-.24a4.33,4.33,0,0,1-.08-.5l-.07-.49,0-.51v-.25a2.08,2.08,0,0,1,0-.25V370c0-.16,0-.33.05-.5a4.45,4.45,0,0,1,0-.5,8.61,8.61,0,0,1,.52-1.93,8.38,8.38,0,0,1,1-1.76,9.1,9.1,0,0,1,1.34-1.5,8.93,8.93,0,0,1,1.63-1.16,4.42,4.42,0,0,0,.82-.53,8.93,8.93,0,0,0,.74-.64A11.24,11.24,0,0,0,48.05,360a15.62,15.62,0,0,0,1.83-3.48,25.5,25.5,0,0,0,1.46-7.74A11.15,11.15,0,0,0,50.76,344.92Zm-5.69,6.71c0,.19,0,.39,0,.59l0,.58c0,.39-.06.79-.11,1.18a31.35,31.35,0,0,1-2.5,9c.13-.37.27-.74.4-1.1s.25-.74.36-1.12.23-.74.33-1.12l.15-.56c0-.19.09-.38.14-.57.19-.75.33-1.52.47-2.28.08-.53.17-1.06.23-1.59.83-9.47-4.92-18.5-8.2-22.81l-.7-.84-1.38-1.67v0a19.23,19.23,0,0,1,1.72,1.41l.16.15c.52.48,1,1,1.51,1.5s1,1.17,1.54,1.78l.6.79a14.54,14.54,0,0,1,1.55,2.34q.47.76.87,1.56h0q.33.66.63,1.32c.32.72.61,1.45.87,2.2.19.54.35,1.08.5,1.63h0c0,.21.11.41.16.62a26.22,26.22,0,0,1,.7,4.66C45.07,350.05,45.1,350.84,45.07,351.63Z"/><line class="cls-12" x1="711.5" y1="449" x2="851.5" y2="134"/><g class="cls-13"><path class="cls-10" d="M893.18,310.54c1.17-1.53,3.64-3.91,3.64-7.46a4.62,4.62,0,0,0-4.67-4.85c-4.62,0-5.61,4.58-5.61,4.58l-4.81-1.75s2-7.86,10.42-7.86c6.78,0,10.06,4.58,10.06,9.79a13,13,0,0,1-2.74,7.73l-7.23,9.34h10.11v5.12H881.64Z"/></g><polygon class="cls-14" points="304.5 387.5 0 387.5 0 307.5 701.5 307.5 701.5 308.5 1 308.5 1 386.5 304.5 386.5 304.5 387.5"/><polygon class="cls-14" points="712.5 18 195 18 195 17 711.5 17 711.5 1 446 1 446 0 712.5 0 712.5 18"/><rect class="cls-14" x="357" y="120" width="337" height="1"/></g></g></g></svg>