<svg xmlns="http://www.w3.org/2000/svg" xmlns:xlink="http://www.w3.org/1999/xlink" viewBox="0 0 794.12 620.74"><defs><style>.cls-1{opacity:0.59;}.cls-2{fill:#271e7e;}.cls-3{opacity:0.92;}.cls-4{fill:#e5b465;}.cls-5{fill:url(#Gradient_bez_nazwy);}.cls-6{fill:#fff;}.cls-7{fill:#2a2180;}.cls-8,.cls-9{fill:#cea65f;}.cls-10,.cls-11,.cls-8{opacity:0.77;}.cls-10,.cls-8{isolation:isolate;}.cls-10{fill:none;stroke:#cea65f;stroke-miterlimit:10;stroke-width:4px;}</style><linearGradient id="Gradient_bez_nazwy" x1="578.64" y1="432.29" x2="801.25" y2="432.29" gradientTransform="matrix(1, 0, 0, -1, 0, 515.26)" gradientUnits="userSpaceOnUse"><stop offset="0" stop-color="#21187b"/><stop offset="0" stop-color="#22197c"/><stop offset="1" stop-opacity="0"/></linearGradient></defs><g id="Warstwa_2" data-name="Warstwa 2"><g id="Warstwa_1-2" data-name="Warstwa 1"><g class="cls-1"><path class="cls-2" d="M83.58,345C47.63,345,36,313.66,36,313.66l19.44-11s7.05,20.72,28.19,20.72c15.75,0,24.89-11,24.89-25.17,0-14.53-8.75-25.17-29-25.17C60.72,273,43,287.71,43,287.71V207.16h85.57v22.06H66.29v26.54a44,44,0,0,1,19.24-4.07c24.1,0,46.45,14.72,46.45,46.48S107.1,345,83.58,345Z"/><path class="cls-2" d="M243.94,243.94c0,18-15.16,26.73-15.16,26.73s19.05,7.55,19.05,32.15c0,22.65-17.11,42.21-46.65,42.21s-46.65-19.56-46.65-42.21c0-24.6,19.05-32.15,19.05-32.15s-15.16-8.71-15.16-26.73c0-20.13,14.38-39.11,42.76-39.11S243.94,223.81,243.94,243.94ZM224.3,302.43c0-11-7.77-20.92-23.12-20.92S178,291.39,178,302.43s7.78,21.29,23.14,21.29S224.3,313.46,224.3,302.43Zm-23.12-76.34c-10.89,0-19.64,7-19.64,18s8.75,18,19.64,18,19.62-7,19.62-18-8.73-18-19.62-18Z"/><path class="cls-2" d="M372,274.92c0,36.8-16.32,70.11-50.92,70.11s-51.32-33.31-51.32-70.11,16.72-70.09,51.36-70.09S372,238.14,372,274.92Zm-23.32,0c0-26.52-8.75-48.4-27.6-48.4s-28,21.88-28,48.4,9.12,48.42,28,48.42,27.56-21.88,27.56-48.42Z"/><path class="cls-2" d="M494.67,274.92c0,36.8-16.32,70.11-50.92,70.11s-51.32-33.31-51.32-70.11,16.73-70.09,51.32-70.09S494.67,238.14,494.67,274.92Zm-23.32,0c0-26.52-8.74-48.4-27.6-48.4s-28,21.88-28,48.4,9.14,48.42,28,48.42S471.35,301.46,471.35,274.92Z"/><path class="cls-2" d="M598.48,250.92,552.8,321h43.54V342.7h-83.2l45.68-70.09H516.45V250.92Z"/><path class="cls-2" d="M609.55,288.49l21.76-16.85V196.31h23.4v57.32l12.83-10.07,9.71,12.92L654.71,274.1v68.56h-23.4V292.15l-12,9.29Z"/></g><g class="cls-3"><path class="cls-4" d="M91,337c-35.82,0-47.44-31.36-47.44-31.36l19.37-11S69.81,315.35,91,315.35c15.69,0,24.8-11,24.8-25.17,0-14.53-8.72-25.18-28.86-25.18-18.79,0-36.41,14.72-36.41,14.72V199.18h85.1v22.07H73.66v26.53a43.75,43.75,0,0,1,19.17-4.07c24,0,46.29,14.71,46.29,46.47S114.32,337,91,337Z"/><path class="cls-4" d="M250.68,236c0,18-15.1,26.72-15.1,26.72s19,7.55,19,32.14c0,22.66-17,42.21-46.48,42.21s-46.47-19.55-46.47-42.21c0-24.59,19-32.14,19-32.14S165.49,254,165.49,236c0-20.15,14.32-39.12,42.59-39.12S250.68,215.82,250.68,236Zm-19.59,58.47c0-11-7.75-20.9-23-20.9s-23,9.86-23,20.9,7.74,21.31,23,21.31S231.09,305.48,231.09,294.44Zm-23-76.34c-10.84,0-19.56,7-19.56,18s8.72,18,19.56,18,19.56-7,19.56-18-8.72-18-19.56-18Z"/><path class="cls-4" d="M378.26,267c0,36.8-16.27,70.09-50.74,70.09S276.41,303.75,276.41,267s16.65-70.1,51.11-70.1S378.26,230.16,378.26,267ZM355,267c0-26.53-8.7-48.41-27.49-48.41S299.64,240.42,299.64,267s9.1,48.4,27.88,48.4S355,293.48,355,267Z"/><path class="cls-4" d="M500.44,267c0,36.8-16.27,70.09-50.74,70.09S398.59,303.75,398.59,267s16.65-70.1,51.11-70.1S500.44,230.16,500.44,267Zm-23.23,0c0-26.53-8.72-48.41-27.51-48.41S421.82,240.42,421.82,267s9.1,48.4,27.88,48.4S477.21,293.48,477.21,267Z"/><path class="cls-4" d="M603.84,242.94,558.33,313h43.39v21.73H518.83l45.5-70.11H522.12V242.94Z"/><path class="cls-4" d="M614.88,280.5l21.68-16.83V188.33h23.25v57.31l12.78-10.06,9.67,12.92-22.45,17.61v68.62H636.56v-50.5l-12,9.3Z"/></g><rect class="cls-5" x="15.33" y="29" width="769.33" height="107.93"/><path class="cls-6" d="M23,57.05H38.19c11.52,0,18.73,7.46,18.73,17.21s-7.21,17.2-18.73,17.2H27.42v24.9H23ZM38.27,87.39c8.31,0,14.07-5.34,14.07-13.13S46.58,61.12,38.27,61.12H27.42V87.39Z"/><path class="cls-6" d="M66.58,57.05H80.9c12.2,0,19.24,7,19.24,16.78,0,12.8-11.19,16.11-15.34,16.52l17,26H96.41L79.8,90.67H71v25.77h-4.4ZM81.16,86.38c8.9,0,14.41-4.74,14.41-12.55S90,61.3,81.16,61.3H71V86.38Z"/><path class="cls-6" d="M150.4,57.05l-36.1,55.26h34.83v4.07H106.67l36.17-55.26H108.62V57.05Z"/><path class="cls-6" d="M164.3,83.91h26.45V88H164.3v24.33h29v4.07H159.9V57.07h32.88v4.07H164.31Z"/><path class="cls-6" d="M221.68,57.05C238.8,57.05,251,69.6,251,86.7s-12.2,29.65-29.32,29.65H205.49V57.05Zm-.84,55.26c15.59,0,25.6-10.25,25.6-25.6s-10-25.59-25.6-25.59H209.91v51.19Z"/><path class="cls-6" d="M277.63,88.16c-8.73-3.82-15.94-8.4-15.94-17.38,0-6.7,5.42-14.75,16.53-14.75,10.59,0,16.1,8.56,16.1,8.56l-3.39,2.64a15.61,15.61,0,0,0-12.62-6.87c-7.46,0-12.21,4.49-12.21,10.42,0,7.29,6.69,10.51,15.17,14.24,9.06,4,14.15,8.56,14.15,16.53,0,9.57-7.79,15.85-17.71,15.85-13,0-18.39-12.13-18.39-12.13l4-2.37s3.9,10.18,14.41,10.18c7.37,0,13.31-4.41,13.31-11.53C291,94.23,284.57,91.21,277.63,88.16Z"/><path class="cls-6" d="M307.63,57.05H322.8c11.52,0,18.73,7.46,18.73,17.21s-7.21,17.2-18.73,17.2H312v24.9h-4.41Zm15.26,30.34c8.3,0,14.07-5.34,14.07-13.13s-5.77-13.14-14.07-13.14H312V87.39Z"/><path class="cls-6" d="M351.19,57.05h14.33c12.15,0,19.27,7,19.27,16.78,0,12.8-11.18,16.11-15.34,16.52l16.95,26h-5.33L364.41,90.67H355.6v25.77h-4.41Zm14.62,29.33c8.9,0,14.4-4.74,14.4-12.55s-5.62-12.53-14.4-12.53H355.64V86.38Z"/><path class="cls-6" d="M435,57.05l-36.1,55.26h34.83v4.07H391.29l36.1-55.26H393.23V57.05Z"/><path class="cls-6" d="M448.92,83.91h26.44V88H448.92v24.33h29v4.07h-33.4V57.07H477.4v4.07H448.93Z"/><path class="cls-6" d="M506.3,57.05c17.12,0,29.32,12.55,29.32,29.65s-12.2,29.65-29.32,29.65H490.11V57.05Zm-.85,55.26c15.59,0,25.59-10.25,25.59-25.6s-10-25.59-25.59-25.59H494.52v51.19Z"/><path class="cls-6" d="M563,57.05h4.91l23.65,59.3h-4.75L580,99.06h-29.2l-6.79,17.29h-4.74ZM552.58,95h25.76L565.46,62Z"/><path class="cls-6" d="M638.36,57.05l-36.12,55.26h34.84v4.07H594.61l36.11-55.26H596.57V57.05Zm-21-14.32a3.43,3.43,0,0,1,3.48,3.37v.11a3.35,3.35,0,0,1-3.33,3.38h-.14A3.29,3.29,0,0,1,614,46.4v-.19a3.35,3.35,0,0,1,3.23-3.47Z"/><path class="cls-7" d="M765.18,407.63v30.62h-12V410.74c0-6.52-2.51-10-8.53-10-6.33,0-9.34,6.13-9.34,6.13v31.42h-12V410.74c0-6.52-2.51-10-8.53-10-6.33,0-9.34,6.13-9.34,6.13v31.42H693.29V390.66h11.25v6.93a16.54,16.54,0,0,1,14.06-8.13c11.44,0,14.75,8.33,14.75,8.33s4-8.33,15.17-8.33C758.15,389.46,765.18,396.18,765.18,407.63Z"/><path class="cls-8" d="M765.18,407.63v30.62h-12V410.74c0-6.52-2.51-10-8.53-10-6.33,0-9.34,6.13-9.34,6.13v31.42h-12V410.74c0-6.52-2.51-10-8.53-10-6.33,0-9.34,6.13-9.34,6.13v31.42H693.29V390.66h11.25v6.93a16.54,16.54,0,0,1,14.06-8.13c11.44,0,14.75,8.33,14.75,8.33s4-8.33,15.17-8.33C758.15,389.46,765.18,396.18,765.18,407.63Z"/><path class="cls-6" d="M118.08,474.89h9.3c5.82,0,9.74,3.42,9.74,8.81,0,5.18-3.48,7.14-4.07,7.39.59.14,5.93,2,5.93,8.76,0,5.48-3.77,9.3-10.38,9.3H118.08Zm9.7,15.46c4.65,0,6.65-2.93,6.65-6.65s-2.64-6.46-7.34-6.46h-6.47v13.11Zm.53,16.45c6,0,8-3.57,8-6.95s-2-7.15-7.29-7.15h-8.4v14.1Z"/><path class="cls-6" d="M169.91,474.89h2.87l13.66,34.26H183.7l-3.92-10H162.91l-3.91,10h-2.74Zm-6,21.92h14.87l-7.45-19.12Z"/><path class="cls-9" d="M208.78,474.89l21.05,29.85V474.89h2.54v34.26h-2.54l-21.05-30v30h-2.55v-34.3Z"/><path class="cls-9" d="M256.6,474.89h2.55v34.26H256.6Z"/><path class="cls-6" d="M285.92,474.89,307,504.74V474.89h2.55v34.26H307l-21.05-30v30h-2.54V474.89Z"/><path class="cls-6" d="M330.91,492c0-9.89,7.19-17.72,16.93-17.72s16.94,7.83,16.94,17.72-7.15,17.72-16.94,17.72S330.91,501.9,330.91,492Zm2.64,0c0,8.42,5.73,15.22,14.29,15.22s14.3-6.8,14.3-15.22-5.73-15.23-14.3-15.23S333.55,483.6,333.55,492Z"/><path class="cls-6" d="M160.51,549.57h15.27v2.35H160.51V566h16.74v2.35H158V534.06h19v2.35H160.51Z"/><path class="cls-6" d="M208.14,552c-5-2.2-9.2-4.85-9.2-10,0-3.87,3.13-8.52,9.54-8.52a11.69,11.69,0,0,1,9.3,4.94l-2,1.52a9,9,0,0,0-7.29-4c-4.31,0-7.05,2.6-7.05,6,0,4.21,3.87,6.06,8.76,8.22,5.24,2.3,8.18,4.94,8.18,9.54,0,5.53-4.5,9.16-10.23,9.16-7.54,0-10.62-7-10.62-7l2.3-1.37s2.25,5.87,8.32,5.87c4.26,0,7.68-2.55,7.68-6.66S212.14,553.78,208.14,552Z"/><path class="cls-6" d="M241.08,534.06h2.55v34.26h-2.55Z"/><path class="cls-6" d="M277.21,534.06c9.88,0,16.93,7.24,16.93,17.13s-7,17.13-16.93,17.13h-9.35V534.06ZM276.72,566c9,0,14.78-5.92,14.78-14.78s-5.78-14.78-14.78-14.78H270.4V566Z"/><path class="cls-6" d="M318.08,549.57h15.27v2.35H318.08V566h16.74v2.35H315.54V534.06h19v2.35H318.08Z"/><path class="cls-6" d="M359.35,534.06l21,29.85V534.06h2.55v34.26h-2.55l-21-30v30H356.8V534.06Z"/><path class="cls-6" d="M432.14,561.47l1.76,1.76a16.54,16.54,0,0,1-12.67,5.68c-9.89,0-16.94-7.84-16.94-17.72s7-17.72,16.94-17.72a16.26,16.26,0,0,1,12.18,5.24l-1.81,1.66A13.76,13.76,0,0,0,421.23,536c-8.52,0-14.3,6.81-14.3,15.23s5.78,15.22,14.3,15.22A14.15,14.15,0,0,0,432.14,561.47Z"/><path class="cls-6" d="M456.9,549.57h15.24v2.35H456.9V566h16.74v2.35H454.36V534.06h19v2.35H456.9Z"/><path class="cls-6" d="M127.28,553.29c2.39-.24,8.86-2.15,8.86-9.54,0-5.63-4.07-9.69-11.12-9.69H119.3v2.44h5.84c5.09,0,8.32,2.74,8.32,7.25s-3.18,7.24-8.32,7.24h-5.87v2.45h5.09L134,568.32H137Z"/><rect class="cls-9" x="253.1" y="474.89" width="3.5" height="2.09"/><path class="cls-6" d="M80.57,520.19a35.75,35.75,0,0,0-3.7-7.74,63.3,63.3,0,0,0-10.28-12.22h0a204.17,204.17,0,0,0-31.81-25.78,2.63,2.63,0,0,0-.63-.15,28.57,28.57,0,0,1,3,3.19,28.79,28.79,0,0,0-3.81-2c8.13,17.91,8.2,30.65,7.48,36.74a21.42,21.42,0,0,1-.78,4.06,35,35,0,0,0-1,3.57,37.92,37.92,0,0,0-1.37,5.46,43.07,43.07,0,0,0-.83,19.39,25.33,25.33,0,0,0,6.31,12.35c.87.65,1.76,1.28,2.69,1.84a10.76,10.76,0,0,1,1.33.74,10,10,0,0,0,1.56.55,14,14,0,0,0,1.57.3c.52,0,1.06.13,1.59.15a27.52,27.52,0,0,0,6.34-.45h0l-1.84,7.26c-.16.61-.31,1.21-.44,1.82a12.87,12.87,0,0,0-.26,1.85,17.81,17.81,0,0,0,.15,3.72A31.31,31.31,0,0,0,57.83,582a36.3,36.3,0,0,0,1.52,3.44c.56,1.13,1.09,2.17,1.7,3.17h1.69a17,17,0,0,1-2.17-3.33,20.83,20.83,0,0,1-.87-2l-.35-1v-2.09a7.83,7.83,0,0,1-.17-1.08L59,578v-1.65a4.86,4.86,0,0,1,0-.54v-1.11a3.74,3.74,0,0,1,.11-1.09,9.91,9.91,0,0,1,0-1.09,18.56,18.56,0,0,1,1.13-4.19,18.13,18.13,0,0,1,2.18-3.83,19.57,19.57,0,0,1,2.91-3.26,19.13,19.13,0,0,1,3.54-2.52,9.58,9.58,0,0,0,1.79-1.15c.56-.44,1.09-.9,1.6-1.39a24.93,24.93,0,0,0,2.4-3.22,34,34,0,0,0,4-7.57,55.18,55.18,0,0,0,3.18-16.82A24.39,24.39,0,0,0,80.57,520.19ZM68.2,534.77v2.55a20.31,20.31,0,0,1-.24,2.56,68.35,68.35,0,0,1-5.44,19.57c.29-.81.59-1.61.87-2.39s.55-1.61.79-2.44.5-1.61.71-2.43l.33-1.22a5.09,5.09,0,0,1,.3-1.24c.42-1.63.72-3.31,1-5,.17-1.15.36-2.3.5-3.45,1.8-20.59-10.7-40.22-17.83-49.59L47.7,489.9l-3-3.63h0a43.88,43.88,0,0,1,3.74,3.07l.34.32c1.13,1,2.18,2.18,3.29,3.27s2.17,2.54,3.34,3.86l1.31,1.72a32.53,32.53,0,0,1,3.37,5.09q1,1.65,1.89,3.39h0c.48,1,.93,1.91,1.37,2.87.7,1.57,1.33,3.15,1.89,4.78.41,1.18.76,2.35,1.09,3.55h0a6,6,0,0,0,.35,1.34,57,57,0,0,1,1.52,10.13C68.2,531.34,68.26,533.06,68.2,534.77Z"/><line class="cls-10" x1="614.88" y1="462.64" x2="754.88" y2="147.64"/><g class="cls-11"><path class="cls-9" d="M785,377.45c1.17-1.53,3.64-3.91,3.64-7.46a4.61,4.61,0,0,0-4.38-4.84h-.29c-4.62,0-5.61,4.58-5.61,4.58L773.5,368s2-7.86,10.42-7.86c6.78,0,10.06,4.58,10.06,9.79a12.9,12.9,0,0,1-2.74,7.73L784,387h10.11v5.12H773.41Z"/></g><path class="cls-9" d="M304.5,620.74H0V436.79H541.13a2.29,2.29,0,0,1-2.3,2.29H1V618.44H304.5Z"/><polygon class="cls-9" points="713.34 18 195.84 18 195.84 17 712.34 17 712.34 1 446.83 1 446.83 0 713.34 0 713.34 18"/><rect class="cls-9" x="16.72" y="136.93" width="399.7" height="1.19"/></g></g></svg>