<svg width="795" height="621" viewBox="0 0 795 621" fill="none" xmlns="http://www.w3.org/2000/svg">
<g clip-path="url(#clip0)">
<g opacity="0.59">
<path opacity="0.59" d="M83.58 345C47.63 345 36 313.66 36 313.66L55.44 302.66C55.44 302.66 62.49 323.38 83.63 323.38C99.38 323.38 108.52 312.38 108.52 298.21C108.52 283.68 99.77 273.04 79.52 273.04C60.72 273 43 287.71 43 287.71V207.16H128.57V229.22H66.29V255.76C72.3141 252.969 78.8917 251.578 85.53 251.69C109.63 251.69 131.98 266.41 131.98 298.17C131.98 329.93 107.1 345 83.58 345Z" fill="#271E7E"/>
<path opacity="0.59" d="M243.94 243.94C243.94 261.94 228.78 270.67 228.78 270.67C228.78 270.67 247.83 278.22 247.83 302.82C247.83 325.47 230.72 345.03 201.18 345.03C171.64 345.03 154.53 325.47 154.53 302.82C154.53 278.22 173.58 270.67 173.58 270.67C173.58 270.67 158.42 261.96 158.42 243.94C158.42 223.81 172.8 204.83 201.18 204.83C229.56 204.83 243.94 223.81 243.94 243.94ZM224.3 302.43C224.3 291.43 216.53 281.51 201.18 281.51C185.83 281.51 178 291.39 178 302.43C178 313.47 185.78 323.72 201.14 323.72C216.5 323.72 224.3 313.46 224.3 302.43ZM201.18 226.09C190.29 226.09 181.54 233.09 181.54 244.09C181.54 255.09 190.29 262.09 201.18 262.09C212.07 262.09 220.8 255.09 220.8 244.09C220.8 233.09 212.07 226.09 201.18 226.09V226.09Z" fill="#271E7E"/>
<path opacity="0.59" d="M372 274.92C372 311.72 355.68 345.03 321.08 345.03C286.48 345.03 269.76 311.72 269.76 274.92C269.76 238.12 286.48 204.83 321.12 204.83C355.76 204.83 372 238.14 372 274.92ZM348.68 274.92C348.68 248.4 339.93 226.52 321.08 226.52C302.23 226.52 293.08 248.4 293.08 274.92C293.08 301.44 302.2 323.34 321.08 323.34C339.96 323.34 348.64 301.46 348.64 274.92H348.68Z" fill="#271E7E"/>
<path opacity="0.59" d="M494.67 274.92C494.67 311.72 478.35 345.03 443.75 345.03C409.15 345.03 392.43 311.72 392.43 274.92C392.43 238.12 409.16 204.83 443.75 204.83C478.34 204.83 494.67 238.14 494.67 274.92ZM471.35 274.92C471.35 248.4 462.61 226.52 443.75 226.52C424.89 226.52 415.75 248.4 415.75 274.92C415.75 301.44 424.89 323.34 443.75 323.34C462.61 323.34 471.35 301.46 471.35 274.92Z" fill="#271E7E"/>
<path opacity="0.59" d="M598.48 250.92L552.8 321H596.34V342.7H513.14L558.82 272.61H516.45V250.92H598.48Z" fill="#271E7E"/>
<path opacity="0.59" d="M609.55 288.49L631.31 271.64V196.31H654.71V253.63L667.54 243.56L677.25 256.48L654.71 274.1V342.66H631.31V292.15L619.31 301.44L609.55 288.49Z" fill="#271E7E"/>
</g>
<g opacity="0.92">
<path opacity="0.92" d="M91.0001 337C55.1801 337 43.5601 305.64 43.5601 305.64L62.9301 294.64C62.9301 294.64 69.8101 315.35 91.0001 315.35C106.69 315.35 115.8 304.35 115.8 290.18C115.8 275.65 107.08 265 86.9401 265C68.1501 265 50.5301 279.72 50.5301 279.72V199.18H135.63V221.25H73.6601V247.78C79.6601 244.991 86.2145 243.6 92.8301 243.71C116.83 243.71 139.12 258.42 139.12 290.18C139.12 321.94 114.32 337 91.0001 337Z" fill="#E5B465"/>
<path opacity="0.92" d="M250.68 236C250.68 254 235.58 262.72 235.58 262.72C235.58 262.72 254.58 270.27 254.58 294.86C254.58 317.52 237.58 337.07 208.1 337.07C178.62 337.07 161.63 317.52 161.63 294.86C161.63 270.27 180.63 262.72 180.63 262.72C180.63 262.72 165.49 254 165.49 236C165.49 215.85 179.81 196.88 208.08 196.88C236.35 196.88 250.68 215.82 250.68 236ZM231.09 294.47C231.09 283.47 223.34 273.57 208.09 273.57C192.84 273.57 185.09 283.43 185.09 294.47C185.09 305.51 192.83 315.78 208.09 315.78C223.35 315.78 231.09 305.48 231.09 294.44V294.47ZM208.09 218.13C197.25 218.13 188.53 225.13 188.53 236.13C188.53 247.13 197.25 254.13 208.09 254.13C218.93 254.13 227.65 247.13 227.65 236.13C227.65 225.13 218.93 218.13 208.09 218.13Z" fill="#E5B465"/>
<path opacity="0.92" d="M378.26 267C378.26 303.8 361.99 337.09 327.52 337.09C293.05 337.09 276.41 303.75 276.41 267C276.41 230.25 293.06 196.9 327.52 196.9C361.98 196.9 378.26 230.16 378.26 267ZM355 267C355 240.47 346.3 218.59 327.51 218.59C308.72 218.59 299.64 240.42 299.64 267C299.64 293.58 308.74 315.4 327.52 315.4C346.3 315.4 355 293.48 355 267Z" fill="#E5B465"/>
<path opacity="0.92" d="M500.44 267C500.44 303.8 484.17 337.09 449.7 337.09C415.23 337.09 398.59 303.75 398.59 267C398.59 230.25 415.24 196.9 449.7 196.9C484.16 196.9 500.44 230.16 500.44 267ZM477.21 267C477.21 240.47 468.49 218.59 449.7 218.59C430.91 218.59 421.82 240.42 421.82 267C421.82 293.58 430.92 315.4 449.7 315.4C468.48 315.4 477.21 293.48 477.21 267Z" fill="#E5B465"/>
<path opacity="0.92" d="M603.84 242.94L558.33 313H601.72V334.73H518.83L564.33 264.62H522.12V242.94H603.84Z" fill="#E5B465"/>
<path opacity="0.92" d="M614.88 280.5L636.56 263.67V188.33H659.81V245.64L672.59 235.58L682.26 248.5L659.81 266.11V334.73H636.56V284.23L624.56 293.53L614.88 280.5Z" fill="#E5B465"/>
</g>
<path d="M784.66 29H15.33V136.93H784.66V29Z" fill="url(#paint0_linear)"/>
<path d="M23 57.05H38.19C49.71 57.05 56.92 64.51 56.92 74.26C56.92 84.01 49.71 91.46 38.19 91.46H27.42V116.36H23V57.05ZM38.27 87.39C46.58 87.39 52.34 82.05 52.34 74.26C52.34 66.47 46.58 61.12 38.27 61.12H27.42V87.39H38.27Z" fill="white"/>
<path d="M66.58 57.05H80.9C93.1 57.05 100.14 64.05 100.14 73.83C100.14 86.63 88.95 89.94 84.8 90.35L101.8 116.35H96.41L79.8 90.67H71V116.44H66.6L66.58 57.05ZM81.16 86.38C90.06 86.38 95.57 81.64 95.57 73.83C95.57 66.02 90 61.3 81.16 61.3H71V86.38H81.16Z" fill="white"/>
<path d="M150.4 57.05L114.3 112.31H149.13V116.38H106.67L142.84 61.12H108.62V57.05H150.4Z" fill="white"/>
<path d="M164.3 83.91H190.75V88H164.3V112.33H193.3V116.4H159.9V57.07H192.78V61.14H164.31L164.3 83.91Z" fill="white"/>
<path d="M221.68 57.05C238.8 57.05 251 69.6 251 86.7C251 103.8 238.8 116.35 221.68 116.35H205.49V57.05H221.68ZM220.84 112.31C236.43 112.31 246.44 102.06 246.44 86.71C246.44 71.36 236.44 61.12 220.84 61.12H209.91V112.31H220.84Z" fill="white"/>
<path d="M277.63 88.16C268.9 84.34 261.69 79.76 261.69 70.78C261.69 64.08 267.11 56.03 278.22 56.03C288.81 56.03 294.32 64.59 294.32 64.59L290.93 67.23C289.53 65.1578 287.654 63.4522 285.457 62.2566C283.261 61.0611 280.81 60.4106 278.31 60.36C270.85 60.36 266.1 64.85 266.1 70.78C266.1 78.07 272.79 81.29 281.27 85.02C290.33 89.02 295.42 93.58 295.42 101.55C295.42 111.12 287.63 117.4 277.71 117.4C264.71 117.4 259.32 105.27 259.32 105.27L263.32 102.9C263.32 102.9 267.22 113.08 277.73 113.08C285.1 113.08 291.04 108.67 291.04 101.55C291 94.23 284.57 91.21 277.63 88.16Z" fill="white"/>
<path d="M307.63 57.05H322.8C334.32 57.05 341.53 64.51 341.53 74.26C341.53 84.01 334.32 91.46 322.8 91.46H312V116.36H307.59L307.63 57.05ZM322.89 87.39C331.19 87.39 336.96 82.05 336.96 74.26C336.96 66.47 331.19 61.12 322.89 61.12H312V87.39H322.89Z" fill="white"/>
<path d="M351.19 57.05H365.52C377.67 57.05 384.79 64.05 384.79 73.83C384.79 86.63 373.61 89.94 369.45 90.35L386.4 116.35H381.07L364.41 90.67H355.6V116.44H351.19V57.05ZM365.81 86.38C374.71 86.38 380.21 81.64 380.21 73.83C380.21 66.02 374.59 61.3 365.81 61.3H355.64V86.38H365.81Z" fill="white"/>
<path d="M435 57.05L398.9 112.31H433.73V116.38H391.29L427.39 61.12H393.23V57.05H435Z" fill="white"/>
<path d="M448.92 83.91H475.36V88H448.92V112.33H477.92V116.4H444.52V57.07H477.4V61.14H448.93L448.92 83.91Z" fill="white"/>
<path d="M506.3 57.05C523.42 57.05 535.62 69.6 535.62 86.7C535.62 103.8 523.42 116.35 506.3 116.35H490.11V57.05H506.3ZM505.45 112.31C521.04 112.31 531.04 102.06 531.04 86.71C531.04 71.36 521.04 61.12 505.45 61.12H494.52V112.31H505.45Z" fill="white"/>
<path d="M563 57.05H567.91L591.56 116.35H586.81L580 99.06H550.8L544.01 116.35H539.27L563 57.05ZM552.58 95H578.34L565.46 62L552.58 95Z" fill="white"/>
<path d="M638.36 57.05L602.24 112.31H637.08V116.38H594.61L630.72 61.12H596.57V57.05H638.36ZM617.36 42.73C618.268 42.7166 619.144 43.0639 619.797 43.6956C620.449 44.3274 620.824 45.192 620.84 46.1V46.21C620.844 46.6508 620.761 47.088 620.596 47.4966C620.43 47.9052 620.186 48.2772 619.877 48.5912C619.567 48.9051 619.199 49.155 618.793 49.3264C618.387 49.4978 617.951 49.5874 617.51 49.59H617.37C616.501 49.6115 615.658 49.2881 615.027 48.6903C614.395 48.0926 614.026 47.2691 614 46.4V46.21C613.984 45.77 614.055 45.3312 614.208 44.9186C614.362 44.506 614.596 44.1277 614.896 43.8054C615.196 43.4832 615.556 43.2232 615.957 43.0404C616.357 42.8575 616.79 42.7555 617.23 42.74L617.36 42.73Z" fill="white"/>
<path d="M765.18 407.63V438.25H753.18V410.74C753.18 404.22 750.67 400.74 744.65 400.74C738.32 400.74 735.31 406.87 735.31 406.87V438.29H723.31V410.74C723.31 404.22 720.8 400.74 714.78 400.74C708.45 400.74 705.44 406.87 705.44 406.87V438.29H693.29V390.66H704.54V397.59C705.986 395.14 708.04 393.105 710.503 391.68C712.966 390.256 715.755 389.491 718.6 389.46C730.04 389.46 733.35 397.79 733.35 397.79C733.35 397.79 737.35 389.46 748.52 389.46C758.15 389.46 765.18 396.18 765.18 407.63Z" fill="#2A2180"/>
<path opacity="0.77" d="M765.18 407.63V438.25H753.18V410.74C753.18 404.22 750.67 400.74 744.65 400.74C738.32 400.74 735.31 406.87 735.31 406.87V438.29H723.31V410.74C723.31 404.22 720.8 400.74 714.78 400.74C708.45 400.74 705.44 406.87 705.44 406.87V438.29H693.29V390.66H704.54V397.59C705.986 395.14 708.04 393.105 710.503 391.68C712.966 390.256 715.755 389.491 718.6 389.46C730.04 389.46 733.35 397.79 733.35 397.79C733.35 397.79 737.35 389.46 748.52 389.46C758.15 389.46 765.18 396.18 765.18 407.63Z" fill="#CEA65F"/>
<path d="M118.08 474.89H127.38C133.2 474.89 137.12 478.31 137.12 483.7C137.12 488.88 133.64 490.84 133.05 491.09C133.64 491.23 138.98 493.09 138.98 499.85C138.98 505.33 135.21 509.15 128.6 509.15H118.08V474.89ZM127.78 490.35C132.43 490.35 134.43 487.42 134.43 483.7C134.43 479.98 131.79 477.24 127.09 477.24H120.62V490.35H127.78ZM128.31 506.8C134.31 506.8 136.31 503.23 136.31 499.85C136.31 496.47 134.31 492.7 129.02 492.7H120.62V506.8H128.31Z" fill="white"/>
<path d="M169.91 474.89H172.78L186.44 509.15H183.7L179.78 499.15H162.91L159 509.15H156.26L169.91 474.89ZM163.91 496.81H178.78L171.33 477.69L163.91 496.81Z" fill="white"/>
<path d="M208.78 474.89L229.83 504.74V474.89H232.37V509.15H229.83L208.78 479.15V509.15H206.23V474.85L208.78 474.89Z" fill="#CEA65F"/>
<path d="M256.6 474.89H259.15V509.15H256.6V474.89Z" fill="#CEA65F"/>
<path d="M285.92 474.89L307 504.74V474.89H309.55V509.15H307L285.95 479.15V509.15H283.41V474.89H285.92Z" fill="white"/>
<path d="M330.91 492C330.91 482.11 338.1 474.28 347.84 474.28C357.58 474.28 364.78 482.11 364.78 492C364.78 501.89 357.63 509.72 347.84 509.72C338.05 509.72 330.91 501.9 330.91 492ZM333.55 492C333.55 500.42 339.28 507.22 347.84 507.22C356.4 507.22 362.14 500.42 362.14 492C362.14 483.58 356.41 476.77 347.84 476.77C339.27 476.77 333.55 483.6 333.55 492Z" fill="white"/>
<path d="M160.51 549.57H175.78V551.92H160.51V566H177.25V568.35H158V534.06H177V536.41H160.51V549.57Z" fill="white"/>
<path d="M208.14 552C203.14 549.8 198.94 547.15 198.94 542C198.94 538.13 202.07 533.48 208.48 533.48C210.309 533.518 212.103 533.986 213.718 534.844C215.333 535.701 216.724 536.926 217.78 538.42L215.78 539.94C214.976 538.736 213.894 537.744 212.625 537.048C211.356 536.351 209.937 535.971 208.49 535.94C204.18 535.94 201.44 538.54 201.44 541.94C201.44 546.15 205.31 548 210.2 550.16C215.44 552.46 218.38 555.1 218.38 559.7C218.38 565.23 213.88 568.86 208.15 568.86C200.61 568.86 197.53 561.86 197.53 561.86L199.83 560.49C199.83 560.49 202.08 566.36 208.15 566.36C212.41 566.36 215.83 563.81 215.83 559.7C215.83 555.59 212.14 553.78 208.14 552Z" fill="white"/>
<path d="M241.08 534.06H243.63V568.32H241.08V534.06Z" fill="white"/>
<path d="M277.21 534.06C287.09 534.06 294.14 541.3 294.14 551.19C294.14 561.08 287.14 568.32 277.21 568.32H267.86V534.06H277.21ZM276.72 566C285.72 566 291.5 560.08 291.5 551.22C291.5 542.36 285.72 536.44 276.72 536.44H270.4V566H276.72Z" fill="white"/>
<path d="M318.08 549.57H333.35V551.92H318.08V566H334.82V568.35H315.54V534.06H334.54V536.41H318.08V549.57Z" fill="white"/>
<path d="M359.35 534.06L380.35 563.91V534.06H382.9V568.32H380.35L359.35 538.32V568.32H356.8V534.06H359.35Z" fill="white"/>
<path d="M432.14 561.47L433.9 563.23C432.326 565.038 430.378 566.483 428.19 567.464C426.002 568.445 423.627 568.938 421.23 568.91C411.34 568.91 404.29 561.07 404.29 551.19C404.29 541.31 411.29 533.47 421.23 533.47C423.514 533.439 425.78 533.889 427.878 534.792C429.977 535.695 431.862 537.03 433.41 538.71L431.6 540.37C430.277 538.952 428.669 537.83 426.882 537.076C425.095 536.323 423.169 535.956 421.23 536C412.71 536 406.93 542.81 406.93 551.23C406.93 559.65 412.71 566.45 421.23 566.45C423.302 566.469 425.353 566.034 427.239 565.173C429.124 564.312 430.797 563.048 432.14 561.47Z" fill="white"/>
<path d="M456.9 549.57H472.14V551.92H456.9V566H473.64V568.35H454.36V534.06H473.36V536.41H456.9V549.57Z" fill="white"/>
<path d="M127.28 553.29C129.67 553.05 136.14 551.14 136.14 543.75C136.14 538.12 132.07 534.06 125.02 534.06H119.3V536.5H125.14C130.23 536.5 133.46 539.24 133.46 543.75C133.46 548.26 130.28 550.99 125.14 550.99H119.27V553.44H124.36L134 568.32H137L127.28 553.29Z" fill="white"/>
<path d="M256.6 474.89H253.1V476.98H256.6V474.89Z" fill="#CEA65F"/>
<path d="M80.57 520.19C79.6518 517.471 78.4095 514.872 76.87 512.45C73.9729 507.959 70.5187 503.853 66.59 500.23V500.23C56.8773 490.592 46.2204 481.956 34.78 474.45C34.5769 474.374 34.3653 474.324 34.15 474.3C35.2301 475.285 36.2331 476.351 37.15 477.49C35.9316 476.729 34.6581 476.061 33.34 475.49C41.47 493.4 41.54 506.14 40.82 512.23C40.6915 513.605 40.4303 514.965 40.04 516.29C39.6438 517.461 39.31 518.653 39.04 519.86C38.4487 521.644 37.9907 523.469 37.67 525.32C35.9217 531.636 35.6378 538.268 36.84 544.71C37.7534 549.334 39.9387 553.611 43.15 557.06C44.02 557.71 44.91 558.34 45.84 558.9C46.3002 559.115 46.7447 559.362 47.17 559.64C47.6739 559.866 48.1957 560.05 48.73 560.19C49.2472 560.32 49.7713 560.42 50.3 560.49C50.82 560.49 51.36 560.62 51.89 560.64C54.0136 560.735 56.1411 560.584 58.23 560.19L56.39 567.45C56.23 568.06 56.08 568.66 55.95 569.27C55.8186 569.88 55.7317 570.498 55.69 571.12C55.6099 572.362 55.6601 573.609 55.84 574.84C56.2167 577.297 56.8847 579.701 57.83 582C58.2769 583.172 58.7842 584.32 59.35 585.44C59.91 586.57 60.44 587.61 61.05 588.61H62.74C61.8889 587.589 61.1606 586.471 60.57 585.28C60.2452 584.629 59.9548 583.961 59.7 583.28L59.35 582.28V580.19C59.2682 579.834 59.2114 579.474 59.18 579.11L59 578V576.35C58.99 576.17 58.99 575.99 59 575.81V574.7C58.9829 574.333 59.02 573.966 59.11 573.61C59.09 573.247 59.09 572.883 59.11 572.52C59.3215 571.084 59.7008 569.678 60.24 568.33C60.8082 566.969 61.5403 565.683 62.42 564.5C63.2652 563.308 64.2413 562.215 65.33 561.24C66.4104 560.268 67.5981 559.423 68.87 558.72C69.5075 558.404 70.1079 558.019 70.66 557.57C71.22 557.13 71.75 556.67 72.26 556.18C73.1453 555.173 73.9479 554.096 74.66 552.96C76.307 550.615 77.6509 548.072 78.66 545.39C80.5885 539.983 81.6614 534.308 81.84 528.57C81.9089 525.724 81.4791 522.888 80.57 520.19ZM68.2 534.77V537.32C68.1741 538.178 68.094 539.033 67.96 539.88C67.1315 546.638 65.2979 553.234 62.52 559.45C62.81 558.64 63.11 557.84 63.39 557.06C63.67 556.28 63.94 555.45 64.18 554.62C64.42 553.79 64.68 553.01 64.89 552.19L65.22 550.97C65.2676 550.546 65.3684 550.129 65.52 549.73C65.94 548.1 66.24 546.42 66.52 544.73C66.69 543.58 66.88 542.43 67.02 541.28C68.82 520.69 56.32 501.06 49.19 491.69L47.7 489.9L44.7 486.27C46.0021 487.224 47.2507 488.249 48.44 489.34L48.78 489.66C49.91 490.66 50.96 491.84 52.07 492.93C53.18 494.02 54.24 495.47 55.41 496.79L56.72 498.51C58.0004 500.097 59.1287 501.801 60.09 503.6C60.7566 504.7 61.3866 505.83 61.98 506.99C62.46 507.99 62.91 508.9 63.35 509.86C64.05 511.43 64.68 513.01 65.24 514.64C65.65 515.82 66 516.99 66.33 518.19C66.3945 518.649 66.512 519.098 66.68 519.53C67.4896 522.854 67.9983 526.245 68.2 529.66C68.2 531.34 68.26 533.06 68.2 534.77Z" fill="white"/>
<path opacity="0.77" d="M614.88 462.64L754.88 147.64" stroke="#CEA65F" stroke-width="4" stroke-miterlimit="10"/>
<g opacity="0.77">
<path opacity="0.77" d="M785 377.45C786.17 375.92 788.64 373.54 788.64 369.99C788.671 369.384 788.582 368.779 788.379 368.208C788.175 367.636 787.861 367.111 787.454 366.661C787.047 366.212 786.556 365.847 786.008 365.587C785.46 365.328 784.866 365.179 784.26 365.15H783.97C779.35 365.15 778.36 369.73 778.36 369.73L773.5 368C773.5 368 775.5 360.14 783.92 360.14C790.7 360.14 793.98 364.72 793.98 369.93C793.932 372.736 792.97 375.45 791.24 377.66L784 387H794.11V392.12H773.41L785 377.45Z" fill="#CEA65F"/>
</g>
<path d="M304.5 620.74H0V436.79H541.13C541.13 437.092 541.07 437.39 540.955 437.669C540.839 437.947 540.669 438.2 540.456 438.413C540.242 438.626 539.988 438.794 539.709 438.909C539.43 439.023 539.132 439.081 538.83 439.08H1V618.44H304.5V620.74Z" fill="#CEA65F"/>
<path d="M713.34 18H195.84V17H712.34V1H446.83V0H713.34V18Z" fill="#CEA65F"/>
<path d="M416.42 136.93H16.72V138.12H416.42V136.93Z" fill="#CEA65F"/>
</g>
<defs>
<linearGradient id="paint0_linear" x1="578.64" y1="82.97" x2="801.25" y2="82.97" gradientUnits="userSpaceOnUse">
<stop stop-color="#22197C"/>
<stop offset="1" stop-opacity="0"/>
</linearGradient>
<clipPath id="clip0">
<rect width="794.12" height="620.74" fill="white"/>
</clipPath>
</defs>
</svg>
