<svg id="Layer_1" data-name="Layer 1" xmlns="http://www.w3.org/2000/svg" xmlns:xlink="http://www.w3.org/1999/xlink" viewBox="0 0 2785.45 1676.85"><defs><style>.cls-1{fill:#000002;}.cls-2{fill:url(#Gradient_bez_nazwy_2);}.cls-3{fill:#2f3190;}.cls-4{fill:url(#Degradado_sin_nombre_3);}.cls-5{fill:url(#Gradient_bez_nazwy_14);}.cls-6{fill:url(#Degradado_sin_nombre_2);}.cls-7{fill:url(#Gradient_bez_nazwy_14-2);}.cls-8{fill:url(#Gradient_bez_nazwy_14-3);}.cls-9{fill:url(#Gradient_bez_nazwy_13);}.cls-10{fill:url(#Gradient_bez_nazwy_13-2);}</style><linearGradient id="Gradient_bez_nazwy_2" x1="360.15" y1="1040.18" x2="623.02" y2="1079.79" gradientUnits="userSpaceOnUse"><stop offset="0" stop-color="#8f1865"/><stop offset="0.02" stop-color="#991e69"/><stop offset="0.09" stop-color="#b42f72"/><stop offset="0.17" stop-color="#ca3d7a"/><stop offset="0.27" stop-color="#db4880"/><stop offset="0.38" stop-color="#e64f84"/><stop offset="0.55" stop-color="#ed5486"/><stop offset="1" stop-color="#ef5587"/></linearGradient><linearGradient id="Degradado_sin_nombre_3" x1="118.02" y1="800.1" x2="963.67" y2="800.1" gradientUnits="userSpaceOnUse"><stop offset="0" stop-color="#d578af"/><stop offset="1" stop-color="#9175b4"/></linearGradient><linearGradient id="Gradient_bez_nazwy_14" x1="539.97" y1="669.44" x2="548.58" y2="1141.03" gradientUnits="userSpaceOnUse"><stop offset="0" stop-color="#af6aaa"/><stop offset="0.26" stop-color="#7c4198"/><stop offset="0.43" stop-color="#6d3693"/><stop offset="0.6" stop-color="#612e90"/><stop offset="0.67" stop-color="#532f90"/><stop offset="0.81" stop-color="#303190"/><stop offset="0.81" stop-color="#2f3190"/><stop offset="1" stop-color="#33308d"/></linearGradient><linearGradient id="Degradado_sin_nombre_2" x1="581.1" y1="508.82" x2="464.42" y2="1053.33" gradientUnits="userSpaceOnUse"><stop offset="0" stop-color="#6f54a2"/><stop offset="1" stop-color="#5f78ba"/></linearGradient><linearGradient id="Gradient_bez_nazwy_14-2" x1="118.02" y1="799.13" x2="963.67" y2="799.13" xlink:href="#Gradient_bez_nazwy_14"/><linearGradient id="Gradient_bez_nazwy_14-3" x1="218.19" y1="531.76" x2="888.04" y2="759.9" xlink:href="#Gradient_bez_nazwy_14"/><linearGradient id="Gradient_bez_nazwy_13" x1="118.11" y1="648.13" x2="963.61" y2="648.13" gradientUnits="userSpaceOnUse"><stop offset="0" stop-color="#2f3190"/><stop offset="1" stop-color="#33308d"/></linearGradient><linearGradient id="Gradient_bez_nazwy_13-2" x1="336.08" y1="1119.88" x2="453.97" y2="612.74" xlink:href="#Gradient_bez_nazwy_13"/></defs><path class="cls-1" d="M1297.19,818.52c-35.14,0-65.79,9.47-90.11,26.18a5.74,5.74,0,0,0-1.3.67c-.9.63-1.68,1.38-2.56,2a131.12,131.12,0,0,0-44.83,59.36A252,252,0,0,0,1141,957.91c-11.55,44.54-54,77-101.16,77-66,0-113.17-51.36-113.17-124.2s46.66-124.16,113.17-124.16a103.68,103.68,0,0,1,89.44,51q7.26-6.6,14.73-13c16.2-13.73,32.29-27.54,45.73-43.85-34-42.77-89.29-69.62-152-69.62-115.26,0-199.11,83.83-199.11,199.62s83.85,199.66,199.11,199.66c89.17,0,162.74-51.79,182.21-125.74,0-.09.06-.18.09-.29a5.07,5.07,0,0,1,.2-.71c0-.31.14-.56.22-1,.37-1.58,6.39-29.47,7.58-29.69.17-1.75.48-3.44.74-5.13L1233,932.1c10.17-27,33.84-44.4,64.22-44.4,41.39,0,70.21,31.44,70.21,75.46s-28.82,75.44-70.21,75.44a70.27,70.27,0,0,1-29.76-6.39c-22.66-12.57-80.81,41-62.38,51,14.71,8,23.13,10,34.54,14.91a170.27,170.27,0,0,0,57.6,9.61c88.56,0,149.33-59.23,149.33-144.62,0-85.95-60.77-144.64-149.33-144.64"/><path class="cls-1" d="M1779.78,818.52c-37.19,0-72.84,18.35-90.14,47.68-15.21-29.33-47.67-47.68-86.44-47.68-32.48,0-61.85,15.23-78.61,42.44V829h-75.46V1097.3h78.59v-153c0-34.06,19.41-56.57,49.25-56.57,29.36,0,48.21,22.51,48.21,56.57v153h78.61v-153c0-33,20.45-56.57,50.83-56.57,29.87,1,49.78,24.63,49.78,56.57v153H1883V928.55c0-64.43-42.46-110-103.23-110"/><path class="cls-1" d="M2181.17,818.52c-54.18,0-98,22.29-123.66,59.42V829h-60.27V800.17c0-19.38,13.63-33,34.06-33a108.47,108.47,0,0,1,26.21,3.66V706.38A169.13,169.13,0,0,0,2005.1,698c-51.87,0-86.44,38.77-86.44,97.46V829h-37.75v59.73h37.75v208.55h78.58V888.73h53.56c-11.83,21.19-18.46,46.29-18.46,74.42,0,85.43,60.78,144.62,148.83,144.62,88.56,0,149.34-59.19,149.34-144.62,0-85.95-60.78-144.63-149.34-144.63m0,220.08c-40.88,0-69.71-31.44-69.71-75.45s28.83-75.46,69.71-75.46c41.39,0,70.18,31.44,70.18,75.46s-28.79,75.45-70.18,75.45"/><path class="cls-1" d="M2604,1002.45V888.73h60.77V829H2604V761.4H2538L2529.36,827c-18.46-3.94-42.13-8-49-8-29.35,0-56.06,17.3-71.78,44V829h-75.47v268.28h78.59V954.77c0-40.34,22.62-70.85,56.6-68.66,28.49,1.86,44.81,16,57.12,26.43v97.77c0,57.11,34.59,97.46,88,97.46a190.25,190.25,0,0,0,54-8.4V1036a111.88,111.88,0,0,1-27.75,4.2c-22,0-35.64-15.22-35.64-37.73"/><path class="cls-1" d="M1217.84,1270.71l23.58,48.06h-10.75l-23-46.71H1176v46.71h-10.15V1217.42h36.72q19.71,0,28.44,6.43t8.72,20.44Q1239.77,1264.75,1217.84,1270.71Zm-41.8-45.82v39.41h24.18q10.3,0,16.72-2,7.9-2.38,10.89-9.1a23,23,0,0,0,1.65-8.8q0-9.72-5.53-14.64-4-3.72-13.58-4.63c-3-.19-5.77-.29-8.36-.29Z"/><path class="cls-1" d="M1419.93,1318.77H1352V1217.42h67.17v7.76h-56.87v35.53h49.41v8.07h-49.41V1311h57.62Z"/><path class="cls-1" d="M1595.91,1233.55l-7.32,5.52a28.44,28.44,0,0,0-11-10.9,31.09,31.09,0,0,0-15.45-3.87q-11.34,0-17.91,4.17a13.62,13.62,0,0,0-6.57,12.24,13,13,0,0,0,4.93,10.3,35.39,35.39,0,0,0,11.64,6c.7.2,2.77.88,6.2,2l6.94,2.31q4.62,1.95,7.61,3.13a74.93,74.93,0,0,1,12.39,6.27,23,23,0,0,1,7.91,8.51,26.2,26.2,0,0,1,2.83,12.39q0,13.44-10.15,21.11t-27.46,7.69a50.59,50.59,0,0,1-19.4-3.73q-10.91-4.47-15.82-12.84a29.51,29.51,0,0,1-4.18-10.89l8.51-3.73q6.12,22.54,31.64,22.53a38.11,38.11,0,0,0,14.62-2.68q7.47-2.82,10.16-9.26a18.45,18.45,0,0,0,1.49-7.91,23.57,23.57,0,0,0-2.24-9.4,11.26,11.26,0,0,0-3.43-3.43,34.74,34.74,0,0,1-3.88-2.69q-1.65-1-11.8-5.08c-1.29-.38-3.83-1.28-7.61-2.68a3.59,3.59,0,0,1-1.49-.45q-6.27-2.24-9.33-3.43t-7.46-3.43a29.63,29.63,0,0,1-6.57-4.25,23.52,23.52,0,0,1-4-5.15,19,19,0,0,1-2.46-7,27,27,0,0,1-.15-3.42q0-12.68,10.44-19.25,9.7-6.12,23.29-6.13Q1585,1216.08,1595.91,1233.55Z"/><path class="cls-1" d="M1720.53,1318.77h-10V1217.42h10Z"/><path class="cls-1" d="M1838.59,1217.42h34.93q21.8,0,32.84,11,11.19,11.34,11.19,39.26,0,36.12-19.25,46-9.55,5.07-25.23,5.07h-34.48Zm10.3,7.92v85.53h20.9q21.35,0,29.7-10t8.21-33.13q0-20.89-7-31.35-7.32-11-27-11Z"/><path class="cls-1" d="M2100.54,1318.77h-67.91V1217.42h67.17v7.76h-56.87v35.53h49.41v8.07h-49.41V1311h57.61Z"/><path class="cls-1" d="M2208.76,1318.77V1217.42h11.34l62.54,86v-86h9v101.35h-9.26L2218,1229.52v89.25Z"/><path class="cls-1" d="M2486.82,1242.5l-9.4,2.09a26.75,26.75,0,0,0-9.48-15.37q-7.09-5.54-18.28-5.52-17,0-24.63,11t-7.62,33.06q0,18.06,4.19,28.35a24.1,24.1,0,0,0,15.22,14.48,43.22,43.22,0,0,0,13,1.8q21.51,0,28.66-19.7l8.66,2.68q-4,12.39-13.88,18.73t-24,6.34q-21.64,0-32-12.68t-10.38-40q0-52.24,43.14-52.24,14,0,23.65,6.94T2486.82,1242.5Z"/><path class="cls-1" d="M2667.42,1318.77h-67.91V1217.42h67.17v7.76h-56.87v35.53h49.41v8.07h-49.41V1311h57.61Z"/><path class="cls-2" d="M605.14,1181.55c-85.4,24.91-171,.25-252.18-52.3-90.32-58.43-135.89-151.46-137-249.16-2.26,101.67,43.34,199.52,137,260.14,81.22,52.55,166.78,77.21,252.18,52.3a30.89,30.89,0,0,1,39.12,23.35c0,.12,0,.23,0,.35a29,29,0,0,0,0-11.33A30.89,30.89,0,0,0,605.14,1181.55Z"/><path class="cls-3" d="M733.19,1184.66a32.1,32.1,0,1,1-32.1-32.09A32.1,32.1,0,0,1,733.19,1184.66Z"/><path class="cls-3" d="M799.81,1144.76a23.46,23.46,0,1,1-23.45-23.46A23.46,23.46,0,0,1,799.81,1144.76Z"/><circle class="cls-3" cx="829.16" cy="1106.18" r="15.13"/><path class="cls-4" d="M605.14,1181.55c-85.4,24.91-171,.25-252.18-52.3-142.67-92.31-173.84-270.93-94.32-417.95,83.82-155,270.42-198.35,421.28-107.64a317.31,317.31,0,0,1,80.45,68.88c32.5,39,83.69,57.1,133,44.83l4.19-1c55.26-13.76,82.57-75.84,55.73-126.06a442.16,442.16,0,0,0-175.16-178c-205.57-114.85-468.68-46.8-593,153.18C54,776.23,121.21,1052.78,333.21,1180.26A441.83,441.83,0,0,0,619.12,1240a29.5,29.5,0,0,0,25.14-35.1h0A30.89,30.89,0,0,0,605.14,1181.55Z"/><path class="cls-5" d="M605.14,1181.55c-85.4,24.91-171,.25-252.18-52.3-142.67-92.31-173.84-270.93-94.32-417.95,83.82-155,270.42-198.35,421.28-107.64a317.31,317.31,0,0,1,80.45,68.88c32.5,39,83.69,57.1,133,44.83l4.19-1c55.26-13.76,82.57-75.84,55.73-126.06a442.16,442.16,0,0,0-175.16-178c-205.57-114.85-468.68-46.8-593,153.18C54,776.23,121.21,1052.78,333.21,1180.26A441.83,441.83,0,0,0,619.12,1240a29.5,29.5,0,0,0,25.14-35.1h0A30.89,30.89,0,0,0,605.14,1181.55Z"/><path class="cls-6" d="M242.85,713.32C334.74,563,529.06,513,679.92,603.66a317.31,317.31,0,0,1,80.45,68.88c32.5,39,83.69,57.1,133,44.83l4.19-1c55.26-13.76,82.57-75.84,55.73-126.06a442.16,442.16,0,0,0-175.16-178c-205.57-114.85-468.68-46.8-593,153.18C54,776.23,121.21,1052.78,333.21,1180.26a441.79,441.79,0,0,0,187.88,61.57C147.68,1174.56,171.64,829.82,242.85,713.32Z"/><path class="cls-7" d="M242.85,713.32C334.74,563,529.06,513,679.92,603.66a317.31,317.31,0,0,1,80.45,68.88c32.5,39,83.69,57.1,133,44.83l4.19-1c55.26-13.76,82.57-75.84,55.73-126.06a442.16,442.16,0,0,0-175.16-178c-205.57-114.85-468.68-46.8-593,153.18C54,776.23,121.21,1052.78,333.21,1180.26a441.79,441.79,0,0,0,187.88,61.57C147.68,1174.56,171.64,829.82,242.85,713.32Z"/><path class="cls-8" d="M450.74,497.36c184.85-6,272.24,100.32,317.64,169.94,27.74,42.53,75.64,62.34,124.91,50.07l4.2-1c55.26-13.76,82.56-75.84,55.72-126.06a442.13,442.13,0,0,0-175.15-178c-205.57-114.85-468.68-46.8-593,153.18a441.89,441.89,0,0,0-66.7,250.19C114.82,632.08,265.85,503.36,450.74,497.36Z"/><path class="cls-9" d="M897.49,699.87l-4.2,1c-49.27,12.26-97.17-7.54-124.91-50.07C723,581.23,635.59,474.91,450.74,480.91S114.82,615.62,118.35,799.13c-.09-2.64-.1-5.29-.14-7.94-.15,8.14-.15,16.28.14,24.4-3.53-183.51,147.5-312.23,332.39-318.23S723,597.68,768.38,667.3c27.74,42.53,75.64,62.34,124.91,50.07l4.2-1c43.5-10.84,69.66-51.62,65.73-93A87.07,87.07,0,0,1,897.49,699.87Z"/><path class="cls-10" d="M242.85,713.32C302.33,616,404.73,560.8,510.48,558.51,400.22,556.4,291.85,612.06,230,713.32,160.44,827.05,136,1158.25,482.3,1236.52q19.33,3.51,38.79,5.31C147.68,1174.56,171.64,829.82,242.85,713.32Z"/></svg>