<?xml version="1.0" encoding="utf-8"?>
<!-- Generator: Adobe Illustrator 24.0.1, SVG Export Plug-In . SVG Version: 6.00 Build 0)  -->
<svg version="1.1" id="Warstwa_1" xmlns="http://www.w3.org/2000/svg" xmlns:xlink="http://www.w3.org/1999/xlink" x="0px" y="0px"
	 viewBox="0 0 1000 595.92" style="enable-background:new 0 0 1000 595.92;" xml:space="preserve">
<style type="text/css">
	.st0{fill:#12100B;}
	.st1{fill:url(#XMLID_2_);}
	.st2{fill:url(#XMLID_3_);}
	.st3{fill:url(#XMLID_4_);}
	.st4{fill:url(#XMLID_5_);}
	.st5{fill:url(#XMLID_6_);}
	.st6{fill:url(#XMLID_7_);}
	.st7{fill:url(#XMLID_8_);}
	.st8{fill:url(#XMLID_9_);}
	.st9{fill:url(#XMLID_10_);}
	.st10{fill:url(#XMLID_11_);}
	.st11{fill:url(#XMLID_12_);}
</style>
<g>
	<g>
		<path class="st0" d="M548.46,327.18c-9.56,0-17.9,2.58-24.52,7.12c-0.12,0.05-0.24,0.1-0.35,0.18c-0.24,0.17-0.46,0.38-0.7,0.55
			c-5.5,4.06-9.68,9.55-12.2,16.15c-3.44,7.42-4.73,13.91-4.73,13.91c-3.14,12.12-14.69,20.96-27.52,20.96
			c-17.96,0-30.8-13.98-30.8-33.8c0-19.82,12.7-33.79,30.8-33.79c10.25,0,19.43,5.5,24.34,13.88c1.32-1.2,2.65-2.38,4.01-3.53
			c4.41-3.74,8.79-7.49,12.44-11.93c-9.26-11.64-24.29-18.94-41.35-18.94c-31.36,0-54.18,22.81-54.18,54.32
			c0,31.51,22.82,54.33,54.18,54.33c24.26,0,44.28-14.09,49.58-34.22c0.01-0.02,0.02-0.05,0.02-0.08c0.01-0.06,0.03-0.13,0.05-0.19
			c0.01-0.09,0.04-0.15,0.06-0.26c0.1-0.43,1.74-8.02,2.06-8.08c0.05-0.48,0.13-0.94,0.2-1.4l1.13-4.29
			c2.77-7.35,9.21-12.08,17.47-12.08c11.26,0,19.1,8.56,19.1,20.53c0,11.97-7.84,20.53-19.1,20.53c-2.97,0-5.68-0.62-8.1-1.74
			c-6.17-3.42-21.99,11.16-16.98,13.89c4,2.18,6.29,2.72,9.4,4.06c4.73,1.69,9.99,2.61,15.67,2.61c24.1,0,40.63-16.12,40.63-39.35
			C589.09,343.15,572.55,327.18,548.46,327.18"/>
		<path class="st0" d="M679.77,327.18c-10.12,0-19.82,4.99-24.53,12.97c-4.14-7.98-12.97-12.97-23.52-12.97
			c-8.84,0-16.83,4.14-21.39,11.55v-8.69H589.8v73h21.38V361.4c0-9.27,5.28-15.39,13.4-15.39c7.99,0,13.12,6.13,13.12,15.39v41.64
			h21.39V361.4c0-8.98,5.57-15.39,13.83-15.39c8.13,0.28,13.55,6.7,13.55,15.39v41.64h21.39v-45.92
			C707.86,339.59,696.31,327.18,679.77,327.18"/>
		<path class="st0" d="M789,327.18c-14.74,0-26.66,6.07-33.65,16.17v-13.32h-16.4v-7.84c0-5.27,3.71-8.98,9.27-8.98
			c2.42,0,4.85,0.42,7.13,1v-17.54c-4.29-1.43-9.27-2.28-14.26-2.28c-14.11,0-23.52,10.55-23.52,26.52v9.12h-10.27v16.25h10.27
			v56.75h21.38v-56.75h14.57c-3.22,5.77-5.02,12.6-5.02,20.25c0,23.25,16.54,39.35,40.5,39.35c24.1,0,40.63-16.11,40.63-39.35
			C829.63,343.15,813.09,327.18,789,327.18 M789,387.07c-11.12,0-18.97-8.56-18.97-20.53c0-11.98,7.84-20.53,18.97-20.53
			c11.26,0,19.1,8.56,19.1,20.53C808.09,378.51,800.26,387.07,789,387.07"/>
		<path class="st0" d="M904.06,377.23v-30.94h16.54v-16.25h-16.54v-18.39h-17.97l-2.35,17.86c-5.02-1.07-11.46-2.17-13.33-2.17
			c-7.99,0-15.26,4.71-19.53,11.97v-9.27h-20.53v73h21.38v-38.78c0-10.98,6.16-19.28,15.4-18.68c7.75,0.51,12.19,4.36,15.54,7.19
			v26.6c0,15.54,9.41,26.52,23.95,26.52c4.56,0,10.27-0.86,14.69-2.29v-17.25c-2.42,0.71-5.57,1.14-7.55,1.14
			C907.76,387.5,904.06,383.36,904.06,377.23"/>
	</g>
	<g>
		<path class="st0" d="M526.86,450.23l6.42,13.08h-2.93l-6.26-12.71h-8.61v12.71h-2.76v-27.58h9.99c3.57,0,6.15,0.59,7.74,1.75
			c1.58,1.16,2.37,3.02,2.37,5.56C532.83,446.75,530.84,449.15,526.86,450.23z M515.49,437.76v10.72h6.58
			c1.87,0,3.38-0.18,4.55-0.53c1.43-0.43,2.42-1.26,2.96-2.48c0.3-0.73,0.45-1.53,0.45-2.4c0-1.76-0.5-3.09-1.5-3.98
			c-0.73-0.67-1.96-1.09-3.7-1.26c-0.81-0.05-1.57-0.08-2.27-0.08H515.49z"/>
		<path class="st0" d="M581.85,463.3h-18.48v-27.58h18.28v2.11h-15.47v9.67h13.44v2.19h-13.44v11.49h15.68V463.3z"/>
		<path class="st0" d="M629.74,440.12l-1.99,1.5c-0.73-1.27-1.73-2.26-2.98-2.96s-2.66-1.05-4.2-1.05c-2.06,0-3.68,0.38-4.87,1.14
			s-1.79,1.87-1.79,3.33c0,1.11,0.45,2.05,1.34,2.8c0.78,0.65,1.84,1.19,3.17,1.63c0.19,0.05,0.75,0.24,1.69,0.55
			c0.93,0.31,1.56,0.52,1.89,0.63c0.84,0.35,1.53,0.64,2.07,0.85c1.33,0.54,2.45,1.11,3.37,1.71c0.95,0.62,1.66,1.39,2.15,2.32
			c0.51,0.98,0.77,2.1,0.77,3.37c0,2.44-0.92,4.35-2.76,5.74c-1.84,1.39-4.33,2.09-7.47,2.09c-1.87,0-3.63-0.34-5.28-1.01
			c-1.98-0.81-3.41-1.98-4.31-3.49c-0.57-0.89-0.95-1.88-1.14-2.96l2.32-1.01c1.11,4.09,3.98,6.13,8.61,6.13
			c1.46,0,2.79-0.24,3.98-0.73c1.36-0.51,2.28-1.35,2.76-2.52c0.27-0.57,0.4-1.29,0.4-2.15c0-0.78-0.2-1.64-0.61-2.56
			c-0.16-0.3-0.47-0.61-0.93-0.94c-0.52-0.32-0.87-0.57-1.06-0.73c-0.3-0.19-1.37-0.65-3.21-1.38c-0.35-0.11-1.04-0.35-2.07-0.73
			c-0.19-0.03-0.33-0.07-0.41-0.12c-1.14-0.41-1.98-0.72-2.54-0.93c-0.56-0.22-1.23-0.53-2.03-0.94c-0.8-0.41-1.39-0.79-1.79-1.16
			c-0.39-0.37-0.76-0.83-1.1-1.4c-0.34-0.57-0.56-1.2-0.67-1.91c-0.03-0.19-0.04-0.5-0.04-0.93c0-2.3,0.95-4.05,2.84-5.24
			c1.76-1.11,3.87-1.67,6.34-1.67C624.58,435.36,627.76,436.95,629.74,440.12z"/>
		<path class="st0" d="M663.65,463.3h-2.72v-27.58h2.72V463.3z"/>
		<path class="st0" d="M695.78,435.73h9.5c3.95,0,6.93,1,8.94,3.01c2.03,2.06,3.05,5.62,3.05,10.68c0,6.55-1.75,10.72-5.24,12.51
			c-1.73,0.92-4.02,1.38-6.86,1.38h-9.38V435.73z M698.58,437.88v23.27h5.69c3.87,0,6.56-0.91,8.08-2.72
			c1.49-1.84,2.23-4.85,2.23-9.01c0-3.79-0.64-6.63-1.91-8.53c-1.33-2-3.78-3-7.35-3H698.58z"/>
		<path class="st0" d="M767.06,463.3h-18.48v-27.58h18.28v2.11h-15.47v9.67h13.44v2.19h-13.44v11.49h15.68V463.3z"/>
		<path class="st0" d="M796.5,463.3v-27.58h3.09l17.02,23.39v-7.39v-16h2.44v27.58h-2.52l-17.5-24.29v7.8v16.49H796.5z"/>
		<path class="st0" d="M872.17,442.55l-2.56,0.57c-0.43-1.79-1.29-3.18-2.58-4.18c-1.29-1-2.94-1.5-4.97-1.5
			c-3.09,0-5.32,0.99-6.7,2.98c-1.38,1.99-2.07,4.99-2.07,9c0,3.28,0.38,5.85,1.14,7.71c0.81,1.98,2.19,3.29,4.14,3.94
			c1.03,0.32,2.21,0.49,3.53,0.49c3.9,0,6.5-1.79,7.8-5.36l2.35,0.73c-0.73,2.25-1.99,3.95-3.78,5.1c-1.79,1.15-3.97,1.73-6.54,1.73
			c-3.93,0-6.83-1.15-8.71-3.45c-1.88-2.3-2.82-5.93-2.82-10.88c0-9.48,3.91-14.22,11.74-14.22c2.55,0,4.69,0.63,6.44,1.89
			C870.32,438.35,871.52,440.17,872.17,442.55z"/>
		<path class="st0" d="M921.31,463.3h-18.48v-27.58h18.28v2.11h-15.47v9.67h13.44v2.19h-13.44v11.49h15.68V463.3z"/>
	</g>
	<g id="XMLID_85_">
		<linearGradient id="XMLID_2_" gradientUnits="userSpaceOnUse" x1="198.3545" y1="416.6105" x2="328.2663" y2="436.1862">
			<stop  offset="0" style="stop-color:#95005C"/>
			<stop  offset="0.0412" style="stop-color:#A90E63"/>
			<stop  offset="0.11" style="stop-color:#C4206D"/>
			<stop  offset="0.1889" style="stop-color:#DA2F75"/>
			<stop  offset="0.2813" style="stop-color:#EB3B7B"/>
			<stop  offset="0.3954" style="stop-color:#F6437F"/>
			<stop  offset="0.5555" style="stop-color:#FD4881"/>
			<stop  offset="1" style="stop-color:#FF4982"/>
		</linearGradient>
		<path id="XMLID_86_" class="st1" d="M319.43,486.47c-42.2,12.31-84.49,0.12-124.63-25.85c-44.64-28.88-67.16-74.86-67.73-123.14
			c-1.11,50.25,21.42,98.61,67.73,128.57c40.14,25.97,82.43,38.16,124.63,25.85c8.62-2.51,17.55,2.74,19.34,11.54
			c0.01,0.06,0.01,0.12,0.03,0.18c0.34-1.8,0.36-3.69-0.03-5.6C336.98,489.22,328.05,483.96,319.43,486.47z"/>
	</g>
	<linearGradient id="XMLID_3_" gradientUnits="userSpaceOnUse" x1="350.9928" y1="488.0116" x2="382.7138" y2="488.0116">
		<stop  offset="0" style="stop-color:#2C005E"/>
		<stop  offset="1" style="stop-color:#2C005E"/>
	</linearGradient>
	<path id="XMLID_84_" class="st2" d="M382.71,488.01c0,8.76-7.1,15.86-15.86,15.86s-15.86-7.1-15.86-15.86s7.1-15.86,15.86-15.86
		S382.71,479.25,382.71,488.01z"/>
	<linearGradient id="XMLID_4_" gradientUnits="userSpaceOnUse" x1="392.4561" y1="468.2924" x2="415.6416" y2="468.2924">
		<stop  offset="0" style="stop-color:#2C005E"/>
		<stop  offset="1" style="stop-color:#2C005E"/>
	</linearGradient>
	<path id="XMLID_83_" class="st3" d="M415.64,468.29c0,6.4-5.19,11.59-11.59,11.59c-6.4,0-11.59-5.19-11.59-11.59
		c0-6.4,5.19-11.59,11.59-11.59C410.45,456.7,415.64,461.89,415.64,468.29z"/>
	<linearGradient id="XMLID_5_" gradientUnits="userSpaceOnUse" x1="422.6684" y1="449.224" x2="437.6197" y2="449.224">
		<stop  offset="0" style="stop-color:#2C005E"/>
		<stop  offset="1" style="stop-color:#2C005E"/>
	</linearGradient>
	<circle id="XMLID_82_" class="st4" cx="430.14" cy="449.22" r="7.48"/>
	<linearGradient id="XMLID_6_" gradientUnits="userSpaceOnUse" x1="78.6935" y1="297.9577" x2="496.6194" y2="297.9577">
		<stop  offset="0" style="stop-color:#FA71CD"/>
		<stop  offset="1" style="stop-color:#C471F5"/>
	</linearGradient>
	<path id="XMLID_81_" class="st5" d="M319.43,486.47c-42.2,12.31-84.49,0.12-124.63-25.85c-70.51-45.62-85.91-133.9-46.61-206.56
		c41.43-76.59,133.64-98.03,208.2-53.19c15.5,9.32,28.8,20.89,39.76,34.04c16.06,19.28,41.36,28.22,65.71,22.16l2.07-0.52
		c27.31-6.8,40.81-37.48,27.54-62.3c-19.09-35.72-48.34-66.64-86.56-87.99c-101.6-56.76-231.63-23.13-293.07,75.7
		c-64.78,104.19-31.56,240.87,73.21,303.87c44.15,26.55,93.9,35.72,141.3,29.53c8.39-1.1,14.11-9.06,12.43-17.35l0,0
		C336.98,489.22,328.05,483.96,319.43,486.47z"/>
	<linearGradient id="XMLID_7_" gradientUnits="userSpaceOnUse" x1="287.2264" y1="233.3844" x2="291.4793" y2="466.4505">
		<stop  offset="0" style="stop-color:#D575E0"/>
		<stop  offset="0.2671" style="stop-color:#9746B7"/>
		<stop  offset="0.3656" style="stop-color:#7F37B2"/>
		<stop  offset="0.5165" style="stop-color:#6123AC"/>
		<stop  offset="0.601" style="stop-color:#551CAA"/>
		<stop  offset="0.7515" style="stop-color:#4714A4"/>
		<stop  offset="0.8156" style="stop-color:#4010A1"/>
		<stop  offset="0.8666" style="stop-color:#3C0D93"/>
		<stop  offset="0.9626" style="stop-color:#31046E"/>
		<stop  offset="1" style="stop-color:#2C005E"/>
	</linearGradient>
	<path id="XMLID_80_" class="st6" d="M319.43,486.47c-42.2,12.31-84.49,0.12-124.63-25.85c-70.51-45.62-85.91-133.9-46.61-206.56
		c41.43-76.59,133.64-98.03,208.2-53.19c15.5,9.32,28.8,20.89,39.76,34.04c16.06,19.28,41.36,28.22,65.71,22.16l2.07-0.52
		c27.31-6.8,40.81-37.48,27.54-62.3c-19.09-35.72-48.34-66.64-86.56-87.99c-101.6-56.76-231.63-23.13-293.07,75.7
		c-64.78,104.19-31.56,240.87,73.21,303.87c44.15,26.55,93.9,35.72,141.3,29.53c8.39-1.1,14.11-9.06,12.43-17.35l0,0
		C336.98,489.22,328.05,483.96,319.43,486.47z"/>
	<linearGradient id="XMLID_8_" gradientUnits="userSpaceOnUse" x1="307.5517" y1="154.0059" x2="249.8866" y2="423.1089">
		<stop  offset="0" style="stop-color:#764BA2"/>
		<stop  offset="1" style="stop-color:#667EEA"/>
	</linearGradient>
	<path id="XMLID_79_" class="st7" d="M140.38,255.07c45.41-74.29,141.45-99.03,216.01-54.19c15.5,9.32,28.8,20.89,39.76,34.04
		c16.06,19.28,41.36,28.22,65.71,22.16l2.07-0.52c27.31-6.8,40.81-37.48,27.54-62.3c-19.09-35.72-48.34-66.64-86.56-87.99
		c-101.6-56.76-231.63-23.13-293.07,75.7c-64.78,104.19-31.56,240.87,73.21,303.87c29.26,17.6,60.98,27.51,92.85,30.43
		C93.35,483.02,105.19,312.64,140.38,255.07z"/>
	<linearGradient id="XMLID_9_" gradientUnits="userSpaceOnUse" x1="78.6935" y1="297.4803" x2="496.6194" y2="297.4803">
		<stop  offset="0" style="stop-color:#D575E0"/>
		<stop  offset="0.2671" style="stop-color:#9746B7"/>
		<stop  offset="0.3656" style="stop-color:#7F37B2"/>
		<stop  offset="0.5165" style="stop-color:#6123AC"/>
		<stop  offset="0.601" style="stop-color:#551CAA"/>
		<stop  offset="0.7515" style="stop-color:#4714A4"/>
		<stop  offset="0.8156" style="stop-color:#4010A1"/>
		<stop  offset="0.8666" style="stop-color:#3C0D93"/>
		<stop  offset="0.9626" style="stop-color:#31046E"/>
		<stop  offset="1" style="stop-color:#2C005E"/>
	</linearGradient>
	<path id="XMLID_78_" class="st8" d="M140.38,255.07c45.41-74.29,141.45-99.03,216.01-54.19c15.5,9.32,28.8,20.89,39.76,34.04
		c16.06,19.28,41.36,28.22,65.71,22.16l2.07-0.52c27.31-6.8,40.81-37.48,27.54-62.3c-19.09-35.72-48.34-66.64-86.56-87.99
		c-101.6-56.76-231.63-23.13-293.07,75.7c-64.78,104.19-31.56,240.87,73.21,303.87c29.26,17.6,60.98,27.51,92.85,30.43
		C93.35,483.02,105.19,312.64,140.38,255.07z"/>
	<linearGradient id="XMLID_10_" gradientUnits="userSpaceOnUse" x1="78.7105" y1="192.1541" x2="496.6025" y2="192.1541">
		<stop  offset="0" style="stop-color:#D575E0"/>
		<stop  offset="0.2671" style="stop-color:#9746B7"/>
		<stop  offset="0.3656" style="stop-color:#7F37B2"/>
		<stop  offset="0.5165" style="stop-color:#6123AC"/>
		<stop  offset="0.601" style="stop-color:#551CAA"/>
		<stop  offset="0.7515" style="stop-color:#4714A4"/>
		<stop  offset="0.8156" style="stop-color:#4010A1"/>
		<stop  offset="0.8666" style="stop-color:#3C0D93"/>
		<stop  offset="0.9626" style="stop-color:#31046E"/>
		<stop  offset="1" style="stop-color:#2C005E"/>
	</linearGradient>
	<path id="XMLID_77_" class="st9" d="M243.13,148.34c91.35-2.96,134.55,49.58,156.98,83.98c13.71,21.02,37.38,30.81,61.73,24.75
		l2.07-0.52c27.31-6.8,40.81-37.48,27.54-62.3c-19.09-35.72-48.34-66.64-86.56-87.99c-101.6-56.76-231.63-23.13-293.07,75.7
		c-23.97,38.56-34.49,81.57-32.96,123.65C77.11,214.92,151.75,151.31,243.13,148.34z"/>
	<linearGradient id="XMLID_11_" gradientUnits="userSpaceOnUse" x1="78.7348" y1="222.8513" x2="496.5915" y2="222.8513">
		<stop  offset="0" style="stop-color:#4010A1"/>
		<stop  offset="0.2763" style="stop-color:#3C0D93"/>
		<stop  offset="0.7971" style="stop-color:#31046E"/>
		<stop  offset="1" style="stop-color:#2C005E"/>
	</linearGradient>
	<path id="XMLID_76_" class="st10" d="M463.91,248.42l-2.07,0.52c-24.35,6.06-48.02-3.73-61.73-24.75
		c-22.44-34.41-65.63-86.95-156.98-83.98c-91.37,2.96-166.01,66.58-164.27,157.27c-0.05-1.31-0.05-2.62-0.07-3.92
		c-0.07,4.02-0.07,8.04,0.07,12.06c-1.74-90.69,72.9-154.31,164.27-157.27c91.35-2.96,134.55,49.58,156.98,83.98
		c13.71,21.02,37.38,30.81,61.73,24.75l2.07-0.52c21.5-5.35,34.43-25.51,32.49-45.95C494.74,228.03,482.55,243.79,463.91,248.42z"/>
	<g id="XMLID_74_">
		<linearGradient id="XMLID_12_" gradientUnits="userSpaceOnUse" x1="186.4616" y1="455.9984" x2="244.7234" y2="205.3617">
			<stop  offset="0" style="stop-color:#D575E0"/>
			<stop  offset="0.2671" style="stop-color:#9746B7"/>
			<stop  offset="0.3656" style="stop-color:#7F37B2"/>
			<stop  offset="0.5165" style="stop-color:#6123AC"/>
			<stop  offset="0.601" style="stop-color:#551CAA"/>
			<stop  offset="0.7515" style="stop-color:#4714A4"/>
			<stop  offset="0.8156" style="stop-color:#4010A1"/>
			<stop  offset="0.8666" style="stop-color:#3C0D93"/>
			<stop  offset="0.9626" style="stop-color:#31046E"/>
			<stop  offset="1" style="stop-color:#2C005E"/>
		</linearGradient>
		<path id="XMLID_75_" class="st11" d="M140.38,255.07c29.4-48.09,80-75.38,132.26-76.51c-54.49-1.04-108.05,26.47-138.64,76.51
			c-34.36,56.21-46.42,219.89,124.71,258.57c6.37,1.16,12.77,2.04,19.17,2.62C93.35,483.02,105.19,312.64,140.38,255.07z"/>
	</g>
</g>
</svg>
