<svg xmlns="http://www.w3.org/2000/svg" viewBox="0 0 855.85 65.68"><defs><style>.cls-1{fill:#2c2d70;}.cls-2{fill:#cfa75f;}</style></defs><g id="Warstwa_2" data-name="Warstwa 2"><g id="Warstwa_1-2" data-name="Warstwa 1"><path class="cls-1" d="M60.48,6.72h11.6c7.27,0,12.16,4.28,12.16,11,0,6.47-4.34,8.92-5.07,9.22.73.19,7.39,2.51,7.39,10.94,0,6.84-4.7,11.61-13,11.61H60.48ZM72.63,26c5.81,0,8.31-3.67,8.31-8.31s-3.3-8.07-9.16-8.07H63.65V26Zm.68,20.52c7.51,0,10-4.46,10-8.67S80.76,29,74.16,29H63.65V46.55Z"/><path class="cls-1" d="M125.18,6.72h3.54l17.05,42.77h-3.42L137.46,37h-21l-4.88,12.47h-3.43Zm-7.51,27.37h18.57L127,10.26Z"/><path class="cls-2" d="M173.69,6.72,200,44V6.72h3.17V49.49H200L173.69,12.1V49.49h-3.17V6.72Z"/><path class="cls-2" d="M233.39,6.72h3.18V49.49h-3.18Z"/><path class="cls-1" d="M270,6.72,296.26,44V6.72h3.18V49.49h-3.18L270,12.1V49.49h-3.18V6.72Z"/><path class="cls-1" d="M326.14,28.1c0-12.34,9-22.11,21.14-22.11s21.14,9.77,21.14,22.11-8.92,22.12-21.14,22.12S326.14,40.44,326.14,28.1Zm3.3,0c0,10.51,7.15,19,17.84,19s17.84-8.49,17.84-19-7.15-19-17.84-19S329.44,17.59,329.44,28.1Z"/><path class="cls-1" d="M465,26.09h19.06V29H465V46.55h20.89v2.94H461.82V6.72h23.71V9.65H465Z"/><path class="cls-1" d="M524.45,29.14C518.16,26.39,513,23.09,513,16.62,513,11.79,516.87,6,524.88,6a14.58,14.58,0,0,1,11.6,6.17L534,14.05a11.26,11.26,0,0,0-9.1-5c-5.38,0-8.8,3.24-8.8,7.52,0,5.25,4.83,7.57,10.94,10.26,6.53,2.87,10.2,6.17,10.2,11.91,0,6.91-5.62,11.43-12.77,11.43-9.41,0-13.26-8.74-13.26-8.74l2.87-1.71s2.81,7.33,10.39,7.33c5.31,0,9.59-3.17,9.59-8.31C534.1,33.48,529.46,31.34,524.45,29.14Z"/><path class="cls-1" d="M565.57,6.72h3.18V49.49h-3.18Z"/><path class="cls-1" d="M610.66,6.72c12.34,0,21.14,9,21.14,21.38S623,49.49,610.66,49.49H599V6.72Zm-.61,39.83c11.24,0,18.45-7.39,18.45-18.45S621.29,9.65,610.05,9.65h-7.88v36.9Z"/><path class="cls-1" d="M661.68,26.09h19.06V29H661.68V46.55h20.89v2.94H658.5V6.72h23.71V9.65H661.68Z"/><path class="cls-1" d="M713.19,6.72,739.46,44V6.72h3.18V49.49h-3.18L713.19,12.1V49.49H710V6.72Z"/><path class="cls-1" d="M804.1,40.93l2.2,2.2a20.64,20.64,0,0,1-15.82,7.09c-12.34,0-21.14-9.78-21.14-22.12S778.14,6,790.48,6a20.34,20.34,0,0,1,15.21,6.53l-2.26,2.08a17.19,17.19,0,0,0-12.95-5.5c-10.63,0-17.84,8.49-17.84,19s7.21,19,17.84,19A17.63,17.63,0,0,0,804.1,40.93Z"/><path class="cls-1" d="M835,26.09H854V29H835V46.55h20.89v2.94H831.78V6.72h23.71V9.65H835Z"/><path class="cls-1" d="M423.51,30.73c3-.31,11.06-2.69,11.06-11.91,0-7-5.07-12.1-13.87-12.1h-7.15V9.77h7.33c6.36,0,10.39,3.43,10.39,9.05s-4,9-10.39,9h-7.33v3.05h6.36l12,18.58h3.85Z"/><rect class="cls-2" x="229.02" y="6.72" width="4.37" height="2.61"/><path class="cls-2" d="M10.59,47.32l0,0Z"/><path class="cls-2" d="M7.65,40.11a34.81,34.81,0,0,1,2.48-16.85A21.14,21.14,0,0,0,8.61,44a15.53,15.53,0,0,1-.54-1.57A11.61,11.61,0,0,1,7.65,40.11Z"/><path class="cls-1" d="M7.85,24.11a13.4,13.4,0,0,0,.44-2.33C8.17,22.58,8,23.36,7.85,24.11Z"/><path class="cls-2" d="M8.18,12.37c0,.06,0,.11,0,.17S8.19,12.48,8.18,12.37Z"/><path class="cls-2" d="M8.17,12.23v.14S8.17,12.28,8.17,12.23Z"/><polygon class="cls-2" points="4.44 0 4.44 0 4.44 0 4.44 0"/><path class="cls-2" d="M9,23.62s.52-6.44-.39-10.08C8.57,13.54,10.15,19.68,9,23.62Z"/><path class="cls-1" d="M27.1,26.35A20.56,20.56,0,0,0,25,21.91a36.38,36.38,0,0,0-5.91-7h0C13.28,8.68,1.77.46.8.09A.94.94,0,0,0,.44,0,15,15,0,0,1,2.19,1.83,17.51,17.51,0,0,0,0,.68C4.66,11,4.7,18.28,4.29,21.78a13.4,13.4,0,0,1-.44,2.33c-.22.64-.4,1.33-.57,2a24.18,24.18,0,0,0-.79,3.15A24.78,24.78,0,0,0,2,40.43S2.88,45,5.64,47.51a14.64,14.64,0,0,0,1.55,1.06A7.11,7.11,0,0,1,8,49a5.63,5.63,0,0,0,.9.31,7.17,7.17,0,0,0,.9.18c.3,0,.61.07.91.08a14,14,0,0,0,1.83,0,15.44,15.44,0,0,0,1.81-.24h0v.05l-1.06,4.17c-.08.35-.18.7-.25,1a7.51,7.51,0,0,0-.15,1.06A10.85,10.85,0,0,0,13,57.76a18.42,18.42,0,0,0,1.12,4.13c.26.66.55,1.32.87,2s.63,1.24,1,1.83h1a10.38,10.38,0,0,1-1.18-1.9c-.18-.38-.34-.77-.49-1.16L15,62l-.17-.6,0-.15,0-.16-.06-.3a4.48,4.48,0,0,1-.11-.62l-.08-.62c0-.21,0-.42,0-.63l0-.31c0-.1,0-.21,0-.31v-.63c0-.21,0-.41.06-.62a6.18,6.18,0,0,1,.07-.62,10.6,10.6,0,0,1,1.85-4.62A11.38,11.38,0,0,1,18.14,50a10.6,10.6,0,0,1,2.05-1.46,5.42,5.42,0,0,0,1-.65,11.86,11.86,0,0,0,.93-.8,14.27,14.27,0,0,0,1.59-1.87A19.54,19.54,0,0,0,26,40.85a31.72,31.72,0,0,0,1.82-9.66A14,14,0,0,0,27.1,26.35ZM20,34.72c0,.24,0,.49,0,.73s0,.49,0,.74c-.05.48-.08,1-.14,1.46a39.5,39.5,0,0,1-3.11,11.26c.16-.46.33-.91.49-1.37s.31-.93.45-1.39.29-.93.41-1.4l.19-.71c.06-.23.11-.47.17-.7.24-1,.42-1.9.59-2.85.11-.66.21-1.33.29-2C20.29,26.69,13.11,15.42,9,10L8.15,9,6.43,6.9V6.84A22.72,22.72,0,0,1,8.58,8.6l.19.18c.65.6,1.28,1.23,1.89,1.87s1.31,1.46,1.92,2.23q.38.48.75,1a18.39,18.39,0,0,1,1.94,2.91q.57,1,1.08,1.95h0v0c.28.54.54,1.09.79,1.64.4.9.76,1.81,1.08,2.74.24.68.45,1.36.64,2.05h0c.07.25.13.51.2.77A32.49,32.49,0,0,1,20,31.77C20,32.75,20,33.74,20,34.72Z"/></g></g></svg>