<svg id="Layer_1" data-name="Layer 1" xmlns="http://www.w3.org/2000/svg" viewBox="0 0 500 263"><defs><style>.cls-1{fill:#fff;}</style></defs><path class="cls-1" d="M231.43,127.62a30.64,30.64,0,0,0-17.52,5.09,1.49,1.49,0,0,0-.25.13c-.17.12-.32.27-.5.39a25.51,25.51,0,0,0-8.71,11.54,48.82,48.82,0,0,0-3.38,9.93,20.43,20.43,0,0,1-19.65,15c-12.83,0-22-10-22-24.14s9.07-24.13,22-24.13a20.13,20.13,0,0,1,17.38,9.91c.94-.86,1.89-1.7,2.87-2.52a68.85,68.85,0,0,0,8.88-8.52C203.94,112,193.2,106.74,181,106.74c-22.4,0-38.7,16.29-38.7,38.8s16.3,38.8,38.7,38.8c17.32,0,31.62-10.06,35.41-24.44a.13.13,0,0,0,0-.06s0-.09,0-.13,0-.11,0-.19c.07-.31,1.24-5.73,1.47-5.77,0-.34.1-.67.15-1l.8-3.06a13,13,0,0,1,12.48-8.63c8,0,13.64,6.11,13.64,14.66s-5.6,14.66-13.64,14.66a13.68,13.68,0,0,1-5.79-1.24c-4.4-2.44-15.7,8-12.12,9.92a58.85,58.85,0,0,0,6.71,2.9,33.12,33.12,0,0,0,11.19,1.86c17.21,0,29-11.51,29-28.1s-11.79-28.1-29-28.1"/><path class="cls-1" d="M325.22,127.62c-7.23,0-14.16,3.57-17.52,9.27-3-5.7-9.27-9.27-16.8-9.27a17.6,17.6,0,0,0-15.28,8.25v-6.2H261V181.8h15.27V152.06c0-6.62,3.77-11,9.57-11s9.37,4.38,9.37,11V181.8h15.28V152.06c0-6.41,4-11,9.87-11,5.81.2,9.68,4.79,9.68,11V181.8h15.28V149c0-12.52-8.25-21.39-20.06-21.39"/><path class="cls-1" d="M403.22,127.62c-10.53,0-19,4.34-24,11.55v-9.51H367.48v-5.6c0-3.76,2.64-6.41,6.62-6.41a21.12,21.12,0,0,1,5.09.71V105.83A32.87,32.87,0,0,0,369,104.21c-10.07,0-16.79,7.53-16.79,18.94v6.51h-7.34v11.61h7.34V181.8h15.27V141.27h10.4a29.37,29.37,0,0,0-3.58,14.46c0,16.6,11.81,28.1,28.92,28.1s29-11.5,29-28.1-11.81-28.11-29-28.11m0,42.78c-7.94,0-13.55-6.12-13.55-14.66s5.6-14.67,13.55-14.67,13.64,6.12,13.64,14.67-5.59,14.66-13.64,14.66"/><path class="cls-1" d="M485.4,163.37v-22.1h11.82v-11.6H485.4V116.53H472.57l-1.68,12.76a75,75,0,0,0-9.52-1.55c-5.71,0-10.9,3.36-13.95,8.55v-6.62H432.76V181.8H448V154.11c0-7.85,4.4-13.77,11-13.34,5.53.36,8.7,3.11,11.1,5.13v19c0,11.1,6.72,18.94,17.1,18.94a36.86,36.86,0,0,0,10.49-1.64V169.88a21.61,21.61,0,0,1-5.39.82c-4.28,0-6.93-2.95-6.93-7.33"/><path class="cls-1" d="M216,215.51l4.58,9.34H218.5L214,215.77h-6.15v9.08h-2v-19.7H213c2.55,0,4.4.42,5.53,1.25a4.6,4.6,0,0,1,1.69,4C220.27,213,218.85,214.74,216,215.51Zm-8.12-8.91v7.66h4.7a11.62,11.62,0,0,0,3.25-.38,3.19,3.19,0,0,0,2.11-1.77,4.58,4.58,0,0,0,.32-1.72,3.64,3.64,0,0,0-1.07-2.84,4.53,4.53,0,0,0-2.64-.9q-.87-.06-1.62-.06h-5.05Z"/><path class="cls-1" d="M255.28,224.85h-13.2v-19.7h13.06v1.51h-11v6.9h9.6v1.57h-9.6v8.2h11.2v1.52Z"/><path class="cls-1" d="M289.48,208.29l-1.42,1.07a5.49,5.49,0,0,0-2.13-2.12,6.06,6.06,0,0,0-3-.75,6.33,6.33,0,0,0-3.48.82,2.64,2.64,0,0,0-1.28,2.38,2.52,2.52,0,0,0,1,2,6.92,6.92,0,0,0,2.26,1.16l1.21.39,1.35.45,1.47.61a14.56,14.56,0,0,1,2.41,1.22,4.36,4.36,0,0,1,1.54,1.66,5.18,5.18,0,0,1,.55,2.4,4.85,4.85,0,0,1-2,4.1,8.64,8.64,0,0,1-5.34,1.5,10.12,10.12,0,0,1-3.77-.72,6.15,6.15,0,0,1-3.08-2.5,5.52,5.52,0,0,1-.81-2.11l1.65-.72q1.2,4.38,6.15,4.38a7.42,7.42,0,0,0,2.85-.53,3.21,3.21,0,0,0,2-1.8,3.61,3.61,0,0,0,.28-1.53,4.57,4.57,0,0,0-.43-1.83,2.33,2.33,0,0,0-.67-.67,6.94,6.94,0,0,1-.75-.52,21.42,21.42,0,0,0-2.3-1c-.25-.08-.74-.25-1.47-.52a1,1,0,0,1-.3-.08l-1.81-.67c-.4-.16-.88-.38-1.45-.67a5.67,5.67,0,0,1-1.28-.83,4.65,4.65,0,0,1-.79-1,3.67,3.67,0,0,1-.47-1.36,3.86,3.86,0,0,1,0-.67,4.15,4.15,0,0,1,2-3.74,8.3,8.3,0,0,1,4.52-1.19Q287.37,204.88,289.48,208.29Z"/><path class="cls-1" d="M313.7,224.85h-1.94v-19.7h1.94Z"/><path class="cls-1" d="M336.65,205.15h6.79c2.82,0,4.94.72,6.38,2.15s2.18,4,2.18,7.63q0,7-3.74,8.93a10.45,10.45,0,0,1-4.9,1h-6.7v-19.7Zm2,1.54v16.62h4.06q4.16,0,5.77-1.95c1.07-1.31,1.6-3.46,1.6-6.43a11,11,0,0,0-1.37-6.09q-1.43-2.15-5.25-2.15Z"/><path class="cls-1" d="M387.55,224.85h-13.2v-19.7h13.06v1.51H376.36v6.9H386v1.57h-9.6v8.2h11.2v1.52Z"/><path class="cls-1" d="M408.58,224.85v-19.7h2.21L423,221.86V205.15h1.74v19.7h-1.8l-12.5-17.35v17.35Z"/><path class="cls-1" d="M462.62,210l-1.83.41a5.15,5.15,0,0,0-1.84-3,5.64,5.64,0,0,0-3.55-1.07,5.39,5.39,0,0,0-4.78,2.13q-1.49,2.13-1.48,6.43a15,15,0,0,0,.81,5.5,4.7,4.7,0,0,0,3,2.82,8.43,8.43,0,0,0,2.52.35,5.43,5.43,0,0,0,5.57-3.83l1.68.52a6.53,6.53,0,0,1-2.7,3.64,8.41,8.41,0,0,1-4.67,1.24q-4.21,0-6.22-2.46t-2-7.77q0-10.17,8.39-10.16a7.66,7.66,0,0,1,4.6,1.35A6.74,6.74,0,0,1,462.62,210Z"/><path class="cls-1" d="M497.72,224.85H484.53v-19.7h13.05v1.51H486.53v6.9h9.6v1.57h-9.6v8.2h11.2v1.52Z"/><path class="cls-1" d="M96.94,198.18c-16.6,4.84-33.23,0-49-10.16a57.5,57.5,0,0,1-26.64-48.43c-.43,19.77,8.43,38.78,26.64,50.56,15.78,10.22,32.41,15,49,10.17a6,6,0,0,1,7.6,4.53.15.15,0,0,1,0,.07,5.82,5.82,0,0,0,0-2.2A6,6,0,0,0,96.94,198.18Z"/><path class="cls-1" d="M121.82,198.78a6.24,6.24,0,1,1-6.24-6.23A6.24,6.24,0,0,1,121.82,198.78Z"/><path class="cls-1" d="M134.77,191a4.56,4.56,0,1,1-4.56-4.56A4.56,4.56,0,0,1,134.77,191Z"/><circle class="cls-1" cx="140.47" cy="183.53" r="2.94"/><path class="cls-1" d="M96.94,198.18c-16.6,4.84-33.23,0-49-10.16C20.2,170.08,14.15,135.37,29.6,106.79c16.29-30.12,52.55-38.54,81.87-20.92A61.71,61.71,0,0,1,127.1,99.26,25.62,25.62,0,0,0,152.94,108l.82-.2a17,17,0,0,0,10.82-24.5,85.92,85.92,0,0,0-34-34.6c-40-22.32-91.09-9.09-115.25,29.77a86.25,86.25,0,0,0,84.36,131.1,5.72,5.72,0,0,0,4.88-6.82h0A6,6,0,0,0,96.94,198.18Z"/><path class="cls-1" d="M96.94,198.18c-16.6,4.84-33.23,0-49-10.16C20.2,170.08,14.15,135.37,29.6,106.79c16.29-30.12,52.55-38.54,81.87-20.92A61.71,61.71,0,0,1,127.1,99.26,25.62,25.62,0,0,0,152.94,108l.82-.2a17,17,0,0,0,10.82-24.5,85.92,85.92,0,0,0-34-34.6c-40-22.32-91.09-9.09-115.25,29.77a86.25,86.25,0,0,0,84.36,131.1,5.72,5.72,0,0,0,4.88-6.82h0A6,6,0,0,0,96.94,198.18Z"/><path class="cls-1" d="M26.53,107.18C44.38,78,82.15,68.25,111.47,85.87A61.71,61.71,0,0,1,127.1,99.26,25.62,25.62,0,0,0,152.94,108l.82-.2a17,17,0,0,0,10.82-24.5,85.92,85.92,0,0,0-34-34.6c-40-22.32-91.09-9.09-115.25,29.77A86.24,86.24,0,0,0,80.6,209.89C8,196.82,12.69,129.82,26.53,107.18Z"/><path class="cls-1" d="M26.53,107.18C44.38,78,82.15,68.25,111.47,85.87A61.71,61.71,0,0,1,127.1,99.26,25.62,25.62,0,0,0,152.94,108l.82-.2a17,17,0,0,0,10.82-24.5,85.92,85.92,0,0,0-34-34.6c-40-22.32-91.09-9.09-115.25,29.77A86.24,86.24,0,0,0,80.6,209.89C8,196.82,12.69,129.82,26.53,107.18Z"/><path class="cls-1" d="M66.93,65.21c35.93-1.16,52.91,19.5,61.73,33A22.06,22.06,0,0,0,152.94,108l.81-.2a17,17,0,0,0,10.83-24.49,86,86,0,0,0-34-34.61C90.59,26.34,39.46,39.57,15.3,78.43a85.85,85.85,0,0,0-13,48.62C1.65,91.39,31,66.38,66.93,65.21Z"/><path class="cls-1" d="M153.75,104.57l-.81.2A22.06,22.06,0,0,1,128.66,95c-8.82-13.52-25.81-34.19-61.73-33S1.65,88.2,2.33,123.86c0-.51,0-1,0-1.54,0,1.58,0,3.16,0,4.74C1.65,91.4,31,66.38,66.93,65.22s52.91,19.49,61.73,33A22.07,22.07,0,0,0,152.94,108l.81-.2A17,17,0,0,0,166.53,89.7,16.94,16.94,0,0,1,153.75,104.57Z"/><path class="cls-1" d="M26.53,107.18a62.59,62.59,0,0,1,52-30.09A62.56,62.56,0,0,0,24,107.18c-13.51,22.11-18.25,86.47,49,101.68,2.51.46,5,.8,7.54,1C8,196.82,12.69,129.82,26.53,107.18Z"/></svg>