<svg id="Warstwa_1" data-name="Warstwa 1" xmlns="http://www.w3.org/2000/svg" viewBox="0 0 965.89 595.28"><defs><style>.cls-1{fill:#b0925c;}.cls-2{fill:#2c2c2c;}</style></defs><path class="cls-1" d="M201.25,275v1a12.56,12.56,0,0,0-4.83,2,15.7,15.7,0,0,0-4.15,4.89,54.08,54.08,0,0,0-4.29,9.85l-24.9,73.39h-.91l-22.68-73.39h-.29l-24.67,73.39h-.9L88.35,285.25A15.52,15.52,0,0,0,85,279a8.75,8.75,0,0,0-3.53-2.38,20.55,20.55,0,0,0-4-.63v-1h27.56v1a8,8,0,0,0-5.46,2.17A6.61,6.61,0,0,0,97.83,283a18.86,18.86,0,0,0,1,5.43l18.76,60h.24l20.14-60-.85-2.71a17.8,17.8,0,0,0-3.61-6.67c-1.61-1.83-4.12-2.82-7.55-3v-1h28.41v1c-3.21,0-5.3.86-6.24,2.47a9,9,0,0,0-1.42,4.46,18,18,0,0,0,.91,5.43l18.52,60h.24l18.87-55.6a43.07,43.07,0,0,0,1.54-5.24,23.69,23.69,0,0,0,.69-5.13q0-4.1-1.78-5.12A13.72,13.72,0,0,0,180,276v-1Z"/><path class="cls-1" d="M230.14,275v1a10.42,10.42,0,0,0-6.76,2.23c-1.84,1.49-2.77,4-2.77,7.42V353.1c0,3.42,1,5.9,2.95,7.45a10.45,10.45,0,0,0,6.58,2.32v1H202v-1a10.34,10.34,0,0,0,6.66-2.26q2.81-2.26,2.8-7.51V285.68c0-3.7-.93-6.23-2.8-7.61a11,11,0,0,0-6.66-2v-1Z"/><path class="cls-1" d="M234.18,362.87h1.21a7.86,7.86,0,0,0,5.76-2.56,9.94,9.94,0,0,0,2.5-7.21V286q0-5.55-2.81-7.72a11.11,11.11,0,0,0-6.66-2.29v-1h28.4v1a11.6,11.6,0,0,0-6.63,2.23q-2.89,2.12-2.89,7.78v64.83c0,3.85,1,6.53,2.89,8s5.08,2.23,9.47,2.23h7.66a21.66,21.66,0,0,0,8-1.21,10.41,10.41,0,0,0,4.73-3.68,34.35,34.35,0,0,0,3.56-7h1L287,363.83H234.18Z"/><path class="cls-1" d="M290.87,362.87h1.21a7.86,7.86,0,0,0,5.76-2.56,9.94,9.94,0,0,0,2.5-7.21V286q0-5.55-2.81-7.72a11.13,11.13,0,0,0-6.66-2.29v-1h28.41v1a11.61,11.61,0,0,0-6.64,2.23q-2.89,2.12-2.89,7.78v64.83c0,3.85,1,6.53,2.89,8s5.09,2.23,9.46,2.23h7.67a21.62,21.62,0,0,0,8-1.21,10.41,10.41,0,0,0,4.73-3.68,33.84,33.84,0,0,0,3.56-7h1l-3.37,14.59H290.87Z"/><path class="cls-1" d="M367.7,324.46H396L381.51,282.3h-.24Zm20.2-50.54L414.5,350a37.3,37.3,0,0,0,4,8.56,9,9,0,0,0,3.58,3.35,15.42,15.42,0,0,0,4.38.93v1h-29v-1a21.89,21.89,0,0,0,6.88-.84c1.6-.56,2.41-2.09,2.41-4.58a18.25,18.25,0,0,0-1.15-5.48,2.13,2.13,0,0,1-.24-.73l-7.9-23.58H366.68l-7.06,21.83a24.47,24.47,0,0,0-1.44,7.17q0,3.75,1.86,5a9.66,9.66,0,0,0,5.31,1.23v1H344.48v-1a10.54,10.54,0,0,0,7.15-3.4c1.79-2,3.34-5,4.68-9.08l25.08-76.46Z"/><path class="cls-1" d="M583.9,275v1a12.56,12.56,0,0,0-4.83,2,15.7,15.7,0,0,0-4.15,4.89,54.08,54.08,0,0,0-4.29,9.85l-24.91,73.39h-.89l-22.68-73.39h-.31l-24.66,73.39h-.9L471,285.25a15.77,15.77,0,0,0-3.32-6.21,8.69,8.69,0,0,0-3.53-2.38,20.55,20.55,0,0,0-4-.63v-1h27.57v1a8,8,0,0,0-5.46,2.17,6.63,6.63,0,0,0-1.85,4.76,18.59,18.59,0,0,0,1,5.43l18.76,60h.24l20.15-60-.85-2.71a17.84,17.84,0,0,0-3.63-6.67c-1.6-1.83-4.12-2.82-7.53-3v-1H537v1q-4.81.06-6.24,2.47a9,9,0,0,0-1.41,4.46,18.22,18.22,0,0,0,.89,5.43l18.52,60H549l18.87-55.6a41.26,41.26,0,0,0,1.55-5.24,23.69,23.69,0,0,0,.69-5.13q0-4.1-1.78-5.12a13.68,13.68,0,0,0-5.76-1.27v-1Z"/><path class="cls-1" d="M602.9,318.24H608q8,0,13.06-2.29a15,15,0,0,0,7.39-6.55A21.72,21.72,0,0,0,630.7,299a25.83,25.83,0,0,0-2.05-10,18.71,18.71,0,0,0-7-8.26c-3.27-2.23-7.69-3.35-13.23-3.35a23.56,23.56,0,0,0-5.55.54Zm-17.43-42h-1.21V275H615a30.82,30.82,0,0,1,12.57,2.3,21.17,21.17,0,0,1,8,5.81,22.47,22.47,0,0,1,4.09,7.45,25.42,25.42,0,0,1,1.25,7.72,22.05,22.05,0,0,1-2,9.26,20.11,20.11,0,0,1-6.21,7.63,24.23,24.23,0,0,1-10.46,4.34v.24q8,3.86,14.71,15.32l8,13.56c3.62,6.08,6.53,9.91,8.71,11.53a13.28,13.28,0,0,0,6.49,2.71v1H644c-.69-.88-1.33-1.74-1.93-2.56s-1.25-1.7-1.93-2.63c-.41-.6-1-1.51-1.78-2.74a23.68,23.68,0,0,0-1.42-2.08l-10.61-17.55a45.15,45.15,0,0,0-6.54-8.71,25.43,25.43,0,0,0-6.24-4.8,18.29,18.29,0,0,0-5.22-1.81,36.25,36.25,0,0,0-5.46-.36V353.1q0,9.47,9.65,9.77v1H584.26v-1a13.59,13.59,0,0,0,4.71-1,7.42,7.42,0,0,0,3.4-3,10.63,10.63,0,0,0,1.36-5.76V285.92c0-3.54-.87-6-2.59-7.48a8.71,8.71,0,0,0-5.67-2.17"/><path class="cls-1" d="M719.11,278.38H676.6a26.31,26.31,0,0,0-8.62,1.17,10.78,10.78,0,0,0-5.31,3.95,19.09,19.09,0,0,0-2.9,7.72h-1V275h72.72v1.75L670,360.52h42.64A32.88,32.88,0,0,0,723.79,359a12.83,12.83,0,0,0,5.76-3.77,34.79,34.79,0,0,0,3.62-6.24h1L730,363.84H657.72V362Z"/><path class="cls-1" d="M820.36,319.75q0-17.75-6.27-27.74t-14.47-13.42a40.38,40.38,0,0,0-15.44-3.41A39.65,39.65,0,0,0,772.55,277a32.83,32.83,0,0,0-11.73,6.72q-5.72,4.89-9.39,13.75t-3.67,21.9a59.47,59.47,0,0,0,3,20,37.38,37.38,0,0,0,8.38,13.93A32.28,32.28,0,0,0,771,361.09a37.83,37.83,0,0,0,25.92.18,32.24,32.24,0,0,0,11.65-7.18,36.17,36.17,0,0,0,8.56-13.5q3.28-8.54,3.28-20.84m10.62-.24a45.62,45.62,0,0,1-6.19,23.21,46.6,46.6,0,0,1-16.85,17.1,45.32,45.32,0,0,1-23.64,6.37,46.91,46.91,0,0,1-47.22-47,45.9,45.9,0,0,1,3.71-18.37,45.38,45.38,0,0,1,10.38-15,47.89,47.89,0,0,1,15.19-9.89,47.1,47.1,0,0,1,50.36,9.52,45.87,45.87,0,0,1,10.46,15,47.08,47.08,0,0,1,3.8,19.06"/><path class="cls-1" d="M882.6,292.07h-1A19.32,19.32,0,0,0,876,280.76c-3.18-3.24-7.4-4.85-12.63-4.85a17.21,17.21,0,0,0-9.1,2.41,16.49,16.49,0,0,0-6.15,6.57,20.28,20.28,0,0,0-2.17,9.53,19.8,19.8,0,0,0,1.29,7.39,16.56,16.56,0,0,0,3.83,5.7,35.13,35.13,0,0,0,6,4.61q3.44,2.14,9.29,5.4a69.69,69.69,0,0,1,15.2,10.7q5.43,5.34,5.42,14.63A22.26,22.26,0,0,1,884,353.79a22.55,22.55,0,0,1-8.83,8.65q-5.91,3.38-14.66,3.38a36.44,36.44,0,0,1-9.71-1.17,51.37,51.37,0,0,1-8.56-3.29,9.71,9.71,0,0,0-2.47-.6,1.61,1.61,0,0,0-1.66.9,27.79,27.79,0,0,0-1.06,3.92h-1V343.33h1q2.17,9.76,8.45,14.78a23.71,23.71,0,0,0,15.26,5q6.74,0,10.82-2.53a13.88,13.88,0,0,0,5.64-6.16,18,18,0,0,0,1.56-7.23q0-7.49-4.55-12.21t-13.84-9.68q-6.39-3.49-9.47-5.43a38.37,38.37,0,0,1-6.24-5,23.42,23.42,0,0,1-5-7.27A23.16,23.16,0,0,1,837.8,298a23.59,23.59,0,0,1,3.31-12,24.77,24.77,0,0,1,9.41-9.2,27.45,27.45,0,0,1,13.81-3.47,39.12,39.12,0,0,1,12,2,5.81,5.81,0,0,0,2.58.49c1.33,0,2.24-.91,2.72-2.72h1Z"/><path class="cls-1" d="M430.62,188.14a25.68,25.68,0,0,1,2.53.94c-.43-.38-.84-.75-1.21-1.12l-1.32.18M616,210.58a2,2,0,0,1,1,.29c2.37,1.43,4.71,2.94,7,4.49a2.06,2.06,0,0,1,.75.95,15.42,15.42,0,0,0,1.67,3.2,20.56,20.56,0,0,0,4.45,4.48,34.89,34.89,0,0,0-3-5.77,30.64,30.64,0,0,0-2.08-2.71,2,2,0,0,1,2.39-3.15,30.5,30.5,0,0,0,3.16,1.28A35.78,35.78,0,0,0,637.7,215a20.23,20.23,0,0,0-5.53-3.17,15.21,15.21,0,0,0-5-.82,14,14,0,0,0-3.2.35,2,2,0,0,1-1.58-.27l-.54-.34c-.68-.45-1.35-.88-2-1.31a2,2,0,0,1,.86-3.73,29.46,29.46,0,0,0,4.2-.72,26.09,26.09,0,0,0-9.87-2.83,19.7,19.7,0,0,0-6,.57,2.05,2.05,0,0,1-1.42-.16c-3.05-1.57-6.31-3.12-9.71-4.6a2,2,0,0,1-1.19-2.14,2,2,0,0,1,1.75-1.73A24.76,24.76,0,0,0,603.7,193c-2-1.47-7.93-3.76-13.12-4.07A26.14,26.14,0,0,0,580,190.59a2,2,0,0,1-1.33,0l-.55-.17c-1-.32-1.94-.62-2.9-.92a2,2,0,0,1-1.45-2,2,2,0,0,1,1.55-1.91,29.3,29.3,0,0,0,6.38-2.12,24.5,24.5,0,0,0-7.59-2,2,2,0,0,1-1.39-.84,6.71,6.71,0,0,0-2.09-.23,26.75,26.75,0,0,0-9.1,1.8,19.87,19.87,0,0,0-3.63,2.09,2.07,2.07,0,0,1-1.6.32l-2.6-.56a1.64,1.64,0,0,1-.24.21,2,2,0,0,1-1.7.36l-1.56-.39a2,2,0,0,1-.58-3.71c.53-.32,1-.65,1.58-1a2,2,0,0,1,2.09,0,1.58,1.58,0,0,1,.36.26,10.77,10.77,0,0,0,4.11-2.19c-.23-.21-.56-.47-.8-.67a10.08,10.08,0,0,0-4-.53,29,29,0,0,0-10.41,1.92,24.59,24.59,0,0,0-4.81,2.71,2,2,0,0,1-1.54.36l-2.38-.41a2,2,0,0,1-.6-3.79,22,22,0,0,0,3.08-1.88,20.47,20.47,0,0,0-5.52-.61,31.18,31.18,0,0,0-7.71.91,24.31,24.31,0,0,0-6.28,2.71,1.93,1.93,0,0,1-1.24.28c-1.32-.13-2.52-.25-3.72-.35a2,2,0,0,1-.83-3.77,38.11,38.11,0,0,0,7.67-5.34,12.14,12.14,0,0,0-2-.14,32.73,32.73,0,0,0-11.31,2.25,25.91,25.91,0,0,0-8.1,5.48,2.08,2.08,0,0,1-1.49.59c-1.87-.06-3.72-.1-5.57-.14a2,2,0,0,1-.58-3.94,28.53,28.53,0,0,0,7.25-3.11c-1.6-.91-6.24-2.17-12.28-2.17a30.74,30.74,0,0,0-4.26.27c-9,1.27-15.43,6.79-16.37,8.1a1.92,1.92,0,0,1-1.84,1.47l-4,.26a2,2,0,0,1-1.22-3.73,30,30,0,0,0,6.59-5.06,12.43,12.43,0,0,0-3.05-.3A39,39,0,0,0,447,171.59a31.22,31.22,0,0,0-11,8,2,2,0,0,1-1.28.66c-4.44.54-8.92,1.16-13.7,1.88a2,2,0,0,1-2.14-1.14,2.07,2.07,0,0,1,.48-2.38c4.2-3.74,6.37-6.43,7.09-7.74h-.33c-3.34,0-10.61,2.4-15.35,5.62a31.46,31.46,0,0,0-8.06,8.15,2,2,0,0,1-1.3.84c-1.69.33-3.36.65-5,1a2,2,0,0,1-1.49-3.69,27.52,27.52,0,0,0,6-4.62,13.2,13.2,0,0,0-3.18-.31c-.45,0-.9,0-1.37,0a56.87,56.87,0,0,0-3.91,5.73l.31,6.35a5.58,5.58,0,0,0,.32.52l4.14-.87a2.06,2.06,0,0,1,2.07.83c.72,1,7.79,6.11,17.13,6.49l.95,0c6.56,0,13.43-2.16,15.37-3.6-2-1.15-8.12-2.78-14.5-3.46a2,2,0,0,1-.11-4c4.83-.77,9.66-1.46,14.34-2.05a2,2,0,0,1,1.74.63,30.41,30.41,0,0,0,14.4,8.32,36.31,36.31,0,0,0,8.34.9c4.48,0,7.19-.66,8.32-1.16-2-1.8-9.29-5.13-14.88-6.69a2,2,0,0,1,.37-4c5-.43,10.07-.77,15.16-1a2,2,0,0,1,1.67.74,31.33,31.33,0,0,0,9,7.55c4.22,2.28,10.74,4.07,14.84,4.07a7,7,0,0,0,1.32-.1c-1.18-1.77-5.37-5.48-10.72-9a2,2,0,0,1-.83-2.27,2,2,0,0,1,1.93-1.45h1.68c2.57,0,5.17,0,7.76.09a2,2,0,0,1,1.51.73,25,25,0,0,0,12.52,7.47,32.63,32.63,0,0,0,8.74.71,2,2,0,0,1,1.3.38,24,24,0,0,0,5.4,3,32.51,32.51,0,0,0,10.73,2,9,9,0,0,0,3.23-.41,2.16,2.16,0,0,1,.68-.7,2.05,2.05,0,0,1,2-.09,24.06,24.06,0,0,0,5.12,1.92,30.48,30.48,0,0,0,6.88.74c3.55,0,6.1-.54,7.05-1.07a2,2,0,0,1,2.38.3,23.75,23.75,0,0,0,3.9,3.06c4,2.55,10.07,4.32,13,4.32a4.56,4.56,0,0,0,.62,0,2,2,0,0,1,3.44-.55,25,25,0,0,0,3.21,3.21c3.63,3,9.46,5.66,12.32,6-1.25-2.41-5.6-7.56-9-10.51l-.09-.08-.13-.12a2,2,0,0,1,2.23-3.26c4.34,1.68,8.62,3.52,12.74,5.47a2,2,0,0,1,1.13,1.54c.25,1.75,2.27,6.81,6.66,10.47a26.44,26.44,0,0,0,9.09,4.69,38.22,38.22,0,0,0-4.61-5.64,2,2,0,0,1-.13-2.67,2,2,0,0,1,1.59-.75m16.82,18.57h0c-2.71,0-7.05-3.79-9.32-6.79a3.24,3.24,0,0,1-.33.42,3.52,3.52,0,0,1-2.78,1.08c-3.17,0-9.2-2.71-12.93-5.8a25.09,25.09,0,0,1-7.83-11.89l-2.76-1.26c2.12,2.59,3.91,5.31,4.05,7.21a3,3,0,0,1-.72,2.25,3.89,3.89,0,0,1-3.06,1.16c-3.79,0-11-3.27-15.52-7a27.44,27.44,0,0,1-2.25-2.08,6.73,6.73,0,0,1-2.44.38c-4,0-10.78-2.21-15.11-4.93a26.1,26.1,0,0,1-3.54-2.65,27.16,27.16,0,0,1-7.63,1,34.31,34.31,0,0,1-7.84-.85,27.45,27.45,0,0,1-4.69-1.62,10.92,10.92,0,0,1-5.36,1,36.09,36.09,0,0,1-12.21-2.25,28.12,28.12,0,0,1-5.73-3.08,35.39,35.39,0,0,1-9.19-.85,29.54,29.54,0,0,1-14.06-8.11l-2,0c4.91,3.79,8.77,7.92,7.14,10.71-.81,1.39-2.53,2.07-5.27,2.07-4.75,0-12-2-16.77-4.56a35,35,0,0,1-9.58-7.76l-4.73.28c3.87,1.69,7.72,3.81,8.87,5.87a3.16,3.16,0,0,1,.34,2.46c-1.05,3.65-8.37,4.2-12.65,4.2a40.7,40.7,0,0,1-9.3-1,35.1,35.1,0,0,1-10.83-4.83,2.81,2.81,0,0,1,.36,1.58c-.42,4.95-13.12,7.54-19.81,7.54-.37,0-.75,0-1.1,0-9.12-.35-16.52-4.61-19.33-7.16l-3.86.8a2,2,0,0,1-1.53-.29,6.52,6.52,0,0,0-.72-.43,2,2,0,0,1-.67-.54,13.38,13.38,0,0,1-.92-1.39l-.2-.34a2,2,0,0,1-.3-1l-.37-7.48a2,2,0,0,1,.29-1.15,58.66,58.66,0,0,1,5.14-7.43,2.06,2.06,0,0,1,1.4-.72c.88-.06,1.73-.1,2.53-.1,3.77,0,6.1.74,7.11,2.26a31.8,31.8,0,0,1,3.67-2.92c5.06-3.42,13.12-6.32,17.63-6.32,1.94,0,3.32.54,4.09,1.6.65.9,2,2.78-3.6,8.82,2.33-.32,4.61-.62,6.87-.9a35.54,35.54,0,0,1,12-8.47,42.81,42.81,0,0,1,15-3c4,0,6.37.88,7.2,2.68a3.71,3.71,0,0,1,.24.66,34.67,34.67,0,0,1,11.86-4,34.23,34.23,0,0,1,4.83-.32c.14,0,14.31.06,16.48,4.93a28.84,28.84,0,0,1,2.73-1.31,36.35,36.35,0,0,1,12.87-2.57c3.54,0,5.64.81,6.4,2.46.32.71.91,2-1.3,4.36a2.14,2.14,0,0,1,.27-.06,34.17,34.17,0,0,1,8.75-1.06c6,0,9.41,1.19,10.12,3.53a2.13,2.13,0,0,1,.1.4,32.49,32.49,0,0,1,12-2.23c3.14,0,5.33.47,6.5,1.4.88.7,2.66,2.11,2.54,4a31,31,0,0,1,8.63-1.38c2.28,0,3.87.39,4.83,1.22,3.68.55,10.49,2.06,10.93,5.65A2.84,2.84,0,0,1,586,185a27.14,27.14,0,0,1,4.81-.14c5.29.32,17.63,3.58,17.54,8.46,0,1.5-1,2.61-3.26,3.44,1.27.6,2.5,1.21,3.71,1.82a23.8,23.8,0,0,1,6.45-.51c4.07.24,14.74,2.84,14.68,7.27a2.62,2.62,0,0,1-.59,1.69,19.22,19.22,0,0,1,4.15.93c3.17,1.11,10.69,5.42,9.63,9-.4,1.39-1.74,2.1-4,2.1a32.46,32.46,0,0,1-6.55-.93c1.4,2.55,3.4,6.68,2.95,8.85a2.67,2.67,0,0,1-1.14,1.71,2.87,2.87,0,0,1-1.56.44"/><path class="cls-1" d="M396.7,171.84l-1.15.94c1-.26,1.93-.48,2.79-.62-.61-.1-1.16-.21-1.64-.32m-32.29,22.32c.17.1.35.19.54.28,1-1,2-1.93,3.07-2.91a2,2,0,0,1,2.19-.39,12.05,12.05,0,0,0,3.36.34,30.83,30.83,0,0,0,14.63-3.84c5.78-3.27,11-9.2,12-11.6-2.94.07-9.45,2.4-14.14,4.66a2,2,0,0,1-2.21-3.36c3.75-3.23,7.48-6.35,11.12-9.29a2,2,0,0,1,1.81-.37,28.32,28.32,0,0,0,7.4.92,30,30,0,0,0,9.23-1.42c6.31-2.05,12.61-6.81,14-9a11.84,11.84,0,0,0-2-.13,62.51,62.51,0,0,0-14.21,2.25,2,2,0,0,1-1.77-3.57c4-3,8.14-5.95,12.35-8.85a2,2,0,0,1,1.81-.25,30.79,30.79,0,0,0,11.65,1.67c6.64-.39,14-3.4,15.87-5.11-1.91-.89-7.45-1.85-13.88-2a2,2,0,0,1-1.89-1.49,2,2,0,0,1,.88-2.25c2.57-1.62,5.3-3.26,8.07-4.89a2.07,2.07,0,0,1,1.67-.17,22,22,0,0,0,6.83,1,25,25,0,0,0,7.74-1.2,31.87,31.87,0,0,0,7.8-4,2.07,2.07,0,0,1,1.32-.36,24.56,24.56,0,0,0,6.17-.29c5.74-1,11.82-4.56,12.7-6a2,2,0,0,1,.18-.89,2,2,0,0,1,1.66-1.18,24.36,24.36,0,0,0,5.36-1.07c4.81-1.57,10.53-5.56,11.67-7.6a2,2,0,0,1,2.19-1,25.53,25.53,0,0,0,4.93.56c5.82,0,12.26-2.19,13.8-3.49a2,2,0,0,1,2.63-2.31,23.16,23.16,0,0,0,4.41,1.06,26.48,26.48,0,0,0,3.71.24,27.85,27.85,0,0,0,9.95-1.59c-2.34-1.4-8.74-3.49-13.19-4.21h-.07l-.31-.08a2,2,0,0,1,.27-3.91c4.57-.85,9.18-1.54,13.71-2a2,2,0,0,1,1.78.71c1.12,1.36,5.52,4.61,11.16,5.41a22.3,22.3,0,0,0,3,.18,24.77,24.77,0,0,0,7.24-1,37.34,37.34,0,0,0-6.89-2.36,2,2,0,0,1,.5-4h1.21c2.36,0,4.74,0,7.07.16a2,2,0,0,1,1.13.4,15.64,15.64,0,0,0,3.11,1.85,20.44,20.44,0,0,0,6.15,1.47,36.64,36.64,0,0,0-5.56-3.35,34.09,34.09,0,0,0-3.19-1.21,2,2,0,0,1,.39-3.94,29.56,29.56,0,0,0,3.34-.57,34.34,34.34,0,0,0,6-2.19,22.26,22.26,0,0,0-6.38.22,15.1,15.1,0,0,0-7.2,3.9,2.05,2.05,0,0,1-1.48.6h-.63l-2.44,0a2,2,0,0,1-1.23-3.62,27.47,27.47,0,0,0,3.19-2.82,26,26,0,0,0-9.87,2.78,20.29,20.29,0,0,0-4.8,3.64,2,2,0,0,1-1.29.6c-3.44.28-7,.68-10.68,1.2a2,2,0,0,1-2.14-1.2,2,2,0,0,1,.59-2.38,25.54,25.54,0,0,0,3.87-3.67l-.65,0a31.81,31.81,0,0,0-12.64,3.45,26.07,26.07,0,0,0-8.14,7,2,2,0,0,1-1.11.73l-.83.21-2.68.68a2,2,0,0,1-2-3.38,29.22,29.22,0,0,0,4.3-5.14,24.7,24.7,0,0,0-7.51,2.25,2,2,0,0,1-1.65,0c-1.45.3-6,3.57-8.66,7.24a19.36,19.36,0,0,0-2,3.68,2,2,0,0,1-1.19,1.11l-.22.08c-.77.27-1.52.53-2.28.81a2.8,2.8,0,0,1-.09.31,2,2,0,0,1-1.27,1.2l-1.53.49a2,2,0,0,1-2.17-.61,2,2,0,0,1-.26-2.24c.28-.55.55-1.11.82-1.67a2,2,0,0,1,1.75-1.15,2.06,2.06,0,0,1,.44,0,11,11,0,0,0,2.35-4c-.31-.07-.74-.12-1.06-.16-1.51,0-8,3.8-11.52,8.77a24.81,24.81,0,0,0-2.65,4.84,2.1,2.1,0,0,1-1.12,1.11l-.36.14-1.87.76a2,2,0,0,1-2.52-2.9,20.38,20.38,0,0,0,1.62-3.2c-2.64.72-7.82,3.72-11.08,7.19a24,24,0,0,0-3.91,5.6,2.08,2.08,0,0,1-.91.9c-1.11.55-2.24,1.09-3.34,1.66a2,2,0,0,1-2.69-2.78,38.38,38.38,0,0,0,3.71-8.58c-2.33,1-7.25,4.64-10.22,8.81a25.85,25.85,0,0,0-4,8.92,2,2,0,0,1-1,1.29c-1.62.93-3.23,1.86-4.81,2.81A2,2,0,0,1,438,129a29.11,29.11,0,0,0,4.53-6.44c-3.14.1-10.45,3.22-15.07,7.06-7,5.84-9.56,13.94-9.66,15.51a1.89,1.89,0,0,1-.79,2.22c-1.1.76-2.18,1.54-3.26,2.31a2,2,0,0,1-3-2.54,30.2,30.2,0,0,0,2.94-7.77c-2.74.8-9.13,5.6-12.76,10.68a31.14,31.14,0,0,0-5.16,12.58,2.09,2.09,0,0,1-.73,1.24c-3.49,2.79-7.07,5.75-10.67,8.81a2,2,0,0,1-3.26-2.12c1.61-5.44,2-8.88,1.95-10.35-2.27,1.2-7.66,7-10.39,13.06a31.56,31.56,0,0,0-2.57,11.17,2,2,0,0,1-.65,1.4q-1.91,1.74-3.75,3.48a2,2,0,0,1-3.21-2.36,28.74,28.74,0,0,0,2.67-7.07,15.42,15.42,0,0,0-4,2.16,54.92,54.92,0,0,0-.32,6.93Zm.25,4.37a1.91,1.91,0,0,1-.68-.12,12.36,12.36,0,0,1-1.49-.67l-.37-.2a1.94,1.94,0,0,1-.76-.66l-4.25-6.17a2.13,2.13,0,0,1-.36-1.12,57.17,57.17,0,0,1,.46-9,2,2,0,0,1,.82-1.34c4.24-3.09,7.33-4.15,9.33-3.24a34.91,34.91,0,0,1,1.59-4.41c2.83-6.32,10.25-15.68,14.7-15.68a3.35,3.35,0,0,1,1.28.24c1,.42,3.16,1.31,1.58,9.39,1.8-1.49,3.6-3,5.37-4.38a35.34,35.34,0,0,1,5.72-13.49c4-5.66,12.4-12.5,16.7-12.5a3.55,3.55,0,0,1,2,.57,3.38,3.38,0,0,1,.55.45,34.31,34.31,0,0,1,8-9.68c5.12-4.27,13.44-8,17.81-8a4.67,4.67,0,0,1,2.74.73,26.71,26.71,0,0,1,1.63-2.56c3.47-4.88,10.69-10.77,14.45-10.77a3.35,3.35,0,0,1,1.89.54c.64.43,1.81,1.21,1.18,4.39l.18-.2c3.76-4,11.11-8.64,15-8.64a3.58,3.58,0,0,1,2.42.82l.29.29c3.86-5.4,11.81-10.82,15.26-10.42,1.11.14,3.37.4,4.29,2.11,3.16-3.62,8.38-7.71,11.35-7.22a25,25,0,0,1,8.8-2.29,4.19,4.19,0,0,1,3.48,1.35,2.82,2.82,0,0,1,.63,1.67,29.15,29.15,0,0,1,4-2.65,35.6,35.6,0,0,1,14.56-3.93c2.47,0,4,.62,4.81,1.9s.49,2.77-1,4.64q2.08-.22,4.11-.39A23.25,23.25,0,0,1,557.94,84a29.26,29.26,0,0,1,12-3.27c.8,0,3.21,0,4.25,1.73a2.73,2.73,0,0,1,.39,1.75,18.76,18.76,0,0,1,4-1.39,21.9,21.9,0,0,1,4.71-.47c3.36,0,7.52.54,8.22,3.07a2.67,2.67,0,0,1-.3,2.07c-1.12,1.91-5.34,3.57-8.06,4.46,2.52,1.43,6.42,3.9,7.17,6a2.67,2.67,0,0,1-.07,2.06c-.9,1.9-3.58,1.9-4.47,1.9a24.19,24.19,0,0,1-8.11-1.59,4,4,0,0,1-.07.54c-.72,4.34-11.12,4.46-12.31,4.46a25.55,25.55,0,0,1-3.52-.22,25.11,25.11,0,0,1-12.93-6c-1,.12-2,.24-3,.38,3.15,1.08,6.12,2.46,7.23,4a3,3,0,0,1,.57,2.28c-.87,5-14.05,5.1-14.61,5.1a31.35,31.35,0,0,1-4.27-.28,27.32,27.32,0,0,1-3-.6c-2.84,3.71-12.95,5.38-17.14,5.38a27.83,27.83,0,0,1-4.57-.4c-2.67,3.2-8.67,6.8-13.08,8.24a27.87,27.87,0,0,1-4.87,1.1c-2.18,3.94-11.22,7.4-15.56,8.18a28.89,28.89,0,0,1-6.5.4,35.51,35.51,0,0,1-8.26,4.11,28.87,28.87,0,0,1-9,1.39,28.29,28.29,0,0,1-7.22-.89c-.59.34-1.17.69-1.75,1,6.18.63,11.64,2.11,11.72,5.34.12,5.06-13.11,9.07-20.06,9.48-.62,0-1.23,0-1.83,0a35.47,35.47,0,0,1-10.39-1.61c-1.3.9-2.58,1.8-3.86,2.71a45.91,45.91,0,0,1,6-.49c1.48,0,5.4,0,6.18,2.74,1.38,4.9-10.38,12.12-17,14.26a33.63,33.63,0,0,1-10.47,1.62l-1.21,0a2.89,2.89,0,0,1,1.07,1.16c2.3,4.53-7.79,14-13.84,17.38a35,35,0,0,1-16.61,4.36,22,22,0,0,1-3.6-.28c-1,.9-1.9,1.8-2.84,2.7a2,2,0,0,1-1.46.57h-.33l-.51,0h-.17"/><path class="cls-1" d="M487.39,155a2.24,2.24,0,0,1-.57-.08,57.42,57.42,0,0,0-8.3-1.67,2,2,0,0,1-.22-4c1.62-.4,3.27-.76,4.91-1.11a2,2,0,0,1,1.8.49,21.81,21.81,0,0,0,3.44,2.59,2,2,0,0,1-1.06,3.75M431,162.58c-.06.24-.13.49-.19.74-.23.9-.45,1.8-.67,2.71,3.78-1.7,7.35-3.23,10.94-4.68a2,2,0,0,1,1.83.15,24.7,24.7,0,0,0,11.41,3.61l1.05,0a29.3,29.3,0,0,0,11.29-2.27,47.22,47.22,0,0,0-11.74-2.62,2,2,0,0,1-1.82-1.77,2,2,0,0,1,1.35-2.16c2.77-1,5.59-1.89,8.38-2.76a2,2,0,0,1,1.77.29,24.62,24.62,0,0,0,12.32,4.2l1.05,0c5.16,0,10.47-1.62,11.91-2.63a2,2,0,0,1,.46-1.47,2,2,0,0,1,2.28-.6,22.89,22.89,0,0,0,4.06,1.15,26.85,26.85,0,0,0,4.9.41,25.29,25.29,0,0,0,7.62-1,48.13,48.13,0,0,0-11.8-4.27,2.06,2.06,0,0,1-1.64-2,2,2,0,0,1,1.72-1.94c4.3-.61,8.64-1,12.93-1.34a2,2,0,0,1,1.74.8,18.48,18.48,0,0,0,10.06,5.41,21.24,21.24,0,0,0,3.94.33,22.84,22.84,0,0,0,5.24-.55,38.6,38.6,0,0,0-5.93-2.28,2,2,0,0,1-1.41-2.27,2.09,2.09,0,0,1,2.07-1.69c2.56.09,5.17.25,7.75.48A2.11,2.11,0,0,1,535,145a13.79,13.79,0,0,0,2.77,1.82,18.68,18.68,0,0,0,5.16,1.54,34.33,34.33,0,0,0-4.59-3c-.68-.35-1.79-.83-2.9-1.26a2,2,0,0,1,.56-3.9,29.88,29.88,0,0,0,3.16-.39,32.24,32.24,0,0,0,5.24-1.58,20.63,20.63,0,0,0-5.38,0,14.3,14.3,0,0,0-6.88,3.29,2,2,0,0,1-1.49.52l-.46,0-2.41-.14a2,2,0,0,1-1-3.68,28.77,28.77,0,0,0,2.83-2.21,25.13,25.13,0,0,0-8.94,2.16,18.9,18.9,0,0,0-4.65,3.15,2,2,0,0,1-1.29.53c-3.28.12-6.66.34-10,.67a2.08,2.08,0,0,1-2.08-1.31,2,2,0,0,1,.71-2.35,25.66,25.66,0,0,0,3.57-3c-.22,0-.48,0-.8,0a30.83,30.83,0,0,0-11.42,2.67,24.66,24.66,0,0,0-7.94,6.14,2,2,0,0,1-1.15.67c-1.11.22-2.22.44-3.31.69a2,2,0,0,1-1.8-3.48,31.69,31.69,0,0,0,4.12-4.32,29.07,29.07,0,0,0-11.78,4.23,24.5,24.5,0,0,0-7.13,7.26,2.05,2.05,0,0,1-1.12.84l-3.07.93a2,2,0,0,1-2.33-.89,2,2,0,0,1,.31-2.48,23.16,23.16,0,0,0,2.52-2.82,29,29,0,0,0-11.77,4.23,24.55,24.55,0,0,0-7.7,8.2,2,2,0,0,1-1,.87c-2.91,1.16-5.93,2.42-9.21,3.85a2,2,0,0,1-1.23.13m-1.55,6.72c-.37,1.81-.68,3.66-1,5.56l.2,0A29.31,29.31,0,0,0,440.63,171a41.66,41.66,0,0,0-9.74-1.08,2.06,2.06,0,0,1-1.43-.63M426.87,179h-.78a2.05,2.05,0,0,1-1.48-.71,2.08,2.08,0,0,1-.47-1.59,120.69,120.69,0,0,1,2.76-14.34c.84-3.32,1.89-6.74,3.21-10.47a2,2,0,0,1,1.34-1.27c2.87-.84,4.77-.66,5.9.51s1.06,2.64,0,4.82l2-.82a28.91,28.91,0,0,1,8.64-9c4.16-2.7,10.61-4.91,14.38-4.91a4.31,4.31,0,0,1,3.72,1.49h0a26.87,26.87,0,0,1,4.48-3.66c4.17-2.7,10.61-4.9,14.38-4.9a4.28,4.28,0,0,1,3.72,1.48,2.87,2.87,0,0,1,.53,1.37,28.32,28.32,0,0,1,3.7-2.15A35,35,0,0,1,506,131.81c2.78,0,4.5.67,5.23,2.06.65,1.23.38,2.56-.93,4.16l3.48-.18a23.29,23.29,0,0,1,5.07-3.32A28.89,28.89,0,0,1,529.79,132c.88,0,3.6,0,4.6,1.88a2.7,2.7,0,0,1,.33,1.46,17.56,17.56,0,0,1,3.62-1,20.17,20.17,0,0,1,3.35-.26c2.41,0,8.08.32,8.77,3.34a2.63,2.63,0,0,1-.41,2c-1.11,1.69-4.94,3-7.55,3.78,2.3,1.46,5.57,3.83,6.16,5.75a2.57,2.57,0,0,1-.18,2c-.89,1.63-3.09,1.63-3.82,1.63a22.26,22.26,0,0,1-7.95-1.77c0,.14-.06.26-.08.37-.77,3.37-7.58,3.73-10.47,3.73a25.73,25.73,0,0,1-4.68-.39,23.35,23.35,0,0,1-11.79-6.08c-.73.05-1.47.11-2.2.18,2.7,1.1,5.15,2.44,6,3.85a2.9,2.9,0,0,1,.44,2.27c-.9,3.92-9.71,4.23-12.38,4.23a31.63,31.63,0,0,1-5.65-.47,25.4,25.4,0,0,1-2.74-.67c-2.87,3.19-11.84,4.28-15.22,4.28q-.64,0-1.26,0a27.85,27.85,0,0,1-5.71-.91,2.74,2.74,0,0,1,.48,1.87c-.45,4.63-12.13,6.14-16.11,6.14-.42,0-.85,0-1.26,0a28.7,28.7,0,0,1-12.43-3.67l-2.53,1.05c6.17,1.08,6.24,3.18,6.27,4,.18,4.62-11.42,7.95-16.41,8.35-.72.06-1.44.09-2.15.09"/><path class="cls-1" d="M387.55,142.14a2,2,0,0,1-1.52-.71,2,2,0,0,1,0-2.59q1.58-2,3.2-3.87a2,2,0,0,1,1.74-.71,23.15,23.15,0,0,0,4.3,0,2,2,0,0,1,2.18,1.54,2,2,0,0,1-1.23,2.36,57.14,57.14,0,0,0-7.59,3.75,2.13,2.13,0,0,1-1,.28m-30.92,36.08c.1.24.21.47.3.71.37.85.74,1.7,1.13,2.55,1.9-3.55,3.85-7,5.8-10.38a2,2,0,0,1,1.55-1A24.78,24.78,0,0,0,376.65,166a29.52,29.52,0,0,0,8.4-9.28,46.18,46.18,0,0,0-10.89,5.06,2,2,0,0,1-2.77-2.82c1.54-2.36,3.2-4.82,4.94-7.3a2,2,0,0,1,1.59-.86,24.52,24.52,0,0,0,12.31-4.2c4.33-3,8.12-8.09,8.68-10a2,2,0,0,1,.9-3.32,22.4,22.4,0,0,0,3.92-1.56,29.34,29.34,0,0,0,9.57-8.09c-3.07.31-9,2.38-12,3.81a2,2,0,0,1-2.58-.49,2.08,2.08,0,0,1,.2-2.72c3-3.09,6.2-6.1,9.42-9a2,2,0,0,1,1.88-.43,10.89,10.89,0,0,0,2.48.23,19.71,19.71,0,0,0,8.79-2.09,25,25,0,0,0,7.14-5.79,39.79,39.79,0,0,0-6.09,1.83,2,2,0,0,1-2.5-.94,2,2,0,0,1,.6-2.6c2.05-1.47,4.21-2.93,6.43-4.35a2.13,2.13,0,0,1,1.17-.32,14.17,14.17,0,0,0,3.31-.25,18.58,18.58,0,0,0,5-1.93,30.85,30.85,0,0,0-5.47.43,29.09,29.09,0,0,0-3,.77,2,2,0,0,1-2-3.44,28.5,28.5,0,0,0,2.26-2.22,32.27,32.27,0,0,0,3.2-4.46,19,19,0,0,0-4.26,3.31,14.55,14.55,0,0,0-3.44,6.81,2,2,0,0,1-.86,1.32c-.82.55-1.6,1.07-2.37,1.61a2,2,0,0,1-2.36,0,2,2,0,0,1-.72-2.24A34.53,34.53,0,0,0,418.5,97a25.17,25.17,0,0,0-5.78,7.22,19.17,19.17,0,0,0-1.77,5.34,1.91,1.91,0,0,1-.7,1.21c-2.55,2.12-5.08,4.36-7.54,6.65a2,2,0,0,1-3.32-2.05,25.87,25.87,0,0,0,1-4.6,29.42,29.42,0,0,0-8.07,9.6,24.7,24.7,0,0,0-2.55,9.72,1.88,1.88,0,0,1-.5,1.21l-.35.41c-.62.72-1.25,1.44-1.85,2.16a2,2,0,0,1-3.54-1.65,29.89,29.89,0,0,0,.61-6,30.21,30.21,0,0,0-6.74,10.63,24.42,24.42,0,0,0-1.21,10.1,2.09,2.09,0,0,1-.38,1.35c-.62.87-1.25,1.74-1.85,2.61a2,2,0,0,1-2.4.72,2,2,0,0,1-1.26-2.15,23.57,23.57,0,0,0,.26-3.87,30.31,30.31,0,0,0-6.73,10.63,24.53,24.53,0,0,0-1.09,11.19,2.12,2.12,0,0,1-.27,1.31c-1.6,2.68-3.21,5.52-5,8.67a2,2,0,0,1-.9.85m2.88,6.28c.82,1.65,1.69,3.31,2.63,5l.14-.14A29.26,29.26,0,0,0,369.4,179a42.54,42.54,0,0,0-8.37,5.1,2,2,0,0,1-1.52.38m2,10.09a2,2,0,0,1-.42-.05,2.06,2.06,0,0,1-1.34-1,121.75,121.75,0,0,1-6.57-13.05c-1.37-3.17-2.63-6.52-3.86-10.26a2.07,2.07,0,0,1,.3-1.83c1.61-2.19,3-3.21,4.52-3.21a3.71,3.71,0,0,1,.47,0c1.48.25,2.42,1.46,2.89,3.86q.56-1,1.11-1.89A28.57,28.57,0,0,1,360,154.87c1.66-4.72,7.17-13.89,11.37-13.89a2.84,2.84,0,0,1,.88.13h0a26.69,26.69,0,0,1,1.32-5.64c1.65-4.71,7.16-13.88,11.36-13.88a3.22,3.22,0,0,1,.88.12,2.85,2.85,0,0,1,1.26.76,26.69,26.69,0,0,1,1.61-4c2.49-4.9,8.82-12.3,12.67-12.3a3.08,3.08,0,0,1,1.29.28c1.28.58,1.88,1.78,1.82,3.84.87-.76,1.75-1.51,2.62-2.24a22.94,22.94,0,0,1,2-5.74c1.82-3.57,7.07-10.24,10.67-10.24a2.88,2.88,0,0,1,1.2.26,2.52,2.52,0,0,1,1.15,1,17.86,17.86,0,0,1,2.24-3c2.43-2.64,7-5.6,9.58-5.6a2.92,2.92,0,0,1,1.9.64,2.61,2.61,0,0,1,.91,1.83c.15,2-2.05,5.41-3.67,7.6,1.06-.1,2.23-.16,3.36-.16,1.86,0,5.72,0,6.13,2.69.55,3.5-6.38,6.26-9.43,7.08l.18.33c1.76,3.82-6.51,10.15-10,11.91a23.9,23.9,0,0,1-10.63,2.53,17.6,17.6,0,0,1-2.41-.16l-1.65,1.49a22.48,22.48,0,0,1,5.32-.92c2.26,0,3.18,1,3.55,1.8,1.93,4.21-7.52,11.71-12,14A23.88,23.88,0,0,1,403,136.5c-.36,4.36-6.93,11-10.43,13.43a27.48,27.48,0,0,1-5.08,2.76,2.7,2.7,0,0,1,1.52,1.18c2.45,3.92-5.91,12.61-10,15.44A28.89,28.89,0,0,1,366.86,174l-1.39,2.42a12.44,12.44,0,0,1,5-1.74,3,3,0,0,1,2.4,1c2.95,3.55-4.2,13.27-7.91,16.63a24.89,24.89,0,0,1-2.27,1.84,2,2,0,0,1-1.19.4"/><path class="cls-1" d="M328.39,210.07,324.9,208c10.52-17.76,37.73-33.06,38.88-33.7l2,3.54c-.27.15-27.41,15.41-37.36,32.22"/><path class="cls-1" d="M332.84,220l-3.64-1.76c8.59-17.78,30.84-33.1,31.78-33.75l2.29,3.35c-.22.15-22.3,15.37-30.43,32.16"/><path class="cls-1" d="M311.56,208.39,309,205.28c13.37-11.11,47.79-20.64,49.25-21l1.07,3.9c-.34.1-35,9.7-47.74,20.25"/><path class="cls-2" d="M250.52,474h10.55l-5.29-14.44Zm-2.75,8.39h-4.84l9.56-26.76h6.57l9.53,26.76H263.8l-1.79-5H249.54Z"/><path class="cls-2" d="M296,459.37v11.07h5.21c4.09,0,7-2.3,7-5.51s-2.91-5.56-7-5.56Zm0,14.86v8.16h-4.39V455.63H302c6.28,0,10.76,3.89,10.76,9.3s-4.48,9.3-10.8,9.3Z"/><path class="cls-2" d="M339.88,474h10.55l-5.29-14.44Zm-2.76,8.39h-4.84l9.57-26.76h6.57L358,482.39h-4.8l-1.78-5H338.89Z"/><path class="cls-2" d="M385.54,459.37v9.71h7.26c3.47,0,6.05-2,6.05-4.76,0-3.14-2.53-4.95-6.05-4.95Zm0,23H381V455.63h12.33c5.86,0,10.05,3.59,10.05,8.69a8.14,8.14,0,0,1-6.23,7.71l6.69,10.36h-5.22l-5.9-9.68h-7.18Z"/><polygon class="cls-2" points="432.71 459.52 424.13 459.52 424.13 455.63 445.79 455.63 445.79 459.52 437.25 459.52 437.25 482.39 432.71 482.39 432.71 459.52"/><path class="cls-2" d="M472.25,474H482.8l-5.29-14.44Zm-2.76,8.39h-4.84l9.56-26.76h6.58l9.52,26.76h-4.79l-1.78-5H471.26Z"/><polygon class="cls-2" points="517.87 482.39 513.37 482.39 513.37 455.63 519.69 455.63 528.35 476.68 537.07 455.63 543.38 455.63 543.38 482.39 538.89 482.39 538.89 461.26 530.12 482.39 526.64 482.39 517.87 461.3 517.87 482.39"/><polygon class="cls-2" points="573.24 478.53 587.76 478.53 587.76 482.39 568.86 482.39 568.86 455.63 587.38 455.63 587.38 459.48 573.24 459.48 573.24 466.86 585.87 466.86 585.87 470.33 573.24 470.33 573.24 478.53"/><polygon class="cls-2" points="629.79 476.87 629.79 455.63 634.22 455.63 634.22 482.39 628.7 482.39 616.37 461.15 616.37 482.39 611.91 482.39 611.91 455.63 617.43 455.63 629.79 476.87"/><polygon class="cls-2" points="665.55 459.52 656.97 459.52 656.97 455.63 678.63 455.63 678.63 459.52 670.09 459.52 670.09 482.39 665.55 482.39 665.55 459.52"/><polygon class="cls-2" points="708.63 472.86 699 455.63 703.91 455.63 710.91 468.67 717.71 455.63 722.74 455.63 713.18 472.86 713.18 482.39 708.63 482.39 708.63 472.86"/><path class="cls-1" d="M481.3,390.63v.47a4.74,4.74,0,0,0-3.08,1,4.12,4.12,0,0,0-1.27,3.39v30.77a4.06,4.06,0,0,0,1.35,3.4,4.78,4.78,0,0,0,3,1.06v.44H468.45v-.44a4.74,4.74,0,0,0,3-1,4.17,4.17,0,0,0,1.28-3.43V395.51c0-1.69-.43-2.85-1.28-3.47a5,5,0,0,0-3-.94v-.47Z"/><path class="cls-1" d="M496.06,390.63v.47a4.74,4.74,0,0,0-3.08,1,4.09,4.09,0,0,0-1.27,3.39v30.77a4.06,4.06,0,0,0,1.35,3.4,4.78,4.78,0,0,0,3,1.06v.44H483.21v-.44a4.76,4.76,0,0,0,3-1,4.17,4.17,0,0,0,1.28-3.43V395.51c0-1.69-.43-2.85-1.28-3.47a5,5,0,0,0-3-.94v-.47Z"/><path class="cls-1" d="M193.19,412.93a5.78,5.78,0,0,1-3.52-1.13,4.85,4.85,0,0,1-1.74-2.39,7.2,7.2,0,0,1-3.45,2.82,9.43,9.43,0,0,1-5.38-5.47c-2,3.24-5.42,4.86-8.37,5.67a23.11,23.11,0,0,1-5.42.8,22.58,22.58,0,0,1,5.42.82c3,.8,6.4,2.42,8.37,5.67a9.53,9.53,0,0,1,5.38-5.49,7.42,7.42,0,0,1,3.45,2.84,4.79,4.79,0,0,1,1.19-1.92,5.82,5.82,0,0,1,4.1-1.6l0-.62Z"/><polygon class="cls-1" points="187.34 412.03 187.34 413.24 187.34 414.46 439.56 414.46 439.56 413.24 439.56 412.03 187.34 412.03 187.34 412.03"/><path class="cls-1" d="M771.32,412.93a5.78,5.78,0,0,0,3.52-1.13,4.91,4.91,0,0,0,1.74-2.39,7.2,7.2,0,0,0,3.45,2.82,9.39,9.39,0,0,0,5.37-5.47c2,3.24,5.43,4.86,8.38,5.67a23.11,23.11,0,0,0,5.42.8,22.58,22.58,0,0,0-5.42.82c-2.95.8-6.4,2.42-8.38,5.67a9.48,9.48,0,0,0-5.37-5.49,7.42,7.42,0,0,0-3.45,2.84,4.79,4.79,0,0,0-1.19-1.92,5.82,5.82,0,0,0-4.1-1.6l0-.62Z"/><polygon class="cls-1" points="777.17 412.03 777.17 413.24 777.17 414.46 524.95 414.46 524.95 413.24 524.95 412.03 777.17 412.03 777.17 412.03"/></svg>